<svg width="54" height="50" viewBox="0 0 54 50" fill="none" xmlns="http://www.w3.org/2000/svg">
<path d="M45.7408 8.92324C45.729 8.91256 45.717 8.90195 45.7051 8.89131L45.6931 8.88072L45.6685 8.85906L45.6543 8.84674L45.6313 8.82681L45.6172 8.81461L45.5913 8.79241L45.5799 8.78273C45.5679 8.77246 45.5557 8.76219 45.5435 8.75195L45.5302 8.7409L45.5066 8.72126L45.4885 8.70625L45.4686 8.68994L45.45 8.67471L45.4326 8.66065L45.409 8.6416L45.4037 8.6374C45.3721 8.61207 45.3402 8.58684 45.3079 8.56175L45.3017 8.55689L45.2698 8.53224L45.2659 8.52926C45.2468 8.51459 45.2276 8.49994 45.2082 8.48537L45.1961 8.47618C45.1558 8.44588 45.1151 8.41576 45.0739 8.38581L45.0697 8.38278C37.6157 2.96987 14.6632 3.15002 8.24093 8.92324C2.37455 14.1968 1.73131 33.9055 8.0303 38.9218C7.40975 40.7207 6.88338 42.7274 7.03846 44.0408L7.03895 44.0449C7.04251 44.0747 7.04641 44.1041 7.05065 44.1331L7.05131 44.1376C7.05328 44.1507 7.05526 44.1638 7.05737 44.1768L7.05811 44.1814C7.06036 44.1953 7.06274 44.2092 7.06517 44.223L7.0661 44.2282C7.06819 44.2398 7.07035 44.2514 7.07255 44.2629L7.07444 44.2727C7.07699 44.2857 7.07959 44.2987 7.08231 44.3115L7.08278 44.3138L7.08893 44.342L7.08974 44.3456C7.096 44.3734 7.10262 44.4007 7.10968 44.4276L7.11135 44.4341L7.11767 44.4574L7.12013 44.4662L7.1267 44.4892L7.12824 44.4944C7.13271 44.5096 7.13732 44.5246 7.14208 44.5395L7.14467 44.5477L7.1509 44.5665L7.15537 44.5797L7.16164 44.5978L7.16616 44.6104L7.17555 44.6359L7.18303 44.6555L7.18879 44.6699L7.19534 44.6861L7.20149 44.7008L7.20792 44.7159L7.21434 44.7306L7.22212 44.7477L7.23188 44.7686L7.24019 44.7859L7.24635 44.7982L7.25469 44.8146L7.26096 44.8266L7.27104 44.8453L7.27568 44.8539L7.29024 44.8795L7.29633 44.8897L7.30655 44.9067L7.31281 44.9168L7.32396 44.9343L7.32938 44.9427L7.34608 44.9675L7.34988 44.973L7.36369 44.9924L7.37016 45.0012L7.38221 45.0172L7.38875 45.0257L7.40457 45.0456L7.40734 45.049L7.42657 45.0719L7.43214 45.0783L7.44668 45.0946L7.45327 45.1018L7.46838 45.1178L7.47419 45.1239L7.49482 45.1445L7.49982 45.1493L7.51657 45.1651L7.52373 45.1716L7.5395 45.1857L7.54649 45.1918L7.56915 45.2107C8.94298 46.3264 11.8871 44.3419 14.7641 41.7574C24.6269 44.1388 40.0095 43.2487 45.7409 39.0854C52.2652 34.346 51.6722 14.2552 45.7408 8.92324Z" fill="#F39BA6"/>
<path d="M14.6791 16.0557C17.5075 13.2359 20.3352 11.5349 18.2458 9.45177C16.1563 7.36862 12.1697 7.96583 9.3414 10.7857C8.56161 11.5632 7.95135 12.4284 7.52011 13.3176C8.16218 13.1508 8.29681 12.2817 8.29681 12.2817C8.29681 12.2817 8.4361 13.2584 9.18283 13.3398C8.4361 13.4212 8.29681 14.4318 8.29681 14.4318C8.29681 14.4318 8.15951 13.5146 7.50094 13.3574C6.38845 15.6819 6.49875 18.1632 8.00349 19.6634C10.0929 21.7466 11.8508 18.8756 14.6791 16.0557Z" fill="#F4A9B6"/>
<path d="M45.7408 8.92322C45.729 8.91253 45.717 8.90192 45.7051 8.89129L45.6931 8.8807L45.6685 8.85904L45.6543 8.84672L45.6313 8.82679L45.6172 8.81459L45.5913 8.79239L45.5799 8.78271C45.5679 8.77244 45.5557 8.76217 45.5435 8.75192L45.5302 8.74087L45.5066 8.72124L45.4885 8.70623L45.4686 8.68992L45.45 8.67469L45.4326 8.66063L45.409 8.64158L45.4037 8.63738C45.3721 8.61205 45.3402 8.58681 45.3079 8.56173L45.3017 8.55686L45.2698 8.53222L45.2659 8.52923C43.9117 7.48884 41.9945 6.64799 39.7312 6.00598C38.4496 9.19618 37.0041 12.3097 35.3648 15.3143C37.8449 16.5593 38.8965 19.188 38.6192 22.0156C38.5215 23.0122 38.3183 23.9991 38.0058 24.951C37.2323 27.3074 35.7248 29.5792 33.6319 30.9689C31.3851 32.4609 28.4075 33.0083 25.7534 32.7487C24.6792 32.6436 23.6592 32.3941 22.7077 32.0209C21.9221 32.7685 21.1123 33.4995 20.2775 34.2129C16.5292 37.4582 12.1677 39.3279 7.49102 40.6537C7.11025 42.0465 6.88912 43.396 7.08237 44.3115L7.08283 44.3137L7.08899 44.342L7.0898 44.3456C7.09602 44.3733 7.10267 44.4007 7.10973 44.4276L7.1114 44.434L7.11773 44.4574L7.12018 44.4661L7.12675 44.4892L7.1283 44.4943C7.13276 44.5095 7.13737 44.5246 7.14213 44.5395L7.14473 44.5476L7.15096 44.5664L7.15542 44.5797L7.1617 44.5977L7.16621 44.6103L7.1756 44.6358L7.18308 44.6554L7.18884 44.6699L7.19539 44.686L7.20155 44.7008L7.20797 44.7158L7.2144 44.7305L7.22217 44.7477L7.23193 44.7685L7.24025 44.7858L7.2464 44.7981L7.25474 44.8145L7.26102 44.8266L7.2711 44.8453L7.27573 44.8538L7.2903 44.8794L7.29638 44.8897L7.3066 44.9066L7.31286 44.9167L7.32402 44.9343L7.32944 44.9426L7.34614 44.9675L7.34994 44.9729L7.36374 44.9923L7.37022 45.0011L7.38226 45.0171L7.38881 45.0256L7.40462 45.0455L7.4074 45.049L7.42662 45.0718L7.43219 45.0782L7.44673 45.0945L7.45333 45.1017L7.46843 45.1177L7.47424 45.1238L7.49487 45.1444L7.49987 45.1492L7.51662 45.165L7.52378 45.1716L7.53955 45.1856L7.54654 45.1917L7.5692 45.2107C8.94304 46.3263 11.8872 44.3418 14.7642 41.7573C24.6269 44.1387 40.0095 43.2486 45.7409 39.0853C52.2652 34.3459 51.6722 14.2552 45.7408 8.92322ZM35.452 37.457C35.452 37.457 35.3007 36.4464 34.554 36.365C35.3007 36.2836 35.452 35.3069 35.452 35.3069C35.452 35.3069 35.5913 36.2836 36.338 36.365C35.5913 36.4464 35.452 37.457 35.452 37.457Z" fill="#F18997"/>
<path d="M26.9909 21.9359C26.9909 19.1823 23.4439 13.2584 19.2895 15.0241C16.3873 16.2576 15.0615 18.9444 15.3626 22.0155C15.8066 26.544 18.6276 30.4204 22.7077 32.0208C23.6592 32.3941 24.6791 32.6436 25.7534 32.7486C28.4075 33.0083 31.3851 32.4608 33.6319 30.9689C35.7248 29.5791 37.2323 27.3073 38.0058 24.9509C38.3183 23.999 38.5215 23.0121 38.6192 22.0155C38.8965 19.1879 37.8449 16.5593 35.3648 15.3142C35.1512 15.207 34.9271 15.11 34.6923 15.0241C30.4429 13.4689 26.9909 19.1823 26.9909 21.9359Z" fill="#EA544A"/>
<path d="M10.2997 17.3093C10.2997 17.3093 10.439 16.2987 11.1857 16.2173C10.439 16.1359 10.2997 15.1592 10.2997 15.1592C10.2997 15.1592 10.1484 16.1359 9.4017 16.2173C10.1484 16.2987 10.2997 17.3093 10.2997 17.3093Z" fill="white"/>
<path d="M35.452 35.3069C35.452 35.3069 35.3007 36.2836 34.554 36.365C35.3007 36.4464 35.452 37.457 35.452 37.457C35.452 37.457 35.5913 36.4464 36.338 36.365C35.5913 36.2836 35.452 35.3069 35.452 35.3069Z" fill="white"/>
<path d="M8.29682 14.4318C8.29682 14.4318 8.43611 13.4211 9.18284 13.3397C8.43611 13.2583 8.29682 12.2816 8.29682 12.2816C8.29682 12.2816 8.16218 13.1507 7.52012 13.3176C7.48152 13.3276 7.44113 13.3351 7.3988 13.3397C7.43417 13.3436 7.4682 13.3495 7.50094 13.3573C8.15951 13.5146 8.29682 14.4318 8.29682 14.4318Z" fill="white"/>
<path d="M11.9768 13.8065C11.9768 13.8065 12.1161 12.7959 12.8628 12.7145C12.1161 12.6331 11.9768 11.6564 11.9768 11.6564C11.9768 11.6564 11.8255 12.6331 11.0788 12.7145C11.8255 12.7959 11.9768 13.8065 11.9768 13.8065Z" fill="white"/>
<path d="M34.554 18.0903C35.3007 18.1717 35.452 19.1824 35.452 19.1824C35.452 19.1824 35.5913 18.1717 36.338 18.0903C35.5913 18.0089 35.452 17.0322 35.452 17.0322C35.452 17.0322 35.3007 18.009 34.554 18.0903Z" fill="white"/>
<path d="M21.4508 20.9208C22.7545 19.621 23.0306 17.7888 22.0675 16.8285C21.1044 15.8683 19.2667 16.1436 17.963 17.4434C16.6592 18.7433 16.3831 20.5754 17.3463 21.5357C18.3094 22.4959 20.147 22.2206 21.4508 20.9208Z" fill="#EC655C"/>
</svg>
