<svg width="44" height="24" viewBox="0 0 44 24" fill="none" xmlns="http://www.w3.org/2000/svg">
<path d="M38.5483 9.48934C37.7117 9.48934 36.9192 9.68098 36.2108 10.0224C35.539 4.88436 31.4182 0.758842 26.2109 0.199303C23.8146 -0.058031 21.4183 -0.0662116 19.022 0.175008C13.7098 0.709756 9.52416 4.82982 8.80295 10.0286C8.09103 9.68321 7.29374 9.48934 6.45167 9.48934C3.44082 9.48934 1 11.9628 1 15.0141C1 18.0651 3.44082 20.5386 6.45167 20.5386C7.98535 20.5386 9.37028 19.8957 10.3608 18.8627C11.4784 20.574 13.2291 21.8168 15.2738 22.2445C20.0405 23.2413 24.8071 23.2517 29.5735 22.2757C31.6794 21.8446 33.4722 20.5884 34.6211 18.8436C35.6128 19.8878 37.0051 20.5386 38.5483 20.5386C41.5592 20.5386 44 18.0651 44 15.0141C44 11.9628 41.5592 9.48934 38.5483 9.48934Z" fill="#BE9AAA"/>
<path d="M22.1274 24C19.6947 24 17.2626 23.7465 14.8468 23.2392C12.7034 22.789 10.8524 21.51 9.63474 19.6377C9.473 19.3889 9.54003 19.0539 9.78458 18.8893C10.0289 18.7247 10.3579 18.7932 10.5199 19.0418C11.5817 20.6746 13.1944 21.7895 15.0614 22.1816C19.7003 23.1559 24.4048 23.1663 29.0439 22.2125C30.9678 21.8169 32.6279 20.6835 33.7178 19.021C33.8069 18.8851 33.9519 18.7974 34.1119 18.7828C34.2725 18.7685 34.4301 18.8285 34.5415 18.9464C35.4712 19.9288 36.7196 20.4702 38.0577 20.4702C40.749 20.4702 42.9387 18.2421 42.9387 15.5038C42.9387 12.7652 40.749 10.5374 38.0577 10.5374C37.326 10.5374 36.622 10.6983 35.9651 11.016C35.8121 11.0902 35.6331 11.0852 35.484 11.0029C35.3349 10.9204 35.2337 10.7704 35.2113 10.5994C34.9029 8.232 33.795 5.99774 32.0919 4.30834C30.3774 2.60807 28.1272 1.53072 25.755 1.27473C23.4232 1.02319 21.0588 1.01529 18.7272 1.25077C13.7246 1.75633 9.74767 5.6051 9.05628 10.6101C9.01548 10.9051 8.74786 11.1112 8.45693 11.0694C8.16672 11.0279 7.96443 10.7549 8.00523 10.4596C8.7651 4.95994 13.131 0.731118 18.6223 0.176138C21.0258 -0.0667581 23.4633 -0.0583568 25.867 0.200848C28.4747 0.482292 30.9486 1.66638 32.8328 3.53517C34.541 5.22952 35.705 7.42399 36.1538 9.77463C36.7641 9.56386 37.4018 9.45735 38.0577 9.45735C41.3343 9.45735 44 12.1697 44 15.5038C44 18.8377 41.3343 21.55 38.0577 21.55C36.6402 21.55 35.3053 21.0514 34.237 20.1339C32.9987 21.7554 31.2509 22.8604 29.254 23.2708C26.8899 23.7571 24.5085 24 22.1274 24Z" fill="#9D7B8A"/>
<path d="M27.1225 18.5277C23.6707 19.1642 20.2188 19.1574 16.7672 18.5072C14.6488 18.1084 12.963 16.6237 12.4385 14.7087C12.1644 13.7068 12.0184 12.7048 12.001 11.7031C11.9331 7.78039 15.2038 4.50198 19.4815 4.11417C21.2167 3.9568 22.9521 3.96216 24.6874 4.13C28.8136 4.52926 32 7.71316 32 11.5C32 12.5263 31.8652 13.5523 31.5955 14.5786C31.0696 16.581 29.3341 18.1199 27.1225 18.5277Z" fill="#FBEAB0"/>
<path d="M17 11C17 11.5523 16.7762 12 16.5 12C16.2238 12 16 11.5523 16 11C16 10.4477 16.2238 10 16.5 10C16.7762 10 17 10.4477 17 11Z" fill="#4F4F52"/>
<path d="M29 11C29 11.5523 28.5523 12 28.0001 12C27.4477 12 27 11.5523 27 11C27 10.4477 27.4477 10 28.0001 10C28.5523 10 29 10.4477 29 11Z" fill="#4F4F52"/>
<path d="M23.2718 13C22.7693 13 22.3159 12.8025 22 12.4877C21.6839 12.8025 21.2307 13 20.728 13C19.7752 13 19 12.2902 19 11.4177C19 11.187 19.2042 11 19.4561 11C19.708 11 19.9122 11.187 19.9122 11.4177C19.9122 11.8297 20.2781 12.1647 20.728 12.1647C21.1779 12.1647 21.5438 11.8297 21.5438 11.4177C21.5438 11.187 21.748 11 22 11C22.2518 11 22.456 11.187 22.456 11.4177C22.456 11.8297 22.8219 12.1647 23.2718 12.1647C23.7217 12.1647 24.0878 11.8297 24.0878 11.4177C24.0878 11.187 24.292 11 24.5438 11C24.7956 11 25 11.187 25 11.4177C25 12.2902 24.2246 13 23.2718 13Z" fill="#4F4F52"/>
<path d="M40 14.9999C40 13.8954 39.1046 13 37.9999 13C36.8954 13 36 13.8954 36 14.9999C36 16.1046 36.8954 17 37.9999 17C39.1046 17 40 16.1046 40 14.9999Z" fill="#9D7B8A"/>
<path d="M8 14.9999C8 13.8954 7.10439 13 6 13C4.89536 13 4 13.8954 4 14.9999C4 16.1046 4.89536 17 6 17C7.10439 17 8 16.1046 8 14.9999Z" fill="#9D7B8A"/>
<path d="M5.73935 21C2.57449 21 0 18.3084 0 15.0001C0 11.6916 2.57449 9 5.73935 9C6.60557 9 7.43848 9.19714 8.21509 9.58603C8.47029 9.71378 8.57818 10.0338 8.45598 10.3006C8.33377 10.5673 8.02792 10.6804 7.77225 10.5524C7.13496 10.2334 6.451 10.0718 5.73935 10.0718C3.13977 10.0718 1.02501 12.2825 1.02501 15.0001C1.02501 17.7175 3.13977 19.9285 5.73935 19.9285C7.02308 19.9285 8.22353 19.3973 9.11977 18.4332C9.31703 18.2209 9.64143 18.2162 9.84455 18.4224C10.0477 18.6286 10.0524 18.9678 9.85487 19.1799C8.76395 20.3536 7.30244 21 5.73935 21Z" fill="#9D7B8A"/>
</svg>
