<svg width="54" height="54" viewBox="0 0 54 54" fill="none" xmlns="http://www.w3.org/2000/svg">
<g clip-path="url(#clip0_54_1184)">
<path d="M40.4148 41.4782C39.9509 43.9134 37.8219 45.6752 35.343 45.6752H18.6256C16.1466 45.6752 14.0175 43.9134 13.5537 41.4782L9.7832 21.683L26.8444 9.06641L44.1861 21.6787L40.4148 41.4782Z" fill="#FFC800"/>
<path opacity="0.5" fill-rule="evenodd" clip-rule="evenodd" d="M22.5566 38.1111C22.5566 37.1906 23.3027 36.4443 24.2232 36.4443H30.8899C31.8104 36.4443 32.5566 37.1906 32.5566 38.1111C32.5566 39.0315 31.8104 39.7778 30.8899 39.7778H24.2232C23.3027 39.7778 22.5566 39.0315 22.5566 38.1111Z" fill="#945151"/>
<path d="M32.4359 27.468C32.4359 30.4696 30.0027 32.9027 27.0011 32.9027C23.9995 32.9027 21.5664 30.4696 21.5664 27.468C21.5664 24.4665 23.9995 22.0332 27.0011 22.0332C30.0027 22.0332 32.4359 24.4665 32.4359 27.468Z" fill="#945151"/>
<path d="M27.2633 6.44472C28.0048 6.44111 28.7552 6.66545 29.4002 7.13372L48.7898 21.1123C50.4033 22.2847 50.7609 24.543 49.5887 26.1564C48.4167 27.7694 46.1594 28.1273 44.5459 26.9561L27.2503 14.4873L9.95637 26.955L9.95501 26.9561C8.34164 28.127 6.08429 27.7692 4.91236 26.1561C3.74011 24.5427 4.09778 22.2844 5.71125 21.1122L5.71373 21.1103L25.0998 7.13431C25.7523 6.66064 26.5136 6.43576 27.2633 6.44472Z" fill="#FF4B4B"/>
</g>
<defs>
<clipPath id="clip0_54_1184">
<rect width="50" height="50" fill="white" transform="translate(2 2)"/>
</clipPath>
</defs>
</svg>
