<svg width="50" height="50" viewBox="0 0 50 50" fill="none" xmlns="http://www.w3.org/2000/svg">
<path d="M16.5728 19.0224C14.9733 19.5647 13.7029 21.8063 14.561 24.7823C15.3265 27.6629 18.2205 31.2781 22.8124 32.3584C27.3514 33.6431 31.6363 31.8867 33.7037 29.74C35.8987 27.5544 35.876 24.9781 34.7408 23.7274C32.31 21.073 29.4837 23.7337 25.3314 22.6306C21.1661 21.5795 19.9865 17.8818 16.5728 19.0224Z" fill="#FFFFA1"/>
<path d="M25.087 29.2854C24.0562 29.2854 23.0546 29.119 22.1008 28.785C18.9029 27.6651 17.3119 25.2204 16.5401 23.3668C16.4368 23.1187 16.5543 22.8338 16.8024 22.7306C17.0506 22.6271 17.3354 22.7446 17.4388 22.9929C18.1341 24.6635 19.5634 26.8651 22.4224 27.8665C27.5318 29.6557 32.3509 25.4778 32.3989 25.4355C32.6004 25.2577 32.9078 25.2768 33.0858 25.478C33.2637 25.6793 33.2449 25.9863 33.0438 26.1645C32.9905 26.2117 31.7135 27.3325 29.735 28.2226C28.1639 28.9295 26.5942 29.2854 25.087 29.2854Z" fill="#FFE4A9"/>
<path d="M25.9376 33.2791C24.8853 33.2791 23.7945 33.1411 22.6906 32.8298C17.9325 31.706 14.8991 27.9399 14.0921 24.9124C13.5534 23.0394 13.8507 21.6452 14.195 20.8051C14.6462 19.705 15.4558 18.8872 16.4163 18.5615C16.4169 18.5613 16.4177 18.5611 16.4183 18.5609C18.6106 17.8283 20.0141 18.8925 21.4999 20.0192C22.5588 20.8221 23.7591 21.7321 25.4506 22.1589C27.1427 22.6085 28.6337 22.3953 29.9492 22.2072C31.7952 21.9431 33.5385 21.6942 35.0997 23.3989C35.7827 24.1516 36.0938 25.2596 35.9544 26.4404C35.8478 27.3421 35.4311 28.7052 34.0509 30.0814C32.3862 31.8077 29.3704 33.2789 25.9376 33.2791ZM16.7284 19.4837C15.3008 19.9683 14.2747 22.0321 15.0288 24.6477C15.0298 24.651 15.0306 24.6542 15.0316 24.6575C15.7649 27.4168 18.5476 30.8554 22.9243 31.8849C22.9314 31.8866 22.9384 31.8884 22.9453 31.8904C23.969 32.1802 24.9808 32.3087 25.9542 32.3087C29.0944 32.3089 31.8418 30.9725 33.3537 29.4026C33.3559 29.4002 33.3584 29.3978 33.3608 29.3953C35.2898 27.4744 35.3944 25.1712 34.3808 24.0545C33.1681 22.7303 31.8758 22.9149 30.0875 23.1707C28.6799 23.3719 27.0845 23.6001 25.2069 23.1012C23.3292 22.6273 22.0451 21.6537 20.9121 20.7948C19.4728 19.7032 18.4327 18.9146 16.7284 19.4837Z" fill="#F9CB71"/>
<path d="M22.9796 27.5281C22.7791 27.5281 22.5791 27.4871 22.3896 27.4053C22.1429 27.2986 22.0292 27.0123 22.1359 26.7656C22.2425 26.519 22.5288 26.4051 22.7755 26.5119C22.9019 26.5662 23.0418 26.5684 23.1699 26.5178C23.2978 26.4669 23.3983 26.3694 23.4528 26.2431C23.5655 25.9823 23.4449 25.6785 23.1841 25.5658C22.9374 25.4592 22.8237 25.1728 22.9303 24.9262C23.0369 24.6795 23.3233 24.5656 23.5699 24.6724C23.935 24.8301 24.2167 25.1203 24.3634 25.49C24.5099 25.8597 24.5041 26.2642 24.3464 26.6292C24.1887 26.9942 23.8985 27.2759 23.5288 27.4227C23.3513 27.493 23.1652 27.5281 22.9796 27.5281Z" fill="#5F5C5D"/>
<path d="M18.3479 20.7267C18.1337 21.2628 17.7034 21.6711 17.1503 21.8578C16.6386 22.0303 16.0719 21.9839 15.5955 21.7301C15.119 21.4764 14.7639 21.0321 14.6216 20.5113L13.9321 17.9882C13.7659 17.3808 13.9994 16.7274 14.5134 16.3628C14.8415 16.1299 15.2406 16.0389 15.6372 16.1062C16.0338 16.1737 16.3806 16.3916 16.6133 16.7197L18.1266 18.853C18.4904 19.3658 18.5877 20.0028 18.3933 20.6008C18.3795 20.6434 18.3643 20.6854 18.3479 20.7267Z" fill="#5F5C5D"/>
<path d="M22.8888 24.5749C22.8243 24.5749 22.7589 24.5621 22.696 24.5347C22.0915 24.2737 21.8142 23.5647 22.0779 22.9541C22.3416 22.3436 23.0479 22.0595 23.6522 22.3201C23.8991 22.4267 24.0128 22.7131 23.9062 22.9598C23.7996 23.2064 23.5132 23.3201 23.2666 23.2137C23.1549 23.1653 23.0223 23.2218 22.9715 23.3398C22.9206 23.4575 22.9702 23.5927 23.0819 23.6409C23.3286 23.7476 23.4423 24.0339 23.3357 24.2806C23.2562 24.465 23.0771 24.5749 22.8888 24.5749Z" fill="#5F5C5D"/>
<path d="M20.9162 29.1422C20.8517 29.1422 20.7865 29.1294 20.7234 29.1022C20.4291 28.9752 20.203 28.7397 20.0866 28.4395C19.9715 28.142 19.978 27.8159 20.1051 27.5216C20.2322 27.2273 20.465 26.9989 20.7605 26.8789C21.0588 26.7575 21.3851 26.7608 21.6796 26.8879C21.9263 26.9945 22.04 27.2808 21.9334 27.5275C21.8268 27.7741 21.5404 27.888 21.2935 27.7812C21.2222 27.7506 21.1586 27.7676 21.1269 27.7804C21.0694 27.8037 21.0238 27.8489 20.9984 27.9073C20.9731 27.9659 20.9717 28.0299 20.994 28.0879C21.0064 28.1197 21.0376 28.1779 21.1087 28.2085C21.3556 28.3151 21.4693 28.6014 21.3626 28.8481C21.2838 29.0321 21.1046 29.1422 20.9162 29.1422Z" fill="#5F5C5D"/>
<path d="M23.4467 0.000488281C36.3958 0.000488281 46.8933 10.498 46.8933 23.4471C46.8933 36.3963 36.3958 46.8938 23.4467 46.8938C10.4975 46.8938 0 36.3963 0 23.4471C0 10.4976 10.4975 0.000488281 23.4467 0.000488281Z" fill="#F360A5"/>
<path d="M30.2596 15.1238C27.7974 12.3948 25.699 11.4787 21.5644 12.0353C16.3674 12.7347 12.3549 16.966 11.631 22.16C10.5792 29.7057 16.4113 36.1663 23.7529 36.1663C28.4577 36.1663 32.543 33.5127 34.5935 29.6205L37.8364 31.5466L36.1544 20.0417L25.6923 24.482L28.6868 26.4335C27.468 28.9357 24.7359 30.5654 21.6812 30.1304C18.365 29.6582 15.9702 26.856 15.9702 23.5061C15.9702 17.3508 22.3287 12.6233 27.9682 17.4676C28.5367 17.9558 29.3578 18.013 29.976 17.5896C30.8011 17.026 30.9289 15.8658 30.2596 15.1238Z" fill="white" stroke="white" stroke-miterlimit="10" stroke-linecap="round" stroke-linejoin="round"/>
<path opacity="0.45" d="M37.8364 4.94186C33.8634 1.84804 28.8722 0 23.4466 0C17.0118 0 11.1845 2.59364 6.94788 6.79078C13.3339 5.42828 23.3144 4.26017 37.8364 4.94186Z" fill="white"/>
<path opacity="0.12" d="M4.23087 36.8747C8.47017 42.9301 15.4935 46.8934 23.4466 46.8934C33.8483 46.8934 42.6629 40.1172 45.7305 30.7404C33.7924 37.7042 14.5766 37.568 4.23087 36.8747Z" fill="#42474F"/>
</svg>
