<svg width="610" height="241" viewBox="0 0 610 241" fill="none" xmlns="http://www.w3.org/2000/svg">
<path d="M157.648 3H70.3516C65.7393 3 62 6.69898 62 11.2615V25H166V11.2615C166 6.69898 162.261 3 157.648 3Z" fill="#80DF39"/>
<path d="M272.648 3H185.352C180.739 3 177 6.69898 177 11.2615V25H281V11.2615C281 6.69898 277.261 3 272.648 3Z" fill="#80DF39"/>
<path d="M65.6675 22.2775H162.333V11.727C162.333 8.96697 160.106 6.72254 157.368 6.72254H70.6321C67.8944 6.72254 65.6675 8.96697 65.6675 11.727V22.2775ZM165.666 29H62.3341C60.493 29 59 27.4948 59 25.6387V11.727C59 5.26087 64.2183 -3.88194e-07 70.6321 -3.88194e-07H157.368C163.782 -3.88194e-07 169 5.26087 169 11.727V25.6387C169 27.4948 167.508 29 165.666 29Z" fill="#58CC02"/>
<path d="M180.728 22.2775H278.272V11.727C278.272 8.96697 276.025 6.72254 273.263 6.72254H185.738C182.975 6.72254 180.728 8.96697 180.728 11.727V22.2775ZM281.636 29H177.364C175.507 29 174 27.4948 174 25.6387V11.727C174 5.26087 179.266 -3.88194e-07 185.738 -3.88194e-07H273.263C279.734 -3.88194e-07 285 5.26087 285 11.727V25.6387C285 27.4948 283.494 29 281.636 29Z" fill="#58CC02"/>
<path d="M285 215.995C285 228.149 277.536 238 268.329 238C265.29 238 265.719 238 262.68 238C253.464 238 246 228.149 246 215.995C246 203.851 253.464 194 262.68 194C265.719 194 265.29 194 268.329 194C277.536 194 285 203.851 285 215.995Z" fill="#65686B"/>
<path d="M262.156 197.647C254.724 197.647 248.678 205.878 248.678 215.996C248.678 226.118 254.724 234.353 262.156 234.353H267.852C275.279 234.353 281.321 226.118 281.321 215.996C281.321 205.878 275.279 197.647 267.852 197.647H262.156ZM267.852 241H262.156C251.042 241 242 229.783 242 215.996C242 202.212 251.042 191 262.156 191H267.852C278.961 191 288 202.212 288 215.996C288 229.783 278.961 241 267.852 241Z" fill="#4F4F52"/>
<path d="M262.306 229C260.48 229 259 227.504 259 225.657C259 223.811 260.48 222.314 262.306 222.314C263.073 222.314 265.389 219.898 265.389 215.5C265.389 211.102 263.073 208.686 262.306 208.686C260.48 208.686 259 207.189 259 205.343C259 203.497 260.48 202 262.306 202C267.651 202 272 208.056 272 215.5C272 222.944 267.651 229 262.306 229Z" fill="#4F4F52"/>
<path d="M321 215.995C321 228.149 313.345 238 303.901 238C300.784 238 301.224 238 298.107 238C288.656 238 281 228.149 281 215.995C281 203.851 288.656 194 298.107 194C301.224 194 300.784 194 303.901 194C313.345 194 321 203.851 321 215.995Z" fill="#65686B"/>
<path d="M298.156 197.647C290.725 197.647 284.678 205.878 284.678 215.996C284.678 226.118 290.725 234.353 298.156 234.353H303.852C311.279 234.353 317.321 226.118 317.321 215.996C317.321 205.878 311.279 197.647 303.852 197.647H298.156ZM303.852 241H298.156C287.042 241 278 229.783 278 215.996C278 202.212 287.042 191 298.156 191H303.852C314.961 191 324 202.212 324 215.996C324 229.783 314.961 241 303.852 241Z" fill="#4F4F52"/>
<path d="M218.148 226H298.501C301.575 226 305 221.898 305 216.01V203H215L218.148 226Z" fill="#65686B"/>
<path d="M298.199 229H218.342C216.496 229 215 227.507 215 225.665C215 223.824 216.496 222.33 218.342 222.33H298.199C298.975 222.33 301.316 219.919 301.316 215.532V202.335C301.316 200.494 302.813 199 304.658 199C306.504 199 308 200.494 308 202.335V215.532C308 222.959 303.603 229 298.199 229Z" fill="#4F4F52"/>
<path d="M154 215.995C154 228.149 146.344 238 136.901 238C133.784 238 134.224 238 131.107 238C121.655 238 114 228.149 114 215.995C114 203.851 121.655 194 131.107 194C134.224 194 133.784 194 136.901 194C146.344 194 154 203.851 154 215.995Z" fill="#65686B"/>
<path d="M131.157 197.647C123.725 197.647 117.679 205.878 117.679 215.996C117.679 226.118 123.725 234.353 131.157 234.353H136.853C144.279 234.353 150.322 226.118 150.322 215.996C150.322 205.878 144.279 197.647 136.853 197.647H131.157ZM136.853 241H131.157C120.042 241 111 229.783 111 215.996C111 202.212 120.042 191 131.157 191H136.853C147.962 191 157 202.212 157 215.996C157 229.783 147.962 241 136.853 241Z" fill="#4F4F52"/>
<path d="M131.305 229C129.48 229 128 227.504 128 225.657C128 223.811 129.48 222.314 131.305 222.314C132.073 222.314 134.389 219.898 134.389 215.5C134.389 211.102 132.073 208.686 131.305 208.686C129.48 208.686 128 207.189 128 205.343C128 203.497 129.48 202 131.305 202C136.651 202 141 208.056 141 215.5C141 222.944 136.651 229 131.305 229Z" fill="#4F4F52"/>
<path d="M87.1481 226H167.5C170.575 226 174 221.898 174 216.01V203H84L87.1481 226Z" fill="#65686B"/>
<path d="M167.199 229H87.3418C85.4958 229 84 227.507 84 225.665C84 223.824 85.4958 222.33 87.3418 222.33H167.199C167.976 222.33 170.317 219.919 170.317 215.532V202.335C170.317 200.494 171.814 199 173.659 199C175.504 199 177 200.494 177 202.335V215.532C177 222.959 172.603 229 167.199 229Z" fill="#4F4F52"/>
<path d="M327 53.075V196H13V53.075C13 31.4873 30.5524 14 52.2212 14H287.78C309.436 14 327 31.4873 327 53.075Z" fill="#80DF39"/>
<path d="M262.649 200H13.3515C11.5008 200 10 198.502 10 196.653V53.4885C10 30.0603 29.082 11 52.5368 11H262.649C264.5 11 266 12.4991 266 14.3477C266 16.1962 264.5 17.6946 262.649 17.6946H52.5368C32.7779 17.6946 16.7023 33.752 16.7023 53.4885V193.305H262.649C264.5 193.305 266 194.804 266 196.653C266 198.502 264.5 200 262.649 200Z" fill="#58CC02"/>
<path d="M326.654 200C324.806 200 323.308 198.502 323.308 196.653V53.4885C323.308 33.752 307.26 17.6946 287.534 17.6946H262.346C260.498 17.6946 259 16.1962 259 14.3477C259 12.4991 260.498 11 262.346 11H287.534C310.949 11 330 30.0603 330 53.4885V196.653C330 198.502 328.5 200 326.654 200Z" fill="#58CC02"/>
<path d="M223.318 161C221.486 161 220 159.498 220 157.644V53.1079C220 41.7278 224.381 31.0298 232.335 22.9824C233.631 21.6725 235.732 21.6725 237.028 22.9824C238.324 24.2937 238.324 26.4187 237.028 27.73C230.327 34.5082 226.636 43.5212 226.636 53.1079V157.644C226.636 159.498 225.151 161 223.318 161Z" fill="#58CC02"/>
<path d="M61 215.995C61 228.149 53.5364 238 44.3289 238C41.2899 238 41.7187 238 38.6797 238C29.4643 238 22 228.149 22 215.995C22 203.851 29.4643 194 38.6797 194C41.7187 194 41.2899 194 44.3289 194C53.5364 194 61 203.851 61 215.995Z" fill="#65686B"/>
<path d="M38.1561 197.647C30.7247 197.647 24.6783 205.878 24.6783 215.996C24.6783 226.118 30.7247 234.353 38.1561 234.353H43.8519C51.2793 234.353 57.321 226.118 57.321 215.996C57.321 205.878 51.2793 197.647 43.8519 197.647H38.1561ZM43.8519 241H38.1561C27.0419 241 18 229.783 18 215.996C18 202.212 27.0419 191 38.1561 191H43.8519C54.9614 191 64 202.212 64 215.996C64 229.783 54.9614 241 43.8519 241Z" fill="#4F4F52"/>
<path d="M38.3057 229C36.4803 229 35 227.504 35 225.657C35 223.811 36.4803 222.314 38.3057 222.314C39.0728 222.314 41.3894 219.898 41.3894 215.5C41.3894 211.102 39.0728 208.686 38.3057 208.686C36.4803 208.686 35 207.189 35 205.343C35 203.497 36.4803 202 38.3057 202C43.6513 202 48 208.056 48 215.5C48 222.944 43.6513 229 38.3057 229Z" fill="#4F4F52"/>
<path d="M97 215.995C97 228.149 89.3449 238 79.9011 238C76.7841 238 77.2247 238 74.107 238C64.6551 238 57 228.149 57 215.995C57 203.851 64.6551 194 74.107 194C77.2247 194 76.7841 194 79.9011 194C89.3449 194 97 203.851 97 215.995Z" fill="#65686B"/>
<path d="M74.1561 197.647C66.7247 197.647 60.6784 205.878 60.6784 215.996C60.6784 226.118 66.7247 234.353 74.1561 234.353H79.8526C87.2793 234.353 93.321 226.118 93.321 215.996C93.321 205.878 87.2793 197.647 79.8526 197.647H74.1561ZM79.8526 241H74.1561C63.0419 241 54 229.783 54 215.996C54 202.212 63.0419 191 74.1561 191H79.8526C90.9614 191 100 202.212 100 215.996C100 229.783 90.9614 241 79.8526 241Z" fill="#4F4F52"/>
<path d="M74.3055 229C72.4802 229 71 227.504 71 225.657C71 223.811 72.4802 222.314 74.3055 222.314C75.0726 222.314 77.3891 219.898 77.3891 215.5C77.3891 211.102 75.0726 208.686 74.3055 208.686C72.4802 208.686 71 207.189 71 205.343C71 203.497 72.4802 202 74.3055 202C79.6509 202 84 208.056 84 215.5C84 222.944 79.6509 229 74.3055 229Z" fill="#4F4F52"/>
<path d="M190 215.995C190 228.149 182.344 238 172.901 238C169.784 238 170.224 238 167.107 238C157.655 238 150 228.149 150 215.995C150 203.851 157.655 194 167.107 194C170.224 194 169.784 194 172.901 194C182.344 194 190 203.851 190 215.995Z" fill="#65686B"/>
<path d="M167.156 197.647C159.725 197.647 153.678 205.878 153.678 215.996C153.678 226.118 159.725 234.353 167.156 234.353H172.852C180.279 234.353 186.322 226.118 186.322 215.996C186.322 205.878 180.279 197.647 172.852 197.647H167.156ZM172.852 241H167.156C156.042 241 147 229.783 147 215.996C147 202.212 156.042 191 167.156 191H172.852C183.962 191 193 202.212 193 215.996C193 229.783 183.962 241 172.852 241Z" fill="#4F4F52"/>
<path d="M167.305 229C165.48 229 164 227.504 164 225.657C164 223.811 165.48 222.314 167.305 222.314C168.073 222.314 170.389 219.898 170.389 215.5C170.389 211.102 168.073 208.686 167.305 208.686C165.48 208.686 164 207.189 164 205.343C164 203.497 165.48 202 167.305 202C172.651 202 177 208.056 177 215.5C177 222.944 172.651 229 167.305 229Z" fill="#4F4F52"/>
<path d="M225 215.995C225 228.149 217.536 238 208.329 238C205.29 238 205.719 238 202.68 238C193.464 238 186 228.149 186 215.995C186 203.851 193.464 194 202.68 194C205.719 194 205.29 194 208.329 194C217.536 194 225 203.851 225 215.995Z" fill="#65686B"/>
<path d="M203.156 197.647C195.725 197.647 189.678 205.878 189.678 215.996C189.678 226.118 195.725 234.353 203.156 234.353H208.852C216.28 234.353 222.322 226.118 222.322 215.996C222.322 205.878 216.28 197.647 208.852 197.647H203.156ZM208.852 241H203.156C192.042 241 183 229.783 183 215.996C183 202.212 192.042 191 203.156 191H208.852C219.962 191 229 202.212 229 215.996C229 229.783 219.962 241 208.852 241Z" fill="#4F4F52"/>
<path d="M202.56 229C200.594 229 199 227.504 199 225.657C199 223.811 200.594 222.314 202.56 222.314C203.386 222.314 205.881 219.898 205.881 215.5C205.881 211.102 203.386 208.686 202.56 208.686C200.594 208.686 199 207.189 199 205.343C199 203.497 200.594 202 202.56 202C208.317 202 213 208.056 213 215.5C213 222.944 208.317 229 202.56 229Z" fill="#4F4F52"/>
<path d="M328.21 203H12.7885C7.38269 203 3 198.498 3 192.943V184.057C3 178.503 7.38269 174 12.7885 174H328.21C333.615 174 338 178.503 338 184.057V192.943C338 198.498 333.615 203 328.21 203Z" fill="white"/>
<path d="M13.1503 177.714C9.59734 177.714 6.70637 180.608 6.70637 184.166V192.834C6.70637 196.392 9.59734 199.286 13.1503 199.286H328.849C332.401 199.286 335.294 196.392 335.294 192.834V184.166C335.294 180.608 332.401 177.714 328.849 177.714H13.1503ZM328.849 206H13.1503C5.89948 206 0 200.093 0 192.834V184.166C0 176.906 5.89948 171 13.1503 171H328.849C336.102 171 342 176.906 342 184.166V192.834C342 200.093 336.102 206 328.849 206Z" fill="#DADBD8"/>
<path d="M213.454 196C211.546 196 210 194.508 210 192.668V184.066C210 176.861 216.077 171 223.546 171C225.453 171 227 172.492 227 174.332C227 176.172 225.453 177.663 223.546 177.663C219.886 177.663 216.908 180.536 216.908 184.066V192.668C216.908 194.508 215.361 196 213.454 196Z" fill="#DADBD8"/>
<path d="M90.8894 134H41.1106C33.8702 134 28 128.207 28 121.061V71.9381C28 64.793 33.8702 59 41.1106 59H90.8894C98.1298 59 104 64.793 104 71.9381V121.061C104 128.207 98.1298 134 90.8894 134Z" fill="#AFE4E4"/>
<path d="M52.6154 138C43.4535 138 36 130.588 36 121.478V71.5221C36 62.4116 43.4535 55 52.6154 55C54.4844 55 56 56.5065 56 58.3649C56 60.2233 54.4844 61.7305 52.6154 61.7305C47.186 61.7305 42.7685 66.1231 42.7685 71.5221V121.478C42.7685 126.877 47.186 131.27 52.6154 131.27C54.4844 131.27 56 132.776 56 134.635C56 136.494 54.4844 138 52.6154 138Z" fill="#76D1D5"/>
<path d="M40.5228 61.7305C35.1231 61.7305 30.7305 66.1231 30.7305 71.5221V121.478C30.7305 126.877 35.1231 131.27 40.5228 131.27H90.4779C95.8769 131.27 100.27 126.877 100.27 121.478V71.5221C100.27 66.1231 95.8769 61.7305 90.4779 61.7305H40.5228ZM90.4779 138H40.5228C31.4116 138 24 130.588 24 121.478V71.5221C24 62.4116 31.4116 55 40.5228 55H90.4779C99.5884 55 107 62.4116 107 71.5221V121.478C107 130.588 99.5884 138 90.4779 138Z" fill="#58CC02"/>
<path d="M202 71.9386V121.061C202 125.692 199.564 129.753 195.909 132.035C193.923 133.275 191.574 134 189.061 134H139.939C138.622 134 137.36 133.802 136.164 133.44C130.852 131.816 127 126.888 127 121.061V71.9386C127 64.7945 132.795 59 139.939 59H189.061C196.205 59 202 64.7945 202 71.9386Z" fill="#65686B"/>
<path d="M129.599 133C128.66 133 127.725 132.612 127.059 131.853C124.442 128.865 123 125.036 123 121.071V71.4209C123 62.3662 130.412 55 139.522 55H189.477C198.588 55 206 62.3662 206 71.4209V121.071C206 122.918 204.493 124.415 202.634 124.415C200.776 124.415 199.269 122.918 199.269 121.071V71.4209C199.269 66.055 194.876 61.6892 189.477 61.6892H139.522C134.123 61.6892 129.73 66.055 129.73 71.4209V121.071C129.73 123.421 130.585 125.689 132.135 127.459C133.356 128.852 133.209 130.964 131.808 132.178C131.17 132.729 130.383 133 129.599 133Z" fill="#58CC02"/>
<path d="M245.382 178C243.514 178 242 176.493 242 174.635V75.0696C242 64.0032 251.049 55 262.171 55H289.829C300.951 55 310 64.0032 310 75.0696V155.291C310 157.15 308.485 158.657 306.617 158.657C304.749 158.657 303.235 157.15 303.235 155.291V75.0696C303.235 67.7144 297.221 61.731 289.829 61.731H262.171C254.778 61.731 248.765 67.7144 248.765 75.0696V174.635C248.765 176.493 247.25 178 245.382 178Z" fill="#58CC02"/>
<path d="M256 95.3186V75.5495C256 71.9321 258.92 69 262.522 69H289.477C293.08 69 296 71.9321 296 75.5501V95.3186C296 99.0085 293.022 102 289.347 102H262.653C258.979 102 256 99.0085 256 95.3186Z" fill="#AFE4E4"/>
<path d="M289.751 105H262.25C256.598 105 252 100.475 252 94.9136V74.9552C252 69.4656 256.538 65 262.116 65H289.885C295.462 65 300 69.4656 300 74.9552C300 76.8009 298.48 78.2976 296.604 78.2976C294.729 78.2976 293.208 76.8009 293.208 74.9552C293.208 73.1515 291.717 71.6841 289.885 71.6841H262.116C260.283 71.6841 258.793 73.1515 258.793 74.9552V94.9136C258.793 96.7892 260.343 98.3159 262.25 98.3159H289.751C291.626 98.3159 293.147 99.812 293.147 101.658C293.147 103.503 291.626 105 289.751 105Z" fill="#58CC02"/>
<path d="M201 132.011C198.988 133.267 196.61 134 194.065 134H144.318C142.984 134 141.707 133.8 140.495 133.433C136.527 126.312 133.682 118.047 132.716 108.837C129.615 88.1738 137.005 69.7649 146.864 58.0781C149.409 55.0448 152.143 52.4566 154.888 50.4124C168.536 39.8141 182.784 41.7469 188.908 48.9127C191.52 52.0008 192.931 55.0227 193.531 58.0781C195.954 70.1874 185.807 82.7852 188.341 101.749C189.953 115.036 196.788 123.757 201 132.011Z" fill="#F3F588"/>
<path d="M168.049 136.935C156.242 125.655 149.673 112.321 149.052 98.374C148.209 79.2839 157.828 65.8562 166.046 57.9534C167.389 56.6609 169.541 56.6863 170.853 58.0067C172.166 59.3272 172.141 61.4444 170.798 62.7356C163.572 69.6863 155.11 81.4598 155.844 98.0822C156.396 110.466 162.095 121.924 172.786 132.137C174.132 133.423 168.71 137.566 168.049 136.935Z" fill="#FBDE8E"/>
<path d="M176.001 95.8881C175.942 98.0961 177.683 99.9362 179.892 99.9984C182.1 100.06 183.939 98.32 183.999 96.112C184.058 93.9039 182.317 92.0632 180.108 92.0016C177.9 91.9394 176.061 93.6793 176.001 95.8881Z" fill="#4F4F52"/>
<path d="M148.001 94.8881C147.942 97.0961 149.683 98.9369 151.892 98.9984C154.1 99.06 155.939 97.32 155.999 95.112C156.058 92.9039 154.317 91.0632 152.108 91.0016C149.9 90.9394 148.061 92.68 148.001 94.8881Z" fill="#4F4F52"/>
<path d="M137.921 135.746C133.449 127.709 130.692 118.998 129.725 109.853C126.89 90.8027 132.474 70.7977 144.67 56.3246C147.325 53.1481 150.212 50.3856 153.245 48.1246C161.998 41.327 170.002 39.934 175.181 40.0023C182.017 40.064 188.118 42.6551 191.921 47.1113C194.785 50.5008 196.54 54.0067 197.296 57.8415C197.356 58.1515 197.41 58.4375 197.451 58.7228C198.41 64.8226 196.765 70.8151 195.024 77.1593C192.976 84.6172 190.859 92.3297 192.131 101.87C193.294 111.488 197.286 118.431 201.146 125.146C201.749 126.194 202.34 127.221 202.906 128.236C203.81 129.857 197.944 133.135 197.04 131.513C196.489 130.524 195.912 129.521 195.324 128.499C191.324 121.541 186.789 113.655 185.468 102.719C184.021 91.8649 186.425 83.1057 188.546 75.3779C190.16 69.4992 191.555 64.4221 190.812 59.7461C190.809 59.7234 190.805 59.7013 190.802 59.6785C190.778 59.5024 190.742 59.3256 190.708 59.1494C190.177 56.4585 188.9 53.9478 186.803 51.4658C181.532 45.2884 169.063 44.3354 157.338 53.4555C157.32 53.4696 157.301 53.4837 157.282 53.4977C154.661 55.4493 152.148 57.8555 149.813 60.6496C138.819 73.6956 133.8 91.7403 136.378 108.929C136.386 108.979 136.392 109.028 136.397 109.078C137.262 117.341 139.749 125.213 143.79 132.474C144.693 134.096 138.536 136.85 137.921 135.746Z" fill="#FBDE8E"/>
<path d="M165.507 105C165.427 105 165.347 104.999 165.267 104.997C162.998 104.933 160.888 103.96 159.327 102.258C157.766 100.557 156.941 98.3305 157.003 95.989C157.048 94.2923 158.399 92.9433 160.064 93.0018C161.709 93.0481 163.005 94.4617 162.96 96.1583C162.941 96.8584 163.188 97.5244 163.655 98.0332C164.121 98.5421 164.752 98.8332 165.431 98.8523C166.109 98.8781 166.755 98.6169 167.249 98.1353C167.743 97.6543 168.024 97.0033 168.043 96.3032C168.088 94.6066 169.464 93.2767 171.103 93.3154C172.747 93.3617 174.044 94.7753 173.999 96.4719C173.937 98.8135 172.994 100.99 171.345 102.6C169.754 104.153 167.688 105 165.507 105Z" fill="#4F4F52"/>
<path d="M183.63 62C180.212 62 177.022 60.5688 174.781 58.0021C172.709 55.6295 171.72 52.491 172.069 49.3925C172.416 46.2933 174.079 43.439 176.63 41.5595C176.63 41.5595 176.63 41.5595 176.63 41.5595L188.563 32.7697C191.569 30.5539 195.716 30.4051 198.882 32.4008C203.055 35.0302 204.256 40.4806 201.56 44.5499L193.444 56.8005C191.425 59.8496 188.136 61.7358 184.422 61.9746C184.157 61.9913 183.893 62 183.63 62Z" fill="#4F4F52"/>
<path d="M189.429 138H139.328C134.536 138 129.98 135.92 126.83 132.294C125.606 130.885 125.753 128.747 127.158 127.519C128.563 126.292 130.694 126.438 131.92 127.848C133.788 129.998 136.488 131.232 139.328 131.232H189.429C194.844 131.232 199.249 126.814 199.249 121.385C199.249 119.515 200.761 118 202.625 118C204.488 118 206 119.515 206 121.385C206 130.547 198.566 138 189.429 138Z" fill="#58CC02"/>
<path d="M103.635 85H27.3656C25.5071 85 24 83.4327 24 81.5C24 79.5673 25.5071 78 27.3656 78H103.635C105.494 78 107 79.5673 107 81.5C107 83.4327 105.494 85 103.635 85Z" fill="#58CC02"/>
<path d="M205.663 150H33.3364C31.4937 150 30 148.433 30 146.5C30 144.567 31.4937 143 33.3364 143H205.663C207.506 143 209 144.567 209 146.5C209 148.433 207.506 150 205.663 150Z" fill="#58CC02"/>
<path d="M205.663 162H33.3364C31.4937 162 30 160.433 30 158.5C30 156.567 31.4937 155 33.3364 155H205.663C207.506 155 209 156.567 209 158.5C209 160.433 207.506 162 205.663 162Z" fill="#58CC02"/>
<path d="M133 109C133 129.53 147.35 134 154.649 134C161.948 134 169.044 119.664 148.359 120.325" fill="#F3F588"/>
<path d="M155.105 138C154.867 138 154.628 137.995 154.388 137.983C148.969 137.738 131.127 134.967 129.012 109.641C128.857 107.79 130.242 106.165 132.105 106.011C133.974 105.859 135.605 107.234 135.759 109.085C137.314 127.706 148.291 130.974 154.696 131.264C157.554 131.39 159.297 130.233 159.926 129.2C160.511 128.237 160.109 127.555 159.976 127.33C159.034 125.73 155.388 123.941 148.212 124.169C146.346 124.222 144.78 122.77 144.72 120.914C144.662 119.057 146.128 117.505 147.997 117.445C159.96 117.067 164.297 121.348 165.819 123.932C167.428 126.662 167.391 129.932 165.721 132.678C163.702 135.999 159.678 138 155.105 138Z" fill="#FBDE8E"/>
<path d="M305.231 184H285.769C280.374 184 276 188.444 276 193.927V205.073C276 210.556 280.374 215 285.769 215H305.231C310.627 215 315 210.556 315 205.073V193.927C315 188.444 310.627 184 305.231 184Z" fill="#65686B"/>
<path d="M285.473 187.768C281.8 187.768 278.812 190.736 278.812 194.385V205.614C278.812 209.263 281.8 212.231 285.473 212.231H305.527C309.2 212.231 312.187 209.263 312.187 205.614V194.385C312.187 190.736 309.2 187.768 305.527 187.768H285.473ZM305.527 219H285.473C278.044 219 272 212.995 272 205.614V194.385C272 187.004 278.044 181 285.473 181H305.527C312.956 181 319 187.004 319 194.385V205.614C319 212.995 312.956 219 305.527 219Z" fill="#4F4F52"/>
<path d="M304.5 208C302.567 208 301 206.489 301 204.626V194.375C301 192.511 302.567 191 304.5 191C306.433 191 308 192.511 308 194.375V204.626C308 206.489 306.433 208 304.5 208Z" fill="#4F4F52"/>
<path d="M425.648 3H338.352C333.739 3 330 6.69898 330 11.2615V25H434V11.2615C434 6.69898 430.261 3 425.648 3Z" fill="#80DF39"/>
<path d="M540.648 3H453.352C448.739 3 445 6.69898 445 11.2615V25H549V11.2615C549 6.69898 545.261 3 540.648 3Z" fill="#80DF39"/>
<path d="M333.668 22.2775H430.333V11.727C430.333 8.96697 428.106 6.72254 425.368 6.72254H338.632C335.894 6.72254 333.668 8.96697 333.668 11.727V22.2775ZM433.666 29H330.334C328.493 29 327 27.4948 327 25.6387V11.727C327 5.26087 332.218 -3.88194e-07 338.632 -3.88194e-07H425.368C431.782 -3.88194e-07 437 5.26087 437 11.727V25.6387C437 27.4948 435.508 29 433.666 29Z" fill="#58CC02"/>
<path d="M448.728 22.2775H546.272V11.727C546.272 8.96697 544.025 6.72254 541.263 6.72254H453.738C450.975 6.72254 448.728 8.96697 448.728 11.727V22.2775ZM549.636 29H445.364C443.507 29 442 27.4948 442 25.6387V11.727C442 5.26087 447.266 -3.88194e-07 453.738 -3.88194e-07H541.263C547.734 -3.88194e-07 553 5.26087 553 11.727V25.6387C553 27.4948 551.494 29 549.636 29Z" fill="#58CC02"/>
<path d="M553 215.995C553 228.149 545.536 238 536.329 238C533.29 238 533.719 238 530.68 238C521.464 238 514 228.149 514 215.995C514 203.851 521.464 194 530.68 194C533.719 194 533.29 194 536.329 194C545.536 194 553 203.851 553 215.995Z" fill="#65686B"/>
<path d="M530.156 197.647C522.724 197.647 516.678 205.878 516.678 215.996C516.678 226.118 522.724 234.353 530.156 234.353H535.852C543.279 234.353 549.321 226.118 549.321 215.996C549.321 205.878 543.279 197.647 535.852 197.647H530.156ZM535.852 241H530.156C519.042 241 510 229.783 510 215.996C510 202.212 519.042 191 530.156 191H535.852C546.961 191 556 202.212 556 215.996C556 229.783 546.961 241 535.852 241Z" fill="#4F4F52"/>
<path d="M530.306 229C528.48 229 527 227.504 527 225.657C527 223.811 528.48 222.314 530.306 222.314C531.073 222.314 533.389 219.898 533.389 215.5C533.389 211.102 531.073 208.686 530.306 208.686C528.48 208.686 527 207.189 527 205.343C527 203.497 528.48 202 530.306 202C535.651 202 540 208.056 540 215.5C540 222.944 535.651 229 530.306 229Z" fill="#4F4F52"/>
<path d="M589 215.995C589 228.149 581.345 238 571.901 238C568.784 238 569.224 238 566.107 238C556.656 238 549 228.149 549 215.995C549 203.851 556.656 194 566.107 194C569.224 194 568.784 194 571.901 194C581.345 194 589 203.851 589 215.995Z" fill="#65686B"/>
<path d="M566.156 197.647C558.725 197.647 552.678 205.878 552.678 215.996C552.678 226.118 558.725 234.353 566.156 234.353H571.852C579.279 234.353 585.321 226.118 585.321 215.996C585.321 205.878 579.279 197.647 571.852 197.647H566.156ZM571.852 241H566.156C555.042 241 546 229.783 546 215.996C546 202.212 555.042 191 566.156 191H571.852C582.961 191 592 202.212 592 215.996C592 229.783 582.961 241 571.852 241Z" fill="#4F4F52"/>
<path d="M486.148 226H566.501C569.575 226 573 221.898 573 216.01V203H483L486.148 226Z" fill="#65686B"/>
<path d="M566.199 229H486.342C484.496 229 483 227.507 483 225.665C483 223.824 484.496 222.33 486.342 222.33H566.199C566.975 222.33 569.316 219.919 569.316 215.532V202.335C569.316 200.494 570.813 199 572.658 199C574.504 199 576 200.494 576 202.335V215.532C576 222.959 571.603 229 566.199 229Z" fill="#4F4F52"/>
<path d="M422 215.995C422 228.149 414.344 238 404.901 238C401.784 238 402.224 238 399.107 238C389.655 238 382 228.149 382 215.995C382 203.851 389.655 194 399.107 194C402.224 194 401.784 194 404.901 194C414.344 194 422 203.851 422 215.995Z" fill="#65686B"/>
<path d="M399.157 197.647C391.725 197.647 385.679 205.878 385.679 215.996C385.679 226.118 391.725 234.353 399.157 234.353H404.853C412.279 234.353 418.322 226.118 418.322 215.996C418.322 205.878 412.279 197.647 404.853 197.647H399.157ZM404.853 241H399.157C388.042 241 379 229.783 379 215.996C379 202.212 388.042 191 399.157 191H404.853C415.962 191 425 202.212 425 215.996C425 229.783 415.962 241 404.853 241Z" fill="#4F4F52"/>
<path d="M399.305 229C397.48 229 396 227.504 396 225.657C396 223.811 397.48 222.314 399.305 222.314C400.073 222.314 402.389 219.898 402.389 215.5C402.389 211.102 400.073 208.686 399.305 208.686C397.48 208.686 396 207.189 396 205.343C396 203.497 397.48 202 399.305 202C404.651 202 409 208.056 409 215.5C409 222.944 404.651 229 399.305 229Z" fill="#4F4F52"/>
<path d="M355.148 226H435.5C438.575 226 442 221.898 442 216.01V203H352L355.148 226Z" fill="#65686B"/>
<path d="M435.199 229H355.342C353.496 229 352 227.507 352 225.665C352 223.824 353.496 222.33 355.342 222.33H435.199C435.976 222.33 438.317 219.919 438.317 215.532V202.335C438.317 200.494 439.814 199 441.659 199C443.504 199 445 200.494 445 202.335V215.532C445 222.959 440.603 229 435.199 229Z" fill="#4F4F52"/>
<path d="M595 53.075V196H281V53.075C281 31.4873 298.552 14 320.221 14H555.78C577.436 14 595 31.4873 595 53.075Z" fill="#80DF39"/>
<path d="M530.649 200H281.351C279.501 200 278 198.502 278 196.653V53.4885C278 30.0603 297.082 11 320.537 11H530.649C532.5 11 534 12.4991 534 14.3477C534 16.1962 532.5 17.6946 530.649 17.6946H320.537C300.778 17.6946 284.702 33.752 284.702 53.4885V193.305H530.649C532.5 193.305 534 194.804 534 196.653C534 198.502 532.5 200 530.649 200Z" fill="#58CC02"/>
<path d="M594.654 200C592.806 200 591.308 198.502 591.308 196.653V53.4885C591.308 33.752 575.26 17.6946 555.534 17.6946H530.346C528.498 17.6946 527 16.1962 527 14.3477C527 12.4991 528.498 11 530.346 11H555.534C578.949 11 598 30.0603 598 53.4885V196.653C598 198.502 596.5 200 594.654 200Z" fill="#58CC02"/>
<path d="M491.318 161C489.486 161 488 159.498 488 157.644V53.1079C488 41.7278 492.381 31.0298 500.335 22.9824C501.631 21.6725 503.732 21.6725 505.028 22.9824C506.324 24.2937 506.324 26.4187 505.028 27.73C498.327 34.5082 494.636 43.5212 494.636 53.1079V157.644C494.636 159.498 493.151 161 491.318 161Z" fill="#58CC02"/>
<path d="M329 215.995C329 228.149 321.536 238 312.329 238C309.29 238 309.719 238 306.68 238C297.464 238 290 228.149 290 215.995C290 203.851 297.464 194 306.68 194C309.719 194 309.29 194 312.329 194C321.536 194 329 203.851 329 215.995Z" fill="#65686B"/>
<path d="M306.156 197.647C298.725 197.647 292.678 205.878 292.678 215.996C292.678 226.118 298.725 234.353 306.156 234.353H311.852C319.279 234.353 325.321 226.118 325.321 215.996C325.321 205.878 319.279 197.647 311.852 197.647H306.156ZM311.852 241H306.156C295.042 241 286 229.783 286 215.996C286 202.212 295.042 191 306.156 191H311.852C322.961 191 332 202.212 332 215.996C332 229.783 322.961 241 311.852 241Z" fill="#4F4F52"/>
<path d="M306.306 229C304.48 229 303 227.504 303 225.657C303 223.811 304.48 222.314 306.306 222.314C307.073 222.314 309.389 219.898 309.389 215.5C309.389 211.102 307.073 208.686 306.306 208.686C304.48 208.686 303 207.189 303 205.343C303 203.497 304.48 202 306.306 202C311.651 202 316 208.056 316 215.5C316 222.944 311.651 229 306.306 229Z" fill="#4F4F52"/>
<path d="M365 215.995C365 228.149 357.345 238 347.901 238C344.784 238 345.225 238 342.107 238C332.655 238 325 228.149 325 215.995C325 203.851 332.655 194 342.107 194C345.225 194 344.784 194 347.901 194C357.345 194 365 203.851 365 215.995Z" fill="#65686B"/>
<path d="M342.156 197.647C334.725 197.647 328.678 205.878 328.678 215.996C328.678 226.118 334.725 234.353 342.156 234.353H347.853C355.279 234.353 361.321 226.118 361.321 215.996C361.321 205.878 355.279 197.647 347.853 197.647H342.156ZM347.853 241H342.156C331.042 241 322 229.783 322 215.996C322 202.212 331.042 191 342.156 191H347.853C358.961 191 368 202.212 368 215.996C368 229.783 358.961 241 347.853 241Z" fill="#4F4F52"/>
<path d="M342.305 229C340.48 229 339 227.504 339 225.657C339 223.811 340.48 222.314 342.305 222.314C343.073 222.314 345.389 219.898 345.389 215.5C345.389 211.102 343.073 208.686 342.305 208.686C340.48 208.686 339 207.189 339 205.343C339 203.497 340.48 202 342.305 202C347.651 202 352 208.056 352 215.5C352 222.944 347.651 229 342.305 229Z" fill="#4F4F52"/>
<path d="M458 215.995C458 228.149 450.344 238 440.901 238C437.784 238 438.224 238 435.107 238C425.655 238 418 228.149 418 215.995C418 203.851 425.655 194 435.107 194C438.224 194 437.784 194 440.901 194C450.344 194 458 203.851 458 215.995Z" fill="#65686B"/>
<path d="M435.156 197.647C427.725 197.647 421.678 205.878 421.678 215.996C421.678 226.118 427.725 234.353 435.156 234.353H440.852C448.279 234.353 454.322 226.118 454.322 215.996C454.322 205.878 448.279 197.647 440.852 197.647H435.156ZM440.852 241H435.156C424.042 241 415 229.783 415 215.996C415 202.212 424.042 191 435.156 191H440.852C451.962 191 461 202.212 461 215.996C461 229.783 451.962 241 440.852 241Z" fill="#4F4F52"/>
<path d="M435.305 229C433.48 229 432 227.504 432 225.657C432 223.811 433.48 222.314 435.305 222.314C436.073 222.314 438.389 219.898 438.389 215.5C438.389 211.102 436.073 208.686 435.305 208.686C433.48 208.686 432 207.189 432 205.343C432 203.497 433.48 202 435.305 202C440.651 202 445 208.056 445 215.5C445 222.944 440.651 229 435.305 229Z" fill="#4F4F52"/>
<path d="M493 215.995C493 228.149 485.536 238 476.329 238C473.29 238 473.719 238 470.68 238C461.464 238 454 228.149 454 215.995C454 203.851 461.464 194 470.68 194C473.719 194 473.29 194 476.329 194C485.536 194 493 203.851 493 215.995Z" fill="#65686B"/>
<path d="M471.156 197.647C463.725 197.647 457.678 205.878 457.678 215.996C457.678 226.118 463.725 234.353 471.156 234.353H476.852C484.28 234.353 490.322 226.118 490.322 215.996C490.322 205.878 484.28 197.647 476.852 197.647H471.156ZM476.852 241H471.156C460.042 241 451 229.783 451 215.996C451 202.212 460.042 191 471.156 191H476.852C487.962 191 497 202.212 497 215.996C497 229.783 487.962 241 476.852 241Z" fill="#4F4F52"/>
<path d="M470.56 229C468.594 229 467 227.504 467 225.657C467 223.811 468.594 222.314 470.56 222.314C471.386 222.314 473.881 219.898 473.881 215.5C473.881 211.102 471.386 208.686 470.56 208.686C468.594 208.686 467 207.189 467 205.343C467 203.497 468.594 202 470.56 202C476.317 202 481 208.056 481 215.5C481 222.944 476.317 229 470.56 229Z" fill="#4F4F52"/>
<path d="M596.21 203H280.788C275.383 203 271 198.498 271 192.943V184.057C271 178.503 275.383 174 280.788 174H596.21C601.615 174 606 178.503 606 184.057V192.943C606 198.498 601.615 203 596.21 203Z" fill="white"/>
<path d="M281.15 177.714C277.597 177.714 274.706 180.608 274.706 184.166V192.834C274.706 196.392 277.597 199.286 281.15 199.286H596.849C600.401 199.286 603.294 196.392 603.294 192.834V184.166C603.294 180.608 600.401 177.714 596.849 177.714H281.15ZM596.849 206H281.15C273.899 206 268 200.093 268 192.834V184.166C268 176.906 273.899 171 281.15 171H596.849C604.102 171 610 176.906 610 184.166V192.834C610 200.093 604.102 206 596.849 206Z" fill="#DADBD8"/>
<path d="M481.454 196C479.546 196 478 194.508 478 192.668V184.066C478 176.861 484.077 171 491.546 171C493.453 171 495 172.492 495 174.332C495 176.172 493.453 177.663 491.546 177.663C487.886 177.663 484.908 180.536 484.908 184.066V192.668C484.908 194.508 483.361 196 481.454 196Z" fill="#DADBD8"/>
<path d="M358.889 134H309.111C301.87 134 296 128.207 296 121.061V71.9381C296 64.793 301.87 59 309.111 59H358.889C366.13 59 372 64.793 372 71.9381V121.061C372 128.207 366.13 134 358.889 134Z" fill="#AFE4E4"/>
<path d="M457.889 134H408.111C400.87 134 395 128.207 395 121.061V71.9381C395 64.793 400.87 59 408.111 59H457.889C465.13 59 471 64.793 471 71.9381V121.061C471 128.207 465.13 134 457.889 134Z" fill="#AFE4E4"/>
<path d="M320.615 138C311.454 138 304 130.588 304 121.478V71.5221C304 62.4116 311.454 55 320.615 55C322.484 55 324 56.5065 324 58.3649C324 60.2233 322.484 61.7305 320.615 61.7305C315.186 61.7305 310.768 66.1231 310.768 71.5221V121.478C310.768 126.877 315.186 131.27 320.615 131.27C322.484 131.27 324 132.776 324 134.635C324 136.494 322.484 138 320.615 138Z" fill="#76D1D5"/>
<path d="M419.615 138C410.454 138 403 130.588 403 121.478V71.5221C403 62.4116 410.454 55 419.615 55C421.484 55 423 56.5065 423 58.3649C423 60.2233 421.484 61.7305 419.615 61.7305C414.186 61.7305 409.768 66.1231 409.768 71.5221V121.478C409.768 126.877 414.186 131.27 419.615 131.27C421.484 131.27 423 132.776 423 134.635C423 136.494 421.484 138 419.615 138Z" fill="#76D1D5"/>
<path d="M308.523 61.7305C303.123 61.7305 298.73 66.1231 298.73 71.5221V121.478C298.73 126.877 303.123 131.27 308.523 131.27H358.478C363.877 131.27 368.27 126.877 368.27 121.478V71.5221C368.27 66.1231 363.877 61.7305 358.478 61.7305H308.523ZM358.478 138H308.523C299.412 138 292 130.588 292 121.478V71.5221C292 62.4116 299.412 55 308.523 55H358.478C367.588 55 375 62.4116 375 71.5221V121.478C375 130.588 367.588 138 358.478 138Z" fill="#58CC02"/>
<path d="M407.523 61.7305C402.123 61.7305 397.73 66.1231 397.73 71.5221V121.478C397.73 126.877 402.123 131.27 407.523 131.27H457.478C462.877 131.27 467.27 126.877 467.27 121.478V71.5221C467.27 66.1231 462.877 61.7305 457.478 61.7305H407.523ZM457.478 138H407.523C398.412 138 391 130.588 391 121.478V71.5221C391 62.4116 398.412 55 407.523 55H457.478C466.588 55 474 62.4116 474 71.5221V121.478C474 130.588 466.588 138 457.478 138Z" fill="#58CC02"/>
<path d="M397.599 133C396.66 133 395.725 132.612 395.059 131.853C392.442 128.865 391 125.036 391 121.071V71.4209C391 62.3662 398.412 55 407.522 55H457.477C466.588 55 474 62.3662 474 71.4209V121.071C474 122.918 472.493 124.415 470.634 124.415C468.776 124.415 467.269 122.918 467.269 121.071V71.4209C467.269 66.055 462.876 61.6892 457.477 61.6892H407.522C402.123 61.6892 397.73 66.055 397.73 71.4209V121.071C397.73 123.421 398.585 125.689 400.135 127.459C401.356 128.852 401.209 130.964 399.808 132.178C399.17 132.729 398.383 133 397.599 133Z" fill="#58CC02"/>
<path d="M513.382 178C511.514 178 510 176.493 510 174.635V75.0696C510 64.0032 519.049 55 530.171 55H557.829C568.951 55 578 64.0032 578 75.0696V155.291C578 157.15 576.485 158.657 574.617 158.657C572.749 158.657 571.235 157.15 571.235 155.291V75.0696C571.235 67.7144 565.221 61.731 557.829 61.731H530.171C522.778 61.731 516.765 67.7144 516.765 75.0696V174.635C516.765 176.493 515.25 178 513.382 178Z" fill="#58CC02"/>
<path d="M524 95.3186V75.5495C524 71.9321 526.92 69 530.522 69H557.477C561.08 69 564 71.9321 564 75.5501V95.3186C564 99.0085 561.022 102 557.347 102H530.653C526.979 102 524 99.0085 524 95.3186Z" fill="#AFE4E4"/>
<path d="M557.751 105H530.25C524.598 105 520 100.475 520 94.9136V74.9552C520 69.4656 524.538 65 530.116 65H557.885C563.462 65 568 69.4656 568 74.9552C568 76.8009 566.48 78.2976 564.604 78.2976C562.729 78.2976 561.208 76.8009 561.208 74.9552C561.208 73.1515 559.717 71.6841 557.885 71.6841H530.116C528.283 71.6841 526.793 73.1515 526.793 74.9552V94.9136C526.793 96.7892 528.343 98.3159 530.25 98.3159H557.751C559.626 98.3159 561.147 99.812 561.147 101.658C561.147 103.503 559.626 105 557.751 105Z" fill="#58CC02"/>
<path d="M457.429 138H407.328C402.536 138 397.98 135.92 394.83 132.294C393.606 130.885 393.753 128.747 395.158 127.519C396.563 126.292 398.694 126.438 399.92 127.848C401.788 129.998 404.488 131.232 407.328 131.232H457.429C462.844 131.232 467.249 126.814 467.249 121.385C467.249 119.515 468.761 118 470.625 118C472.488 118 474 119.515 474 121.385C474 130.547 466.566 138 457.429 138Z" fill="#58CC02"/>
<path d="M371.635 85H295.366C293.507 85 292 83.4327 292 81.5C292 79.5673 293.507 78 295.366 78H371.635C373.494 78 375 79.5673 375 81.5C375 83.4327 373.494 85 371.635 85Z" fill="#58CC02"/>
<path d="M470.635 85H394.366C392.507 85 391 83.4327 391 81.5C391 79.5673 392.507 78 394.366 78H470.635C472.494 78 474 79.5673 474 81.5C474 83.4327 472.494 85 470.635 85Z" fill="#58CC02"/>
<path d="M473.663 150H301.336C299.494 150 298 148.433 298 146.5C298 144.567 299.494 143 301.336 143H473.663C475.506 143 477 144.567 477 146.5C477 148.433 475.506 150 473.663 150Z" fill="#58CC02"/>
<path d="M473.663 162H301.336C299.494 162 298 160.433 298 158.5C298 156.567 299.494 155 301.336 155H473.663C475.506 155 477 156.567 477 158.5C477 160.433 475.506 162 473.663 162Z" fill="#58CC02"/>
<path d="M573.231 184H553.769C548.374 184 544 188.444 544 193.927V205.073C544 210.556 548.374 215 553.769 215H573.231C578.627 215 583 210.556 583 205.073V193.927C583 188.444 578.627 184 573.231 184Z" fill="#65686B"/>
<path d="M553.473 187.768C549.8 187.768 546.812 190.736 546.812 194.385V205.614C546.812 209.263 549.8 212.231 553.473 212.231H573.527C577.2 212.231 580.187 209.263 580.187 205.614V194.385C580.187 190.736 577.2 187.768 573.527 187.768H553.473ZM573.527 219H553.473C546.044 219 540 212.995 540 205.614V194.385C540 187.004 546.044 181 553.473 181H573.527C580.956 181 587 187.004 587 194.385V205.614C587 212.995 580.956 219 573.527 219Z" fill="#4F4F52"/>
<path d="M572.5 208C570.567 208 569 206.489 569 204.626V194.375C569 192.511 570.567 191 572.5 191C574.433 191 576 192.511 576 194.375V204.626C576 206.489 574.433 208 572.5 208Z" fill="#4F4F52"/>
<path d="M556 36C556 41.5226 551.523 46 546 46C540.477 46 536 41.5226 536 36C536 30.4774 540.477 26 546 26C551.523 26 556 30.4774 556 36Z" fill="#F360A5"/>
<path d="M546 28.7562C542.419 28.7562 539.506 31.7814 539.506 35.4997C539.506 39.218 542.419 42.2431 546 42.2431C549.58 42.2431 552.494 39.218 552.494 35.4997C552.494 31.7814 549.58 28.7562 546 28.7562ZM546 49C538.831 49 533 42.9437 533 35.4997C533 28.0556 538.831 22 546 22C553.168 22 559 28.0556 559 35.4997C559 42.9437 553.168 49 546 49Z" fill="#D6468C"/>
</svg>
