<svg width="184" height="226" viewBox="0 0 184 226" fill="none" xmlns="http://www.w3.org/2000/svg">
<path d="M13.2825 149C12.9897 149 12.697 148.942 12.413 148.82C5.58743 145.869 1.55416 140.357 1.05164 133.299C0.452987 124.892 5.12421 115.129 11.6876 111.071C16.9312 107.83 22.3978 107.127 27.0734 109.092C30.8358 110.672 35.8479 114.747 38.3605 125.189C39.1208 128.356 41.6028 136.03 48.2055 138.883C53.5365 141.188 60.4233 139.889 68.6733 135.024C69.7308 134.4 71.0854 134.765 71.7015 135.839C72.3133 136.913 71.955 138.289 70.8975 138.913C61.3758 144.53 53.1564 145.912 46.4707 143.021C38.024 139.371 34.9739 130.081 34.0563 126.256C32.4176 119.441 29.4156 114.943 25.3823 113.248C22.0439 111.846 17.9975 112.437 13.9948 114.913C9.47213 117.706 4.93195 125.406 5.46943 132.975C5.73598 136.718 7.45767 141.789 14.1521 144.681C15.2751 145.168 15.7995 146.489 15.3188 147.632C14.9605 148.487 14.1433 149 13.2825 149Z" fill="#9D7B8A"/>
<path d="M150 211.5C150 203.492 120.227 197 83.5 197C46.7735 197 17 203.492 17 211.5C17 219.507 46.7735 226 83.5 226C120.227 226 150 219.507 150 211.5Z" fill="#DBBFCA"/>
<path d="M140 115L138.662 103C129.561 103 121.594 107.115 117 110.116L140 115Z" fill="#BE9AAA"/>
<path d="M122 94.0716C122 132.487 114.671 197 100.138 197C85.6095 197 92.2054 151.972 92.2054 151.972C85.6673 151.972 81.1945 149.443 81.1945 149.443C63.8587 174.609 30 175.309 30 163.541C30 152.317 59.6081 152.885 62.926 128.115C51.4576 126.328 46.6473 115.655 68.2826 91L122 94.0716Z" fill="#BE9AAA"/>
<path d="M66.7035 131C61.4389 131 56.7888 129.636 53.9023 126.504C49.3803 121.59 47.9039 111.229 66.5841 89.7696C67.3975 88.8355 68.812 88.7386 69.7447 89.5508C70.6818 90.3638 70.779 91.7794 69.9657 92.7127C51.9441 113.414 55.0339 121.116 57.1998 123.467C62.1904 128.883 78.2449 126.681 88.4293 119.182C89.4283 118.449 90.8296 118.662 91.5633 119.659C92.2971 120.656 92.0849 122.058 91.086 122.792C84.3096 127.78 74.7838 131 66.7035 131Z" fill="#9D7B8A"/>
<path d="M72.2769 113C71.5368 113 70.8147 112.644 70.3796 111.986C69.6844 110.943 69.9715 109.537 71.0166 108.846C76.4348 105.267 84.9479 101 94.7259 101C95.9818 101 97 102.015 97 103.266C97 104.517 95.9818 105.532 94.7259 105.532C86.0782 105.532 78.4263 109.388 73.5283 112.622C73.1426 112.878 72.7075 113 72.2769 113Z" fill="#9D7B8A"/>
<path d="M100.012 199C97.4936 199 95.2402 197.943 93.4993 195.942C89.8188 191.718 88.1132 182.895 88.427 169.717C88.5816 163.161 89.1958 157.208 89.5802 154.02C86.2398 153.712 83.571 152.855 81.9141 152.188C68.4776 170.289 46.6415 175.397 35.6395 172.016C30.7837 170.524 28 167.398 28 163.439C28 157.5 33.6822 154.518 40.2657 151.065C49.0408 146.462 58.9823 141.244 60.7762 127.85C60.9396 126.631 62.0664 125.774 63.2903 125.937C64.5186 126.099 65.3802 127.218 65.2167 128.436C63.1224 144.109 51.1174 150.405 42.3556 155.002C36.2316 158.215 32.4803 160.341 32.4803 163.439C32.4803 165.874 34.9193 167.134 36.9606 167.763C38.6573 168.284 40.6854 168.554 42.9389 168.554C53.6315 168.555 69.4585 162.467 79.3205 148.136C79.9744 147.18 81.2646 146.885 82.2764 147.458C82.3074 147.477 86.3458 149.685 92.1119 149.685C92.7659 149.685 93.38 149.966 93.8086 150.455C94.2328 150.944 94.4228 151.592 94.33 152.231C93.0133 161.251 90.9101 186.165 96.8839 193.029C97.7897 194.065 98.7838 194.548 100.012 194.548C103.869 194.548 109.596 185.334 114.098 159.473C117.443 140.262 119.52 115.261 119.52 94.2259C119.52 92.9964 120.523 92 121.76 92C122.997 92 124 92.9964 124 94.2259C124 115.497 121.897 140.789 118.512 160.232C113.97 186.319 107.921 199 100.012 199Z" fill="#9D7B8A"/>
<path d="M115.241 114C114.517 114 113.806 113.656 113.374 113.021C112.689 112.014 112.972 110.656 114 109.987C123.053 104.108 131.616 101 138.762 101C139.998 101 141 101.98 141 103.189C141 104.398 139.998 105.378 138.762 105.378C132.499 105.378 124.792 108.233 116.477 113.635C116.093 113.882 115.664 114 115.241 114Z" fill="#9D7B8A"/>
<path d="M86 122H145.447C147.962 122 150 119.538 150 116.5C150 113.462 147.962 111 145.447 111H86" fill="#65686B"/>
<path d="M91 116.5C91 113.462 88.7583 111 85.9976 111C83.2368 111 81 113.462 81 116.5C81 119.538 83.2368 122 85.9976 122C88.7583 122 91 119.538 91 116.5Z" fill="#65686B"/>
<path d="M86 113.796C84.8715 113.796 83.9194 115.034 83.9194 116.5C83.9194 117.966 84.8715 119.203 86 119.203C87.1329 119.203 88.085 117.966 88.085 116.5C88.085 115.034 87.1329 113.796 86 113.796ZM86 124C82.1429 124 79 120.636 79 116.5C79 112.364 82.1429 109 86 109C89.8615 109 93 112.364 93 116.5C93 120.636 89.8615 124 86 124Z" fill="#4F4F52"/>
<path d="M145.079 124H86.4292C85.0859 124 84 122.926 84 121.602C84 120.277 85.0859 119.203 86.4292 119.203H145.079C146.195 119.203 147.137 117.966 147.137 116.5C147.137 115.034 146.195 113.796 145.079 113.796H86.4292C85.0859 113.796 84 112.723 84 111.398C84 110.073 85.0859 109 86.4292 109H145.079C148.895 109 152 112.364 152 116.5C152 120.636 148.895 124 145.079 124Z" fill="#4F4F52"/>
<path d="M59 196.997C59 205.836 53.4877 213 46.6809 213C44.4352 213 40.5735 213 38.3278 213C31.5167 213 26 205.836 26 196.997C26 188.164 31.5167 181 38.3278 181C40.5735 181 44.4352 181 46.6809 181C53.4877 181 59 188.164 59 196.997Z" fill="#65686B"/>
<path d="M38.8083 183.875C33.3255 183.875 28.8634 189.986 28.8634 197.496C28.8634 205.011 33.3255 211.124 38.8083 211.124H47.1961C52.6789 211.124 57.1366 205.011 57.1366 197.496C57.1366 189.986 52.6789 183.875 47.1961 183.875H38.8083ZM47.1961 216H38.8083C30.643 216 24 207.699 24 197.496C24 187.297 30.643 179 38.8083 179H47.1961C55.3614 179 62 187.297 62 197.496C62 207.699 55.3614 216 47.1961 216Z" fill="#4F4F52"/>
<path d="M38.373 210C37.0608 210 36 208.91 36 207.566C36 206.222 37.0608 205.133 38.373 205.133C39.7405 205.133 42.2498 202.235 42.2498 197.5C42.2498 192.765 39.7405 189.867 38.373 189.867C37.0608 189.867 36 188.778 36 187.434C36 186.089 37.0608 185 38.373 185C43.5364 185 47 191.463 47 197.5C47 203.536 43.5364 210 38.373 210Z" fill="#4F4F52"/>
<path d="M159.179 41.1956C155.674 41.1956 152.359 41.9866 149.393 43.3963C146.581 22.1743 129.33 5.13424 107.533 2.82366C97.5044 1.7604 87.4711 1.72641 77.4421 2.72259C55.2037 4.93121 37.684 21.9492 34.6647 43.4228C31.6851 41.9958 28.348 41.1956 24.8211 41.1956C12.2187 41.1956 2 51.4116 2 64.0141C2 76.6166 12.2187 86.8326 24.8211 86.8326C31.2437 86.8326 37.0395 84.1778 41.1844 79.9106C45.8634 86.9791 53.1908 92.1127 61.7499 93.8791C81.7018 97.9967 101.658 98.0399 121.61 94.0084C130.425 92.2275 137.929 87.0387 142.736 79.8316C146.89 84.1446 152.717 86.8326 159.179 86.8326C171.781 86.8326 182 76.6166 182 64.0141C182 51.4116 171.781 41.1956 159.179 41.1956Z" fill="#BE9AAA"/>
<path d="M92.255 100C82.0513 100 71.8521 98.9434 61.7187 96.8296C52.7268 94.9542 44.9643 89.6244 39.8537 81.8228C39.1776 80.7866 39.4585 79.3909 40.4859 78.7053C41.5089 78.0196 42.8876 78.3041 43.5681 79.3403C48.0201 86.143 54.786 90.7894 62.6187 92.4229C82.0733 96.4822 101.809 96.5252 121.268 92.5512C129.338 90.903 136.297 86.1807 140.872 79.2538C141.245 78.6871 141.851 78.3218 142.522 78.2615C143.199 78.2016 143.857 78.4514 144.327 78.9423C148.226 83.037 153.464 85.2918 159.075 85.2918C170.363 85.2918 179.548 76.0089 179.548 64.5984C179.548 53.188 170.363 43.905 159.075 43.905C156.006 43.905 153.051 44.576 150.298 45.8998C149.653 46.2087 148.906 46.1883 148.278 45.8448C147.655 45.5017 147.229 44.8769 147.133 44.1637C145.842 34.2994 141.197 24.9903 134.053 17.9515C126.861 10.8666 117.422 6.37733 107.473 5.31138C97.6905 4.26361 87.7722 4.22989 77.9944 5.21153C57.012 7.31814 40.3279 23.3541 37.4301 44.2077C37.2589 45.4378 36.1349 46.2961 34.9143 46.1226C33.6982 45.9495 32.8508 44.8121 33.022 43.5815C36.2095 20.6661 54.5225 3.04677 77.5554 0.734235C87.6361 -0.278024 97.8573 -0.243407 107.942 0.836751C118.879 2.00921 129.254 6.94315 137.157 14.7297C144.323 21.7898 149.205 30.9334 151.088 40.7271C153.648 39.8493 156.322 39.4056 159.075 39.4056C172.817 39.4056 184 50.7068 184 64.5984C184 78.4896 172.817 89.7913 159.075 89.7913C153.13 89.7913 147.528 87.7131 143.049 83.8904C137.855 90.6465 130.523 95.2511 122.146 96.9614C112.232 98.9868 102.244 100 92.255 100Z" fill="#9D7B8A"/>
<path d="M118.004 75.0162C103.851 77.6896 89.698 77.6609 75.5451 74.9303C66.8588 73.2549 59.9466 67.0191 57.7959 58.9761C56.6701 54.7684 56.0744 50.5604 56.0043 46.3528C55.724 29.8773 69.1322 16.1078 86.6711 14.4792C93.7892 13.8186 100.903 13.8411 108.017 14.5462C124.938 16.2229 138 29.595 138 45.5003C138 49.8098 137.448 54.1197 136.344 58.4297C134.185 66.84 127.071 73.3034 118.004 75.0162Z" fill="#FBEAB0"/>
<path d="M168 64.5C168 59.8056 164.193 56 159.5 56C154.807 56 151 59.8056 151 64.5C151 69.1944 154.807 73 159.5 73C164.193 73 168 69.1944 168 64.5Z" fill="#9D7B8A"/>
<path d="M32 64.5C32 59.8056 28.1931 56 23.5 56C18.8069 56 15 59.8056 15 64.5C15 69.1944 18.8069 73 23.5 73C28.1931 73 32 69.1944 32 64.5Z" fill="#9D7B8A"/>
<path d="M44 44L32.0022 39.8234L29.5142 42.3549H20L23.1902 34.6276C24.6595 31.0688 28.4479 29.2164 32.0152 30.3155L44 34.0103" fill="#F9AB77"/>
<path d="M111.992 50.3358L113.449 55.792C114.14 58.3989 116.196 60.4244 118.824 61.1211C128.858 63.7839 140.326 63.0465 146.455 62.3358C149.316 62.0043 151.769 60.1081 152.702 57.4064C154.864 51.1754 155.335 44.7578 155.335 44.7578L157.166 44.5119C159.935 44.1406 162 41.7953 162 39.0229C162 37.0171 160.917 35.1602 159.147 34.1901C152.376 30.4759 129.593 22.6509 106.026 30.1107C103.407 30.9398 100.593 30.9398 97.9739 30.1107C74.4071 22.6509 51.6283 30.4759 44.8528 34.1901C43.083 35.1602 42 37.0171 42 39.0229C42 41.7953 44.0648 44.1406 46.834 44.5119L48.6654 44.7578C48.6654 44.7578 49.1365 51.1754 51.2981 57.4064C52.2315 60.1081 54.6837 62.0043 57.5454 62.3358C63.6737 63.0465 75.1423 63.7839 85.1757 61.1211C87.804 60.4244 89.86 58.3989 90.5512 55.792L92.0084 50.3358C93.2059 45.8354 97.3091 42.7009 102.002 42.7009C106.691 42.7009 110.794 45.8354 111.992 50.3358Z" fill="#F9AB77"/>
<path d="M113.706 49.7238L115.165 55.1218C115.651 56.9269 117.11 58.3508 118.976 58.8379C128.739 61.3901 140.027 60.649 145.885 59.98C147.919 59.748 149.657 58.4079 150.302 56.566C152.345 50.7614 152.822 44.6659 152.827 44.6054C152.906 43.5726 153.716 42.7333 154.764 42.5942L156.603 42.3513C158.265 42.1313 159.517 40.7303 159.517 39.0916C159.517 37.8945 158.862 36.7973 157.81 36.2277C151.832 32.9996 129.645 25.3241 106.852 32.169C103.35 33.2208 99.6496 33.2208 96.1478 32.169C73.3594 25.3241 51.1679 32.9991 45.1901 36.2277C44.1378 36.7973 43.4834 37.8945 43.4834 39.0916C43.4834 40.7303 44.7347 42.1313 46.3971 42.3513L48.2365 42.5942C49.2888 42.7333 50.0935 43.5726 50.1731 44.6063C50.1775 44.6659 50.655 50.7614 52.6978 56.5665C53.3477 58.4079 55.081 59.748 57.1149 59.98C62.9733 60.649 74.2614 61.3901 84.0241 58.8379C85.8899 58.3508 87.349 56.9269 87.8354 55.1222L89.2989 49.7238C90.758 44.3163 95.7764 40.5393 101.498 40.5393C107.224 40.5393 112.242 44.3167 113.706 49.7238ZM134.836 64.9999C129.49 64.9999 123.446 64.5414 117.818 63.0703C114.404 62.1788 111.729 59.5617 110.832 56.2415L109.368 50.8435C108.426 47.3565 105.19 44.9209 101.498 44.9209C97.8103 44.9209 94.5737 47.3565 93.6319 50.8435L92.1729 56.2415C91.2709 59.5617 88.5959 62.1788 85.1825 63.0703C74.6991 65.811 62.7699 65.0371 56.5931 64.3322C52.8569 63.9053 49.6646 61.4165 48.4575 57.9917C46.9012 53.5648 46.1849 49.1011 45.8887 46.7052L45.7958 46.6931C41.9226 46.181 39 42.9131 39 39.0916C39 36.3003 40.5431 33.7333 43.0236 32.3928C49.8946 28.6815 73.0676 20.6539 97.4654 27.981C100.105 28.7744 102.895 28.774 105.535 27.981C129.932 20.6534 153.105 28.6815 159.976 32.3928C162.457 33.7333 164 36.3003 164 39.0916C164 42.9131 161.077 46.181 157.204 46.6931L157.111 46.7052C156.815 49.1011 156.099 53.5643 154.542 57.9913C153.335 61.4165 150.143 63.9053 146.407 64.3322C143.546 64.6585 139.452 64.9999 134.836 64.9999Z" fill="#F49464"/>
<path d="M146.983 43.5058L146.929 44.1642C146.929 44.1889 146.736 46.6017 146.087 49.7223C145.491 52.5546 143.063 54.6461 140.133 54.8272C138.466 54.926 136.625 55 134.694 55C132.468 55 130.34 54.9097 128.342 54.7285C126.877 54.6051 125.479 54.4319 124.139 54.2098C121.953 53.8476 120.188 52.2501 119.619 50.1422L119.126 48.2979C118.463 45.8441 117.325 43.6129 115.811 41.6941C113.916 39.2897 115.542 35.7738 118.616 35.42C120.654 35.1895 122.733 35.0494 124.852 35.0163C125.268 35 125.685 35 126.106 35C131.979 35 137.364 35.7492 141.894 36.7619C145.048 37.4701 147.216 40.3276 146.983 43.5058Z" fill="#65686B"/>
<path d="M128.446 55C126.969 54.8748 125.561 54.6991 124.211 54.4737C122.007 54.1062 120.228 52.4854 119.655 50.3468L119.158 48.4755C118.49 45.9859 117.343 43.7221 115.817 41.7753C113.908 39.3358 115.546 35.7686 118.644 35.4096C120.698 35.1757 122.793 35.0335 124.928 35C122.96 40.3132 124.739 43.7467 127.786 43.7467C131.674 43.7467 134.608 48.442 128.446 55Z" fill="#4F4F52"/>
<path d="M87.1887 41.6941C85.6743 43.6129 84.5363 45.8441 83.8776 48.2979L83.3803 50.1422C82.8113 52.2501 81.0459 53.8476 78.8594 54.2098C77.2465 54.4813 75.5394 54.6792 73.7472 54.8109C72.0132 54.9343 70.1986 55 68.3033 55C66.3722 55 64.5307 54.926 62.864 54.8272C59.9651 54.6461 57.5232 52.6207 56.9363 49.8293C56.2687 46.659 56.067 44.1889 56.067 44.1642L56.0178 43.5058C55.7803 40.3276 57.9488 37.4701 61.1076 36.7619C63.6167 36.2022 66.3946 35.7166 69.3742 35.4037C71.7623 35.1481 74.2804 35 76.8925 35C79.4375 35 81.9421 35.1401 84.3884 35.42C87.4576 35.7738 89.084 39.2897 87.1887 41.6941Z" fill="#65686B"/>
<path d="M73.9422 54.807C72.1892 54.933 70.3547 55 68.4386 55C66.4862 55 64.6245 54.9244 62.9394 54.8237C60.0087 54.6388 57.5399 52.5717 56.9465 49.7228C56.2716 46.4872 56.0678 43.9662 56.0678 43.941L56.0179 43.2691C55.7779 40.0253 57.9703 37.109 61.1637 36.3862C63.7004 35.815 66.5089 35.3193 69.5212 35C66.6221 41.1848 68.4476 45.2939 71.7725 45.2939C75.3057 45.2939 78.0553 49.1764 73.9422 54.807Z" fill="#4F4F52"/>
<path d="M101.594 59C97.7471 59 94.9785 57.2533 94.809 57.1419C93.9266 56.5721 93.7354 55.4826 94.3873 54.7087C95.035 53.9377 96.2694 53.7699 97.1517 54.3333C97.3473 54.4565 101.411 56.9272 105.918 54.2925C106.827 53.7592 108.061 53.9755 108.665 54.7754C109.274 55.5753 109.03 56.6556 108.118 57.1889C105.797 58.5457 103.554 59 101.594 59Z" fill="#4F4F52"/>
<path d="M20.2426 44C19.946 44 19.645 43.9437 19.3572 43.8238C18.2195 43.3519 17.6927 42.0799 18.184 40.9825L21.4379 33.6811C23.3858 29.3141 28.4237 27.0382 33.1517 28.3869L45.3923 31.878C46.5787 32.2168 47.2605 33.4204 46.9063 34.5657C46.5566 35.7109 45.3082 36.3654 44.1173 36.0262L31.8767 32.5351C29.3268 31.8076 26.613 33.0352 25.5638 35.3896L22.3056 42.6909C21.9425 43.5097 21.1147 44 20.2426 44Z" fill="#F49464"/>
<path d="M44.7876 46C44.5564 46 44.3209 45.961 44.0854 45.8779L33.2965 42.0398L31.7571 43.6388C30.8849 44.5467 29.485 44.5291 28.6303 43.5994C27.7756 42.6692 27.793 41.1797 28.6652 40.2718L31.1727 37.6698C31.7658 37.0534 32.6293 36.8417 33.4186 37.1216L45.4897 41.4151C46.6453 41.8268 47.2733 43.1594 46.8851 44.3922C46.5755 45.3771 45.7121 46 44.7876 46Z" fill="#F49464"/>
<path d="M24.6797 89C11.0726 89 0 77.7848 0 64C0 50.2147 11.0726 39 24.6797 39C28.4053 39 31.9875 39.8213 35.3263 41.4415C36.4218 41.9739 36.8869 43.3069 36.3609 44.4189C35.8349 45.5308 34.522 46.0012 33.4221 45.4683C30.679 44.1388 27.7402 43.465 24.6797 43.465C13.5028 43.465 4.40819 52.6769 4.40819 64C4.40819 75.3231 13.5028 84.535 24.6797 84.535C30.2008 84.535 35.361 82.3225 39.2171 78.3049C40.0648 77.4206 41.4603 77.4004 42.3341 78.2595C43.2035 79.1187 43.2253 80.5323 42.3776 81.4166C37.6868 86.3066 31.4006 89 24.6797 89Z" fill="#9D7B8A"/>
<path d="M92.1636 154C90.9687 154 90 153.012 90 151.792C90 150.572 90.9687 149.584 92.1636 149.584C96.0682 149.584 99.5248 149.033 103.677 146.344C104.684 145.691 106.024 145.996 106.664 147.026C107.304 148.056 107.001 149.42 105.994 150.073C100.647 153.533 96.0042 154 92.1636 154Z" fill="#9D7B8A"/>
<path d="M23.204 186.898C23.204 186.898 42.5912 184.961 44.5989 197H62.9846C62.9846 197 64.2191 177 44.5989 177H31.1381C25.919 177 22.0529 181.825 23.204 186.898Z" fill="#76D1D5"/>
<path d="M47.0124 195.093H61.0095C60.7761 192.309 59.8911 187.576 56.6769 184.179C53.9955 181.345 50.1033 179.907 45.1015 179.907H31.6108C29.8672 179.907 28.2469 180.687 27.1593 182.046C26.5033 182.865 26.0983 183.826 25.9618 184.832C27.9871 184.802 30.9944 184.905 34.1073 185.531C42.3893 187.193 45.7443 191.316 47.0124 195.093ZM63.5279 200H45.1015C43.8995 200 42.8736 199.133 42.6798 197.949C41.0684 188.27 24.0729 189.822 23.9011 189.839C22.6727 189.958 21.5368 189.145 21.2638 187.938C20.5505 184.778 21.299 181.514 23.3244 178.983C25.3453 176.452 28.3658 175 31.6108 175H45.1015C51.5254 175 56.6285 176.965 60.2742 180.84C66.5308 187.489 66.0024 197.284 65.9804 197.697C65.8967 198.992 64.8268 200 63.5279 200Z" fill="#62CAC5"/>
<path d="M120 205H58.153C54.2026 205 51 201.699 51 197.627V197H120V205Z" fill="#76D1D5"/>
<path d="M53.2905 199.648C54.0085 201.237 55.678 202.352 57.6162 202.352H117.088V199.648H53.2905ZM119.546 207H57.6162C52.3126 207 48 202.918 48 197.9V197.324C48 196.04 49.1013 195 50.4536 195H119.546C120.903 195 122 196.04 122 197.324V204.676C122 205.959 120.903 207 119.546 207Z" fill="#62CAC5"/>
<path d="M129.155 194C126.793 194 124.73 192.234 124.371 189.777L114.053 118.676C113.66 115.972 115.487 113.455 118.129 113.054C120.771 112.654 123.236 114.519 123.629 117.223L133.947 188.324C134.34 191.027 132.514 193.544 129.871 193.946C129.63 193.982 129.392 194 129.155 194Z" fill="#76D1D5"/>
<path d="M118.595 114.928C118.468 114.928 118.346 114.937 118.219 114.955C116.831 115.157 115.867 116.426 116.075 117.783L126.886 188.947C127.071 190.158 128.152 191.072 129.401 191.072C129.527 191.072 129.654 191.062 129.781 191.044C131.169 190.842 132.133 189.574 131.924 188.216L121.114 117.052C120.929 115.818 119.839 114.928 118.595 114.928ZM129.401 196C125.669 196 122.444 193.279 121.897 189.671L111.082 118.507C110.471 114.461 113.339 110.681 117.482 110.08C121.625 109.482 125.493 112.285 126.108 116.329L136.918 187.492C137.529 191.538 134.661 195.318 130.522 195.919C130.151 195.973 129.772 196 129.401 196Z" fill="#62CAC5"/>
<path d="M147 196.997C147 205.836 141.483 213 134.681 213C132.435 213 128.569 213 126.323 213C119.512 213 114 205.836 114 196.997C114 188.164 119.512 181 126.323 181C128.569 181 132.435 181 134.681 181C141.483 181 147 188.164 147 196.997Z" fill="#65686B"/>
<path d="M134.811 216H126.198C117.818 216 111 207.699 111 197.496C111 196.15 112.119 195.059 113.498 195.059C114.872 195.059 115.991 196.15 115.991 197.496C115.991 205.011 120.571 211.124 126.198 211.124H134.811C140.434 211.124 145.009 205.011 145.009 197.496C145.009 189.986 140.434 183.875 134.811 183.875C133.432 183.875 132.313 182.784 132.313 181.437C132.313 180.091 133.432 179 134.811 179C143.187 179 150 187.297 150 197.496C150 207.699 143.187 216 134.811 216Z" fill="#4F4F52"/>
<path d="M126.372 210C125.06 210 124 208.91 124 207.566C124 206.222 125.06 205.133 126.372 205.133C127.739 205.133 130.247 202.235 130.247 197.5C130.247 192.765 127.739 189.867 126.372 189.867C125.06 189.867 124 188.778 124 187.434C124 186.089 125.06 185 126.372 185C131.533 185 135 191.463 135 197.5C135 203.536 131.533 210 126.372 210Z" fill="#4F4F52"/>
<path d="M114 197C114 176.258 128.875 174.709 134.808 176.595C140.737 178.481 148 184.454 148 191.055C148 197.134 134.916 197.061 128.34 192.367C126.299 190.911 123.886 190.043 121.414 190.235C118.548 190.457 115.351 191.943 114 197Z" fill="#76D1D5"/>
<path d="M121.903 188.185C124.57 188.185 127.254 189.077 129.717 190.792C134.181 193.902 141.854 194.526 145 192.855C146.052 192.296 146.052 191.782 146.052 191.535C146.052 186.554 139.826 181.15 134.235 179.416C131.381 178.531 125.444 178.829 121.179 182.264C118.961 184.047 117.447 186.447 116.64 189.437C117.922 188.753 119.387 188.341 121.002 188.219C121.304 188.196 121.601 188.185 121.903 188.185ZM113.564 200C113.485 200 113.4 199.996 113.32 199.988C112.122 199.868 111.181 198.895 111.093 197.681C110.325 186.985 114.474 181.267 118.095 178.353C124.13 173.493 131.923 173.467 135.686 174.636C142.045 176.609 151 183.156 151 191.535C151 193.975 149.686 196.016 147.299 197.282C142.253 199.961 132.535 198.829 126.908 194.91C125.652 194.036 123.673 193.033 121.375 193.205C118.539 193.42 116.817 194.996 115.947 198.166C115.65 199.258 114.665 200 113.564 200Z" fill="#62CAC5"/>
<path d="M96.155 103C111.157 103 106.388 117.124 99.1 116.999C93.8861 116.91 91 109.956 91 109.956" fill="#BE9AAA"/>
<path d="M99.1449 119C99.101 119 99.0572 119 99.0133 118.999C92.6024 118.889 89.3092 111.191 89.1732 110.864C88.6996 109.727 89.2302 108.418 90.3616 107.94C91.4973 107.463 92.7997 107.998 93.2732 109.136C93.2952 109.183 95.6368 114.474 99.0922 114.533C100.728 114.564 101.622 113.334 101.934 112.805C102.556 111.748 102.907 110.064 102.026 108.508C100.912 106.546 98.1713 105.466 94.3081 105.466C93.0803 105.466 92.0849 104.466 92.0849 103.233C92.0849 102 93.0803 101 94.3081 101C101.771 101 104.766 104.319 105.889 106.297C107.415 108.99 107.367 112.356 105.758 115.082C104.306 117.542 101.842 119 99.1449 119Z" fill="#9D7B8A"/>
<path d="M136 109.946C136 109.946 136.091 110.178 136.285 110.564C137.132 112.263 139.839 116.922 144.086 116.999C147.527 117.059 149.963 113.902 149.999 110.564C150.026 106.84 149.221 103 141.333 103" fill="#BE9AAA"/>
<path d="M144.145 119C144.101 119 144.057 119 144.013 118.999C138.753 118.904 135.619 113.793 134.519 111.599C134.304 111.176 134.186 110.895 134.164 110.844C133.703 109.702 134.247 108.398 135.382 107.932C136.517 107.467 137.811 108.011 138.275 109.148C138.293 109.185 138.359 109.339 138.481 109.576C138.893 110.402 141.094 114.479 144.092 114.533C145.148 114.549 145.859 114.052 146.293 113.63C147.073 112.867 147.542 111.723 147.555 110.569C147.559 109.789 147.353 108.634 146.336 107.606C144.956 106.207 142.527 105.467 139.31 105.467C138.082 105.467 137.087 104.467 137.087 103.233C137.087 102 138.082 101 139.31 101C144.899 101 147.932 102.881 149.492 104.458C151.123 106.111 152.017 108.295 152 110.608C151.973 112.968 151.027 115.233 149.392 116.831C147.958 118.233 146.1 119 144.145 119Z" fill="#9D7B8A"/>
<path d="M37.6269 200H35.3774C34.0651 200 33 198.881 33 197.5C33 196.119 34.0651 195 35.3774 195H37.6269C38.9391 195 40 196.119 40 197.5C40 198.881 38.9391 200 37.6269 200Z" fill="#4F4F52"/>
<path d="M125.286 200H122.714C121.213 200 120 198.881 120 197.5C120 196.119 121.213 195 122.714 195H125.286C126.787 195 128 196.119 128 197.5C128 198.881 126.787 200 125.286 200Z" fill="#4F4F52"/>
</svg>
