<svg width="55" height="48" viewBox="0 0 55 48" fill="none" xmlns="http://www.w3.org/2000/svg">
<path d="M38.2857 1.84612H15.2535C7.33906 1.84612 0.923096 8.24413 0.923096 16.1372V23.51C0.923096 30.1536 5.4689 35.7374 11.6276 37.3388C9.51565 40.4527 7.35911 44.7226 10.4181 45.8817C14.3019 47.3529 22.7258 42.6009 26.9386 37.8011H38.2857C46.1994 37.8011 52.6154 31.4031 52.6154 23.51V16.1372C52.6154 8.24413 46.1994 1.84612 38.2857 1.84612Z" fill="white"/>
<path d="M15.7789 3.10652C8.76406 3.10652 3.05679 8.90669 3.05679 16.0357V23.5071C3.05679 29.3902 6.96407 34.5351 12.5589 36.0181C13.0384 36.1455 13.428 36.5009 13.6029 36.9726C13.7784 37.4443 13.7166 37.9735 13.4389 38.391C11.3072 41.5942 10.8 43.5444 11.0359 44.3022C11.0674 44.4041 11.1201 44.574 11.5129 44.7256C14.3929 45.8355 22.1059 41.7765 26.2491 36.9661C26.5397 36.6296 26.9589 36.4363 27.3992 36.4363H38.6833C45.6981 36.4363 51.4048 30.6361 51.4048 23.5071V16.0357C51.4048 8.90669 45.6981 3.10652 38.6833 3.10652H15.7789ZM12.6064 48C11.8189 48 11.0854 47.8837 10.4278 47.6296C9.26615 47.1814 8.469 46.3549 8.12186 45.2397C7.59279 43.5411 8.154 41.2819 9.83764 38.3668C3.95614 35.943 0 30.0984 0 23.5071V16.0357C0 7.19369 7.07849 -2.16419e-06 15.7789 -2.16419e-06H38.6833C47.383 -2.16419e-06 54.4615 7.19369 54.4615 16.0357V23.5071C54.4615 32.3491 47.383 39.5421 38.6833 39.5421H28.0755C24.3707 43.5516 17.4677 47.9993 12.6064 48Z" fill="#E2E2E2"/>
<path d="M23.7964 33.068C21.6184 30.8218 23.1504 26.5798 26.3229 26.686C28.3345 26.6388 29.9361 28.3405 29.8997 30.4147C30.0161 33.7262 25.9567 35.4001 23.7964 33.068ZM24.7553 24.3025C24.3987 23.8667 24.2209 23.2515 24.2209 22.4575C24.2071 19.9863 25.1741 18.7018 26.7288 16.9597C27.9035 15.6575 29.2561 13.885 27.8348 12.4235C26.2744 11.2933 24.254 12.2482 22.6718 13.1922L21.7865 13.6532C20.3208 14.4784 19.2455 14.8155 18.1912 13.5571C17.2008 12.2785 17.3051 10.1125 18.7264 9.15583C22.0671 6.59445 27.2284 5.59317 31.0429 7.32941C34.2833 8.66868 36.0765 12.4766 34.4911 15.7679C33.5929 17.6137 32.5604 18.3394 31.0057 19.843C29.7275 21.0137 28.7185 21.7091 28.3142 23.1874C28.1323 24.9295 25.7715 25.5532 24.7553 24.3025Z" fill="#95E0E8"/>
</svg>
