<svg width="50" height="50" viewBox="0 0 50 50" fill="none" xmlns="http://www.w3.org/2000/svg">
<path d="M29.3853 50H20.9588C20.0307 50 19.1798 49.4575 18.7504 48.5925L17.8108 46.699V45.9353H32.7728L32.9272 46.699L31.4039 48.9153C30.9357 49.5966 30.1847 50 29.3853 50Z" fill="#D0DBEE"/>
<path d="M32.9272 46.699L31.4039 48.9153C30.9354 49.5966 30.1847 50 29.385 50H20.9585C20.3174 50 19.7133 49.7412 19.2593 49.2962C19.4453 49.3426 19.6383 49.367 19.8345 49.367H28.261C29.0607 49.367 29.8114 48.9635 30.2799 48.2823L31.8032 46.066L31.7769 45.9356H32.7728L32.9272 46.699Z" fill="#BDCBE4"/>
<path d="M33.0464 46.6991H17.4189C16.3635 46.6991 15.5081 45.8437 15.5081 44.789C15.5081 43.7341 16.3635 42.879 17.4189 42.879L17.4795 42.2325H32.4879L33.0464 42.879C34.1015 42.879 34.957 43.7341 34.957 44.789C34.957 45.8437 34.1015 46.6991 33.0464 46.6991Z" fill="#BDCBE4"/>
<path d="M34.957 44.789C34.957 45.3165 34.7431 45.7939 34.3974 46.1397C34.0514 46.4853 33.5739 46.6991 33.0462 46.6991H17.4189C16.8676 46.6991 16.3708 46.4658 16.0221 46.0923C16.1435 46.1167 16.2692 46.1293 16.3978 46.1293H32.0251C32.5528 46.1293 33.0303 45.9155 33.3763 45.5699C33.7221 45.2244 33.9359 44.7467 33.9359 44.2192C33.9359 43.7153 33.7408 43.257 33.4219 42.9159C34.2975 43.0903 34.957 43.8627 34.957 44.789Z" fill="#9DAFC8"/>
<path d="M33.0464 42.8789H17.4189C16.3635 42.8789 15.5081 42.0235 15.5081 40.9688C15.5081 39.9139 16.3635 39.0588 17.4189 39.0588L17.8107 38.5768H32.9272L33.0464 39.0588C34.1015 39.0588 34.957 39.9139 34.957 40.9688C34.957 42.0235 34.1015 42.8789 33.0464 42.8789Z" fill="#D0DBEE"/>
<path d="M34.9571 40.9688C34.9571 41.4963 34.7432 41.9737 34.3975 42.3195C34.0515 42.6651 33.5739 42.8789 33.0462 42.8789H17.419C16.8484 42.8789 16.336 42.629 15.986 42.2325H31.0164C31.544 42.2325 32.0216 42.0187 32.3676 41.6729C32.7133 41.3273 32.9272 40.8496 32.9272 40.3224C32.9272 39.5439 32.4614 38.8742 31.793 38.5768H32.9272L33.0462 39.0588C34.1016 39.0588 34.9571 39.9139 34.9571 40.9688Z" fill="#BDCBE4"/>
<path d="M42.4651 17.2257C42.4651 21.2717 41.0697 24.9919 38.7335 27.9314C36.5337 30.6996 35.195 34.0391 34.8927 37.5375C34.8182 38.3993 34.0917 39.0588 33.226 39.0588H17.2394C16.3737 39.0588 15.6469 38.3993 15.5724 37.5375C15.4432 36.0405 15.124 34.5725 14.6288 33.166C13.9668 31.2857 12.9902 29.5149 11.7317 27.9314C9.39549 24.9919 8 21.2717 8 17.2254C8 7.72253 15.6986 0.016643 25.202 0.000301608C34.7167 -0.0163076 42.4651 7.71476 42.4651 17.2257Z" fill="#FFE4A9"/>
<path d="M18.1645 41.0929H16.0221C16.0221 40.1997 16.7465 39.4759 17.64 39.4759H18.1645V41.0929Z" fill="white"/>
<path d="M18.1645 45.152H16.0221C16.0221 44.2588 16.7465 43.535 17.64 43.535H18.1645V45.152Z" fill="white"/>
<path d="M42.4652 17.2257C42.4652 21.2717 41.0697 24.9919 38.7335 27.9314C36.5335 30.6996 35.1951 34.0394 34.8927 37.5375C34.8182 38.3996 34.0914 39.0588 33.226 39.0588H17.2391C16.3738 39.0588 15.6469 38.3996 15.5724 37.5375C15.443 36.0405 15.1241 34.5725 14.6288 33.166C13.9668 31.2857 12.9902 29.5149 11.7317 27.9314C15.9265 33.2518 24.1113 33.3195 27.475 33.0972C28.3299 33.0407 29.0843 32.5185 29.4389 31.739C31.4232 27.3756 36.3823 23.2476 36.3823 16.0738C36.3823 8.24036 33.8207 2.3856 25.2323 0.000298213C34.7333 0.000298213 42.4652 7.72494 42.4652 17.2257Z" fill="#FFE4A9"/>
<path d="M42.4651 17.2257C42.4651 21.2717 41.0697 24.9919 38.7335 27.9314C36.5334 30.6996 35.195 34.0394 34.8927 37.5375C34.8182 38.3996 34.0914 39.0588 33.226 39.0588H17.2391C16.3737 39.0588 15.6469 38.3996 15.5724 37.5375C15.443 36.0405 15.1241 34.5725 14.6288 33.166C14.4248 32.5866 14.1911 32.0179 13.9282 31.4617C16.955 36.1962 26.4793 35.8428 29.8996 35.4884C30.7242 35.4029 31.4256 34.8441 31.6847 34.057C33.4104 28.8131 39.4458 23.4086 39.4458 16.7148C39.4458 12.0187 37.1683 0.0203901 25.2323 0.000298213C34.7333 0.000298213 42.4651 7.72494 42.4651 17.2257Z" fill="#F9CB71"/>
<path d="M42.4651 17.2254C42.4651 21.2717 41.0697 24.9919 38.7335 27.9314C36.5334 30.6996 35.195 34.0394 34.8927 37.5375C34.8182 38.3996 34.0914 39.0588 33.226 39.0588H17.2391C16.3737 39.0588 15.6469 38.3996 15.5724 37.5375C15.443 36.0405 15.1241 34.5725 14.6288 33.166C14.4248 32.5866 14.1911 32.0179 13.9282 31.4617C16.955 36.1959 26.4793 35.8428 29.8996 35.4884C30.7242 35.4029 31.4256 34.8441 31.6847 34.0568C33.4104 28.8131 39.4458 23.4086 39.4458 16.7146C39.4458 12.0187 37.1683 0.020118 25.2323 2.61362e-05C34.7333 2.61362e-05 42.4651 7.72467 42.4651 17.2254Z" fill="#F9CB71"/>
<path d="M23.284 15.5958C18.7145 21.1607 17.6109 27.8052 13.054 24.0668C8.49746 20.3284 8.50737 12.7864 13.0766 7.22152C17.6457 1.65688 25.0439 0.176512 29.6008 3.91493C34.1574 7.65336 27.8532 10.0312 23.284 15.5958Z" fill="#FFE4A9"/>
<path d="M19.5359 7.85377C16.7184 9.92671 15.149 12.5778 14.2083 11.3002C13.2679 10.0229 14.7898 7.307 17.6074 5.23406C20.4254 3.16166 23.4718 2.51684 24.4125 3.79441C25.3529 5.07199 22.354 5.78136 19.5359 7.85377Z" fill="white"/>
<path d="M13.4632 14.3215C13.0192 15.1433 12.5858 15.7702 11.9541 15.4292C11.3222 15.0882 11.1699 14.1454 11.614 13.3236C12.0578 12.5014 12.9299 12.1116 13.5619 12.4526C14.1938 12.7937 13.9071 13.4996 13.4632 14.3215Z" fill="white"/>
<path d="M22.9954 30.1374C21.2568 28.3529 22.4798 24.9829 25.0122 25.0672C26.6179 25.0298 27.8964 26.3816 27.8673 28.0295C27.9602 30.6603 24.7198 31.9901 22.9954 30.1374ZM23.7608 23.1737C23.4762 22.8275 23.3342 22.3387 23.3342 21.7079C23.3232 19.7447 24.0951 18.7243 25.3362 17.3402C26.2739 16.3057 27.3536 14.8976 26.219 13.7365C24.9735 12.8386 23.3607 13.5972 22.0977 14.3472L21.391 14.7134C20.221 15.369 19.3626 15.6368 18.521 14.6371C17.7305 13.6213 17.8137 11.9005 18.9483 11.1405C21.615 9.10562 25.735 8.31016 28.7798 9.68951C31.3665 10.7535 32.7979 13.7787 31.5324 16.3934C30.8154 17.8598 29.9912 18.4363 28.7502 19.6309C27.7298 20.5609 26.9244 21.1133 26.6017 22.2878C26.4565 23.6718 24.572 24.1673 23.7608 23.1737Z" fill="#F4A200"/>
</svg>
