<svg width="97" height="131" viewBox="0 0 97 131" fill="none" xmlns="http://www.w3.org/2000/svg">
<path d="M80.0365 69.6494C79.8937 69.6494 79.7481 69.6247 79.6057 69.5724C78.9584 69.3343 78.6268 68.6166 78.8649 67.9693L81.4317 60.989C82.1185 59.1219 83.5994 57.7057 85.4952 57.1035L89.6469 55.7848C90.3058 55.5761 91.0063 55.9398 91.2154 56.5969C91.4241 57.2543 91.0603 57.9565 90.403 58.1652L86.2513 59.4841C85.0964 59.8508 84.1942 60.7135 83.7757 61.851L81.2086 68.8313C81.0231 69.3363 80.545 69.6494 80.0365 69.6494Z" fill="#DADBD8"/>
<path d="M95.0194 56.9759C95.0194 54.3893 93.2724 52.2924 91.1177 52.2924C88.9626 52.2924 87.2159 54.3893 87.2159 56.9759C87.2159 59.5624 88.9626 61.6593 91.1177 61.6593C93.2724 61.6593 95.0194 59.5624 95.0194 56.9759Z" fill="white"/>
<path d="M91.1174 53.5413C89.6547 53.5413 88.4649 55.0821 88.4649 56.9759C88.4649 58.8699 89.6547 60.4104 91.1174 60.4104C92.5804 60.4104 93.7705 58.8699 93.7705 56.9759C93.7705 55.0821 92.5804 53.5413 91.1174 53.5413ZM91.1174 62.9082C88.2776 62.9082 85.9671 60.2469 85.9671 56.9759C85.9671 53.7048 88.2776 51.0435 91.1174 51.0435C93.9575 51.0435 96.268 53.7048 96.268 56.9759C96.268 60.2469 93.9575 62.9082 91.1174 62.9082Z" fill="#DADBD8"/>
<path d="M75.8736 123.934C76.3662 118.636 59.7832 112.761 38.8343 110.813C17.8855 108.864 0.50353 111.58 0.010706 116.878C-0.482118 122.176 16.1009 128.05 37.0497 130C57.9989 131.949 75.3808 129.232 75.8736 123.934Z" fill="#DBBFCA"/>
<path d="M57.2552 103.255C57.2552 98.8029 53.2214 95.1934 48.2455 95.1934C43.2697 95.1934 39.2361 98.8029 39.2361 103.255C39.2361 107.708 43.2697 111.317 48.2455 111.317C53.2214 111.317 57.2552 107.708 57.2552 103.255Z" fill="#89D59B"/>
<path d="M48.7942 94.2849C44.1513 94.2849 46.4769 89.0204 46.4769 89.0204C43.4713 90.4256 37.7339 92.1543 30.4752 89.8079C19.6054 86.2968 23.3157 66.1658 28.025 59.0564L59.4334 55.977C59.4334 55.977 58.6783 63.1951 61.8352 68.7546C64.8245 74.0183 61.5318 82.2126 63.026 84.8913C66.2885 90.7449 53.4372 94.2849 48.7942 94.2849Z" fill="#BE9AAA"/>
<path d="M61.8346 67.1487C61.6601 67.1487 61.4834 67.1118 61.3146 67.0345C59.7489 66.3161 58.7643 64.8827 58.4674 62.8895C58.2665 61.5399 58.4519 60.402 58.4739 60.2766C58.592 59.597 59.2404 59.1426 59.9182 59.2605C60.5965 59.3784 61.0509 60.0231 60.935 60.7013C60.9258 60.7584 60.4367 63.8836 62.3561 64.7643C62.9831 65.052 63.258 65.7934 62.9703 66.4203C62.7602 66.8785 62.3075 67.1487 61.8346 67.1487Z" fill="#9D7B8A"/>
<path d="M22.6765 118.606H26.9232C33.2015 118.606 38.2913 113.715 38.2913 107.681C38.2913 101.647 33.2015 96.7561 26.9232 96.7561H22.6765C16.3979 96.7561 11.3082 101.647 11.3082 107.681C11.3082 113.715 16.3979 118.606 22.6765 118.606Z" fill="#65686B"/>
<path d="M22.6765 113.97C21.9867 113.97 21.4276 113.412 21.4276 112.722C21.4276 112.032 21.9867 111.473 22.6765 111.473C25.0117 111.473 26.9117 109.772 26.9117 107.681C26.9117 105.59 25.0117 103.889 22.6765 103.889C21.9867 103.889 21.4276 103.33 21.4276 102.64C21.4276 101.95 21.9867 101.391 22.6765 101.391C26.389 101.391 29.4093 104.213 29.4093 107.681C29.4093 111.149 26.389 113.97 22.6765 113.97Z" fill="#4F4F52"/>
<path d="M22.6765 98.0046C17.0964 98.0046 12.557 102.345 12.557 107.681C12.557 113.016 17.0964 117.357 22.6765 117.357H26.9232C32.503 117.357 37.0424 113.016 37.0424 107.681C37.0424 102.345 32.503 98.0046 26.9232 98.0046H22.6765ZM26.9232 119.855H22.6765C15.7194 119.855 10.0595 114.393 10.0595 107.681C10.0595 100.968 15.7194 95.5071 22.6765 95.5071H26.9232C33.8801 95.5071 39.5402 100.968 39.5402 107.681C39.5402 114.393 33.8801 119.855 26.9232 119.855Z" fill="#4F4F52"/>
<path d="M35.0576 90.815C40.6455 91.2139 43.0353 93.5055 41.8111 98.8193C39.6262 108.303 45.5567 111.737 49.2254 110.176C52.894 108.615 51.242 102.919 51.242 102.919C50.1387 90.2773 53.2821 75.0098 63.3946 75.0098H64.4952C74.6077 75.0098 77.7511 90.2773 76.6475 102.919L59.3102 110.117C59.3102 110.117 55.155 114.273 46.3761 113.453C40.8456 112.937 26.3496 109.538 16.379 107.094C8.73084 105.219 5.34964 96.2351 9.87704 89.792C10.924 88.3015 12.1148 86.9265 13.3664 85.6749" fill="#89D59B"/>
<path d="M34.4452 108.93C33.7557 108.93 33.1966 108.371 33.1966 107.681C33.1966 99.1805 23.7464 94.2348 20.8501 92.9214C20.2219 92.6364 19.9434 91.8963 20.2284 91.2682C20.5133 90.6402 21.2531 90.3615 21.8816 90.6467C25.1219 92.1159 35.6941 97.6868 35.6941 107.681C35.6941 108.371 35.135 108.93 34.4452 108.93Z" fill="#75CD8B"/>
<path d="M48.6366 114.809C47.8825 114.809 47.0906 114.774 46.26 114.697C40.7671 114.184 26.8173 110.939 16.0816 108.307C12.0854 107.327 8.83608 104.441 7.39026 100.587C5.94619 96.7383 6.49411 92.4345 8.85503 89.0737C9.88056 87.6147 11.1013 86.1739 12.4833 84.7919C12.9711 84.3043 13.7616 84.3043 14.2494 84.7919C14.737 85.2795 14.737 86.0702 14.2494 86.558C12.9689 87.8386 11.8416 89.168 10.8989 90.5098C8.98415 93.2349 8.55763 96.588 9.72874 99.7095C10.9018 102.836 13.4343 105.086 16.6764 105.881C31.7363 109.573 42.3249 111.821 46.4921 112.21C50.6892 112.601 53.7114 111.77 55.508 111.003C57.4516 110.174 58.4228 109.238 58.4325 109.229C58.9241 108.75 59.7136 108.754 60.1959 109.243C60.6785 109.731 60.6788 110.515 60.1932 111C60.0234 111.17 56.2877 114.809 48.6366 114.809Z" fill="#75CD8B"/>
<path d="M45.9422 93.6386C45.0717 94.534 42.3478 97.1457 36.0964 96.7561C29.3018 96.333 14.1871 89.1075 13.3665 85.6749C12.5498 82.2383 16.998 77.5579 23.3987 77.5579L23.4151 77.5661C23.6183 83.2208 25.5502 88.2163 30.4752 89.8079C37.0417 91.9305 42.3563 90.72 45.5401 89.4268L45.9422 93.6386Z" fill="#65686B"/>
<path d="M37.3301 98.0439C36.9001 98.0439 36.4624 98.03 36.0172 98.0021C32.0427 97.755 26.1427 95.4981 21.9469 93.4682C18.5677 91.8334 12.8016 88.6848 12.1527 85.9644C11.7487 84.2688 12.2704 82.3932 13.621 80.6827C15.7513 77.9855 19.4982 76.3099 23.3994 76.3099C24.0892 76.3099 24.6483 76.869 24.6483 77.5585C24.6483 78.2482 24.0892 78.8074 23.3994 78.8074C19.6283 78.8074 16.8883 80.5758 15.5811 82.2307C14.7265 83.3128 14.3623 84.4628 14.5822 85.3853C14.7642 86.1479 17.2201 88.4068 23.0345 91.2199C28.0383 93.6404 33.1956 95.3243 36.173 95.5093C38.0124 95.6247 39.6838 95.4701 41.1408 95.0501C41.8039 94.8592 42.4956 95.2413 42.6866 95.9041C42.8778 96.567 42.4954 97.259 41.8326 97.4502C40.4623 97.845 38.9524 98.0439 37.3301 98.0439Z" fill="#4F4F52"/>
<path d="M71.6196 38.6435C71.6488 52.7756 70.1232 56.1254 65.2478 58.592C64.6136 58.9153 63.9214 59.2222 63.1668 59.537C57.6989 61.8214 34.8528 63.5833 24.7999 57.5183C28.2157 52.556 26.0891 42.9425 26.0891 36.1604C26.0891 30.8957 30.3964 24.0263 49.466 24.0263C55.5431 24.0263 71.5864 22.6665 71.6196 38.6435Z" fill="#BE9AAA"/>
<path d="M59.4334 55.977C52.2646 57.3218 45.0959 57.3076 37.9269 55.9336C33.5276 55.0905 30.026 51.9534 28.9371 47.9068C28.3673 45.7897 28.0644 43.6728 28.0283 41.5557C27.8872 33.2665 34.68 26.339 43.5643 25.5194C47.1681 25.1871 50.7722 25.1983 54.376 25.553C62.946 26.3966 69.5633 33.1244 69.5633 41.1267C69.5633 43.2952 69.2834 45.4634 68.7235 47.6319C67.6309 51.8631 64.0266 55.115 59.4334 55.977Z" fill="#FBEAB0"/>
<path d="M38.664 40.4983C38.664 41.6439 37.7197 42.5728 36.5546 42.5728C35.3897 42.5728 34.4454 41.6439 34.4454 40.4983C34.4454 39.3526 35.3897 38.4238 36.5546 38.4238C37.7197 38.4238 38.664 39.3526 38.664 40.4983Z" fill="#4F4F52"/>
<path d="M65.1349 40.4983C65.1349 41.6439 64.1904 42.5728 63.0255 42.5728C61.8603 42.5728 60.9161 41.6439 60.9161 40.4983C60.9161 39.3526 61.8603 38.4238 63.0255 38.4238C64.1904 38.4238 65.1349 39.3526 65.1349 40.4983Z" fill="#4F4F52"/>
<path d="M65.534 26.584C65.4883 28.5035 64.3235 30.3688 60.3811 31.0404C51.1738 32.5991 38.0655 29.175 32.9166 26.8203C36.4903 25.1414 41.7757 24.0262 49.466 24.0262C53.1057 24.0262 60.3273 23.5371 65.534 26.584Z" fill="#65686B"/>
<path d="M70.4632 52.3777C69.4972 55.7066 67.8513 57.2778 65.248 58.592C64.6136 58.9153 63.9214 59.2221 63.1668 59.5372C57.6989 61.8214 34.8528 63.5833 24.7999 57.5183C25.5502 56.428 26.035 55.1098 26.3294 53.6463C26.3294 53.6463 33.0163 55.7108 38.2023 55.7108C43.3886 55.7108 45.4032 52.2907 49.2254 52.2907C53.0476 52.2907 54.739 56.4487 59.386 55.4952C63.1875 54.8942 66.9559 53.8993 70.4632 52.3777Z" fill="#65686B"/>
<path d="M78.1736 44.3519C78.1736 62.696 71.1926 61.2325 65.2478 58.5919C67.8512 57.2777 69.497 55.7065 70.4629 52.3777C71.3087 49.4758 71.632 45.2309 71.6196 38.6434C71.5864 22.6664 55.5431 24.0262 49.4657 24.0262C30.3961 24.0262 26.0891 30.8956 26.0891 36.1604C26.0891 41.45 27.3824 48.4642 26.3294 53.6462C26.035 55.1095 25.5502 56.4279 24.7996 57.5183C24.0328 58.6375 22.9841 59.5205 21.562 60.0801C13.8388 63.1231 7.51688 48.5473 7.51688 39.6343C7.51688 29.718 9.03424 5.49562 35.2962 1.86413C43.0857 0.786249 58.5155 0.317859 66.9184 7.63892C74.7994 14.508 78.1736 21.7588 78.1736 44.3519Z" fill="#F360A5"/>
<path d="M43.7999 1.25138C54.3331 3.17381 53.2822 23.9973 53.2822 23.9973L46.4761 24.0875C46.4761 18.1739 45.824 1.06093 30.4737 2.82856" fill="white"/>
<path d="M55.2574 32.6819C46.4833 32.6819 36.5745 29.8663 32.3974 27.9561C31.7702 27.6691 32.8089 25.398 33.4364 25.6846C38.0996 27.8175 51.1476 31.3373 60.1727 29.8092C64.2247 29.1189 64.2706 27.1888 64.2853 26.5544C64.3018 25.8751 66.7988 25.9242 66.7826 26.6137C66.7322 28.7221 65.6175 31.4153 60.591 32.2716C58.9069 32.5567 57.1068 32.6819 55.2574 32.6819Z" fill="#4F4F52"/>
<path d="M38.2036 56.9576C32.889 56.9576 26.242 54.926 25.9615 54.8395C25.3024 54.6364 24.933 53.9374 25.1362 53.2783C25.3393 52.6195 26.0381 52.2498 26.6974 52.4529C26.7627 52.4729 33.2696 54.4599 38.2036 54.4599C40.6854 54.4599 42.3768 53.566 44.0125 52.7015C45.5551 51.8863 47.1499 51.0435 49.2254 51.0435C51.2743 51.0435 52.7993 52.0127 54.1447 52.868C55.6825 53.8454 57.0122 54.6902 59.0894 54.2821C59.1196 54.2747 59.15 54.2684 59.1806 54.2634C63.1499 53.6358 66.7749 52.6165 69.9661 51.232C70.5993 50.9573 71.3344 51.2479 71.6089 51.8806C71.8831 52.5135 71.5929 53.2489 70.9603 53.5233C67.59 54.9853 63.7786 56.061 59.6321 56.7206C56.5413 57.351 54.47 56.0341 52.8051 54.9759C51.5938 54.2061 50.5476 53.5413 49.2254 53.5413C47.7694 53.5413 46.5691 54.1754 45.1797 54.9098C43.3634 55.8695 41.3049 56.9576 38.2036 56.9576Z" fill="#4F4F52"/>
<path d="M42.4463 108.657C42.0086 108.657 41.5838 108.427 41.3549 108.018C40.4037 106.316 39.4996 103.29 40.5964 98.5396C40.808 97.6115 40.8998 96.7912 40.8684 96.1042C40.8369 95.4152 41.3699 94.8311 42.0589 94.7994C42.7462 94.77 43.3317 95.301 43.3634 95.99C43.4055 96.9146 43.2968 97.9314 43.0308 99.098C42.1125 103.076 42.7983 105.481 43.5351 106.799C43.8717 107.401 43.6565 108.162 43.0545 108.498C42.8616 108.606 42.6524 108.657 42.4463 108.657Z" fill="#75CD8B"/>
<path d="M38.664 85.6749C45.2292 83.7225 46.7675 81.657 50.7854 85.6749C54.803 89.6928 50.2208 101.046 44.7319 101.046C39.2433 101.046 42.3812 90.4226 42.3812 90.4226" fill="#BE9AAA"/>
<path d="M44.7322 102.294C43.3237 102.294 42.1681 101.743 41.3898 100.702C40.3508 99.3116 40.0136 97.0633 40.3872 94.0197C40.6475 91.897 41.1623 90.1414 41.1839 90.0676C41.1889 90.0509 41.1942 90.0342 41.1999 90.0177L41.9961 87.6872C42.2192 87.0346 42.9286 86.6864 43.5815 86.9095C44.2341 87.1323 44.5826 87.8423 44.3595 88.4949L43.5723 90.7995C42.8658 93.2137 42.196 97.61 43.3913 99.2079C43.5962 99.4818 43.9337 99.7962 44.7322 99.7962C46.5566 99.7962 48.6566 97.8264 49.9578 94.8944C50.2377 94.2639 50.9756 93.9798 51.6058 94.2595C52.2362 94.5391 52.5204 95.277 52.2404 95.9074C50.8704 98.9947 48.1784 102.294 44.7322 102.294Z" fill="#9D7B8A"/>
<path d="M52.054 89.2241C51.5013 89.2241 50.996 88.8547 50.8477 88.2953C50.6575 87.5794 50.3397 86.9948 49.9027 86.5578C46.4313 83.0864 44.0315 83.4219 37.5108 85.3628C36.85 85.5597 36.1543 85.1831 35.9576 84.5222C35.7609 83.8611 36.1371 83.1657 36.7984 82.969C43.2196 81.0575 47.0766 80.1997 51.6688 84.7917C52.4212 85.5443 52.9571 86.5072 53.2617 87.6544C53.4387 88.3212 53.0419 89.005 52.3753 89.182C52.2679 89.2104 52.1599 89.2241 52.054 89.2241Z" fill="#9D7B8A"/>
<path d="M39.7277 80.5303C37.8179 80.5303 35.8855 80.1526 33.9843 79.3973C28.9037 77.3789 26.7173 71.3097 28.543 64.2945C28.717 63.6269 29.3988 63.2271 30.0661 63.4004C30.7337 63.5741 31.1338 64.2561 30.9603 64.9237C29.7174 69.6986 30.4555 75.3079 34.9064 77.076C41.1595 79.5601 46.4582 76.8519 49.3321 73.4894C50.9569 71.5884 51.2286 70.0808 51.0631 69.8008C50.482 69.2213 47.7701 70.0778 45.9758 70.6446C42.8489 71.6323 39.3044 72.752 36.7989 71.2486C36.2073 70.8937 36.0156 70.1266 36.3704 69.5351C36.7251 68.9438 37.4921 68.7519 38.0837 69.1068C39.6249 70.0314 42.5993 69.0919 45.2235 68.2628C48.2846 67.2961 51.1755 66.383 52.8384 68.0462C54.0355 69.2429 53.8101 71.3867 52.2357 73.7803C50.6456 76.1983 48.1079 78.2549 45.2741 79.4225C43.482 80.1611 41.6159 80.5303 39.7277 80.5303Z" fill="#9D7B8A"/>
<path d="M43.6695 69.6003C43.5818 69.6003 43.493 69.5911 43.404 69.5717C42.7325 69.4256 42.3047 68.7675 42.4473 68.0952C42.795 66.4574 44.3398 63.3602 47.6974 63.3602C48.3871 63.3602 48.9462 63.9193 48.9462 64.609C48.9462 65.2988 48.3871 65.8579 47.6974 65.8579C46.8142 65.8579 46.1134 66.266 45.5548 67.1061C45.067 67.8392 44.891 68.6122 44.8892 68.6199C44.7594 69.2017 44.2424 69.6003 43.6695 69.6003Z" fill="#9D7B8A"/>
<path d="M58.6783 68.3548H43.6687C42.1185 68.3548 40.8614 70.1363 40.8614 72.3345C40.8614 74.5324 42.1185 76.3142 43.6687 76.3142H57.0744" fill="#65686B"/>
<path d="M47.4112 111.789C46.6681 111.789 45.9128 111.653 45.1789 111.382C43.5768 110.79 42.2546 109.626 41.3549 108.018C41.0184 107.416 41.2336 106.655 41.8356 106.318C42.4376 105.982 43.1984 106.197 43.5351 106.799C44.8384 109.13 47.1876 109.686 48.7361 109.026C51.3376 107.921 50.0535 103.313 50.0403 103.266C50.0184 103.19 50.0032 103.108 49.9962 103.029C49.5709 98.1525 49.7908 93.0889 50.6154 88.7706C51.5649 83.8 53.3019 79.8253 55.6384 77.2761C57.7769 74.9426 60.3869 73.7596 63.3949 73.7596C64.0847 73.7596 64.6438 74.3187 64.6438 75.0085C64.6438 75.6982 64.0847 76.2571 63.3949 76.2571C61.1157 76.2571 59.1255 77.1677 57.4795 78.9638C53.5701 83.2289 51.6093 92.535 52.4743 102.695C53.1755 105.232 53.3557 109.777 49.7137 111.324C48.9874 111.634 48.2061 111.789 47.4112 111.789Z" fill="#75CD8B"/>
<path d="M76.649 104.167C76.6126 104.167 76.576 104.166 76.5391 104.163C75.8521 104.103 75.3436 103.497 75.4034 102.81C76.2943 92.6057 74.3348 83.2461 70.4111 78.965C68.7651 77.1692 66.7749 76.2586 64.4952 76.2586C63.8055 76.2586 63.2463 75.6994 63.2463 75.0097C63.2463 74.3199 63.8055 73.7608 64.4952 73.7608C67.5038 73.7608 70.1137 74.9441 72.2525 77.2776C74.5885 79.8265 76.325 83.801 77.2737 88.7713C78.0979 93.0886 78.3172 98.1514 77.8917 103.027C77.8351 103.677 77.2897 104.167 76.649 104.167Z" fill="#75CD8B"/>
<path d="M57.0742 77.5627H43.669C41.3946 77.5627 39.6128 75.2661 39.6128 72.3344C39.6128 69.4024 41.3946 67.1058 43.669 67.1058H58.6783C59.3681 67.1058 59.927 67.6649 59.927 68.3547C59.927 69.0444 59.3681 69.6033 58.6783 69.6033H43.669C42.9332 69.6033 42.1103 70.7714 42.1103 72.3344C42.1103 73.8974 42.9332 75.0652 43.669 75.0652H57.0742C57.7642 75.0652 58.3231 75.6244 58.3231 76.3141C58.3231 77.0039 57.7642 77.5627 57.0742 77.5627Z" fill="#4F4F52"/>
<path d="M67.0815 68.3548H82.0908C83.6413 68.3548 84.8982 70.1363 84.8982 72.3345C84.8982 74.5324 83.6413 76.3142 82.0908 76.3142H68.6853" fill="#65686B"/>
<path d="M82.091 77.5627H68.6853C67.9956 77.5627 67.4364 77.0039 67.4364 76.3141C67.4364 75.6244 67.9956 75.0652 68.6853 75.0652H82.091C82.8266 75.0652 83.6495 73.8974 83.6495 72.3344C83.6495 70.7714 82.8266 69.6033 82.091 69.6033H67.0815C66.3917 69.6033 65.8328 69.0444 65.8328 68.3547C65.8328 67.6649 66.3917 67.1058 67.0815 67.1058H82.091C84.3654 67.1058 86.147 69.4024 86.147 72.3344C86.147 75.2661 84.3654 77.5627 82.091 77.5627Z" fill="#4F4F52"/>
<path d="M74.8238 68.3547C74.8238 68.3547 78.5069 74.5194 81.394 71.632C84.2814 68.7449 79.5212 64.6091 75.4634 64.6091C72.2303 64.6091 71.4348 68.3547 71.4348 68.3547" fill="#BE9AAA"/>
<path d="M79.6962 73.6506C79.5504 73.6506 79.403 73.6417 79.2545 73.6232C76.3805 73.2667 74.0124 69.4313 73.7519 68.9951C73.3979 68.4031 73.5914 67.6363 74.1834 67.2826C74.7759 66.9288 75.5417 67.122 75.8954 67.7131C76.5261 68.7633 78.2524 70.9836 79.5636 71.1446C79.7924 71.1731 80.1068 71.1534 80.5111 70.749C81.0485 70.2118 81.1634 69.6714 80.884 68.9971C80.2703 67.5151 77.8219 65.8579 75.4634 65.8579C73.2673 65.8579 72.6623 68.5865 72.6566 68.614C72.5135 69.2885 71.8516 69.7198 71.1756 69.5762C70.5008 69.4331 70.0701 68.77 70.2136 68.0952C70.5614 66.4575 72.1062 63.3602 75.4634 63.3602C78.6557 63.3602 82.1224 65.4601 83.1916 68.0414C83.8541 69.6407 83.5206 71.2715 82.277 72.5152C81.5291 73.2633 80.6439 73.6506 79.6962 73.6506Z" fill="#9D7B8A"/>
<path d="M69.5077 64.6091C60.6952 64.6091 56.3413 68.5108 56.3413 72.4125C56.3413 76.3142 59.1238 80.2159 69.5077 80.2159" fill="white"/>
<path d="M75.99 72.4125C75.99 76.7221 73.0876 80.2159 69.5077 80.2159C65.9276 80.2159 63.0255 76.7221 63.0255 72.4125C63.0255 68.1027 65.9276 64.6091 69.5077 64.6091C73.0876 64.6091 75.99 68.1027 75.99 72.4125Z" fill="#F3F588"/>
<path d="M69.5077 77.3191C68.818 77.3191 68.2589 76.76 68.2589 76.0702C68.2589 75.3805 68.818 74.8213 69.5077 74.8213C69.7837 74.7894 70.5956 73.9112 70.5956 72.4125C70.5956 71.6981 70.3999 71.0021 70.0586 70.5033C69.6695 69.934 69.8156 69.1567 70.3849 68.7676C70.9545 68.3782 71.7315 68.5243 72.1207 69.0937C72.7479 70.0107 73.0931 71.1896 73.0931 72.4125C73.0931 75.0721 71.4511 77.3191 69.5077 77.3191Z" fill="#FBDE8E"/>
<path d="M69.5077 81.4645C64.4887 81.4645 60.7152 80.5626 58.2917 78.784C56.1987 77.2479 55.0927 75.0446 55.0927 72.4124C55.0927 68.0525 59.6036 63.3601 69.5077 63.3601C70.1975 63.3601 70.7566 63.9193 70.7566 64.609C70.7566 65.2988 70.1975 65.8579 69.5077 65.8579C63.5853 65.8579 57.5902 68.1091 57.5902 72.4124C57.5902 75.4025 59.6577 78.967 69.5077 78.967C70.1975 78.967 70.7566 79.5261 70.7566 80.2158C70.7566 80.9056 70.1975 81.4645 69.5077 81.4645Z" fill="#DADBD8"/>
<path d="M47.058 68.3547C47.058 68.3547 50.7408 74.5194 53.628 71.632C56.5153 68.7449 52.5324 64.6574 48.4746 64.6574" fill="#BE9AAA"/>
<path d="M52.0201 73.6117C51.8513 73.6117 51.6933 73.599 51.5484 73.5788C48.6369 73.1745 46.2321 69.0068 45.9676 68.5329C45.6311 67.9306 45.8467 67.1698 46.4489 66.8336C47.0507 66.4975 47.8118 66.7129 48.148 67.3152C48.9749 68.7887 50.6832 70.9382 51.8929 71.1052C52.1078 71.1351 52.3778 71.1159 52.745 70.749C53.2822 70.2118 53.3971 69.6714 53.1179 68.9971C52.5042 67.5151 50.0555 65.8579 47.6973 65.8579C47.0078 65.8579 46.4487 65.2988 46.4487 64.609C46.4487 63.9193 47.0078 63.3601 47.6973 63.3601C50.8896 63.3601 54.3563 65.46 55.4255 68.0413C56.088 69.6407 55.7545 71.2715 54.5109 72.5151C53.6441 73.3819 52.7375 73.6117 52.0201 73.6117Z" fill="#9D7B8A"/>
<path d="M37.5971 92.2158C35.1153 92.2158 32.6053 91.809 30.0911 90.9961C25.2349 89.4266 22.421 84.6729 22.1673 77.6108C21.9028 70.2277 24.4519 62.185 26.9843 58.366C27.3655 57.7912 28.1405 57.6342 28.7153 58.0156C29.2899 58.3967 29.447 59.1715 29.0658 59.7463C26.748 63.2414 24.4175 70.659 24.6633 77.5214C24.8141 81.7194 26.0114 87.0528 30.8591 88.6197C34.6589 89.8477 38.4354 90.0463 42.0849 89.2095C42.7562 89.0552 43.427 89.4753 43.581 90.1476C43.7353 90.8199 43.3153 91.4897 42.643 91.644C40.9798 92.0254 39.2949 92.2158 37.5971 92.2158Z" fill="#9D7B8A"/>
<path d="M18.1668 43.457C18.1668 47.7236 16.0183 51.1824 13.3677 51.1824C10.7174 51.1824 8.5686 47.7236 8.5686 43.457C8.5686 39.1903 10.7174 35.7316 13.3677 35.7316C16.0183 35.7316 18.1668 39.1903 18.1668 43.457Z" fill="white"/>
<path d="M13.3677 36.9805C11.2755 36.9805 9.81747 40.3936 9.81747 43.457C9.81747 46.5204 11.2755 49.9335 13.3677 49.9335C15.4599 49.9335 16.9182 46.5204 16.9182 43.457C16.9182 40.3936 15.4599 36.9805 13.3677 36.9805ZM13.3677 52.431C9.97625 52.431 7.31995 48.4892 7.31995 43.457C7.31995 38.4248 9.97625 34.4827 13.3677 34.4827C16.7591 34.4827 19.4157 38.4248 19.4157 43.457C19.4157 48.4892 16.7591 52.431 13.3677 52.431Z" fill="#D6468C"/>
<path d="M68.6232 121.725H72.87C79.1485 121.725 84.2383 116.834 84.2383 110.8C84.2383 104.767 79.1485 99.8755 72.87 99.8755H68.6232C62.3449 99.8755 57.2552 104.767 57.2552 110.8C57.2552 116.834 62.3449 121.725 68.6232 121.725Z" fill="#65686B"/>
<path d="M68.6232 117.09C67.9335 117.09 67.3746 116.531 67.3746 115.841C67.3746 115.152 67.9335 114.592 68.6232 114.592C70.9587 114.592 72.8585 112.891 72.8585 110.8C72.8585 108.709 70.9587 107.008 68.6232 107.008C67.9335 107.008 67.3746 106.449 67.3746 105.76C67.3746 105.07 67.9335 104.511 68.6232 104.511C72.3357 104.511 75.3563 107.332 75.3563 110.8C75.3563 114.269 72.3357 117.09 68.6232 117.09Z" fill="#4F4F52"/>
<path d="M68.6233 101.124C63.0434 101.124 58.5038 105.465 58.5038 110.8C58.5038 116.136 63.0434 120.477 68.6233 120.477H72.87C78.4498 120.477 82.9894 116.136 82.9894 110.8C82.9894 105.465 78.4498 101.124 72.87 101.124H68.6233ZM72.87 122.974H68.6233C61.6664 122.974 56.0063 117.513 56.0063 110.8C56.0063 104.088 61.6664 98.6266 68.6233 98.6266H72.87C79.8271 98.6266 85.4872 104.088 85.4872 110.8C85.4872 117.513 79.8271 122.974 72.87 122.974Z" fill="#4F4F52"/>
<path d="M68.1242 113.741C66.5423 113.741 65.2552 112.454 65.2552 110.872C65.2552 109.29 66.5423 108.002 68.1242 108.002C68.8139 108.002 69.3731 108.562 69.3731 109.251C69.3731 109.941 68.8139 110.5 68.1242 110.5C67.9193 110.5 67.7528 110.667 67.7528 110.872C67.7528 111.077 67.9193 111.244 68.1242 111.244C68.8139 111.244 69.3731 111.802 69.3731 112.492C69.3731 113.182 68.8139 113.741 68.1242 113.741Z" fill="#4F4F52"/>
<path d="M61.4852 102.463C59.821 102.804 58.7384 100.773 59.9486 99.5809C65.1189 94.4864 73.9112 90.8282 81.6084 94.713C91.6748 99.7937 83.2469 107.285 72.9465 103.539C68.204 101.815 64.3082 101.885 61.4852 102.463Z" fill="#89D59B"/>
<path d="M65.2054 100.841C67.8485 100.841 70.5818 101.351 73.3735 102.366C79.0436 104.427 83.806 102.731 84.7244 100.607C85.374 99.105 83.9985 97.3184 81.0455 95.8279C75.9406 93.2514 67.7086 93.6876 60.8251 100.47C60.6237 100.669 60.6683 100.873 60.7411 101.009C60.8139 101.146 60.9587 101.297 61.2346 101.24C62.5316 100.974 63.8568 100.841 65.2054 100.841ZM78.4645 105.798C76.5319 105.798 74.4975 105.432 72.5197 104.713C68.7442 103.34 65.1156 102.994 61.7357 103.687C60.4427 103.951 59.1577 103.348 58.5372 102.185C57.917 101.022 58.1316 99.6177 59.0719 98.6912C61.9942 95.812 65.6955 93.6405 69.494 92.5771C73.9775 91.3217 78.3603 91.675 82.171 93.5982C88.4967 96.7909 87.4794 100.529 87.0168 101.598C86.2216 103.438 84.2231 104.847 81.5346 105.464C80.5597 105.687 79.5272 105.798 78.4645 105.798Z" fill="#75CD8B"/>
<path d="M53.1727 45.3849C51.9343 45.3849 50.8173 44.8534 50.0383 44.0064C49.2596 44.8534 48.1428 45.3849 46.9041 45.3849C44.5562 45.3849 42.6457 43.4747 42.6457 41.1267C42.6457 40.506 43.149 40.0027 43.7697 40.0027C44.3904 40.0027 44.8937 40.506 44.8937 41.1267C44.8937 42.2353 45.7956 43.1371 46.9041 43.1371C48.0127 43.1371 48.9146 42.2353 48.9146 41.1267C48.9146 40.506 49.4176 40.0027 50.0383 40.0027C50.6593 40.0027 51.1623 40.506 51.1623 41.1267C51.1623 42.2353 52.0642 43.1371 53.1727 43.1371C54.2813 43.1371 55.1834 42.2353 55.1834 41.1267C55.1834 40.506 55.6865 40.0027 56.3072 40.0027C56.9279 40.0027 57.4312 40.506 57.4312 41.1267C57.4312 43.4747 55.5209 45.3849 53.1727 45.3849Z" fill="#4F4F52"/>
<path d="M69.5077 65.8579C66.6221 65.8579 64.2741 68.7981 64.2741 72.4124C64.2741 76.0267 66.6221 78.967 69.5077 78.967C72.3934 78.967 74.741 76.0267 74.741 72.4124C74.741 68.7981 72.3934 65.8579 69.5077 65.8579ZM69.5077 81.4645C65.2448 81.4645 61.7766 77.4037 61.7766 72.4124C61.7766 67.4209 65.2448 63.3601 69.5077 63.3601C73.7706 63.3601 77.2386 67.4209 77.2386 72.4124C77.2386 77.4037 73.7706 81.4645 69.5077 81.4645Z" fill="#FBDE8E"/>
<path d="M46.0432 62.9082C45.9275 62.9082 45.8131 62.908 45.6974 62.9075C40.2886 62.8848 30.2972 62.2932 24.1548 58.5875C23.5642 58.2312 23.3743 57.4637 23.7305 56.8732C24.0867 56.2826 24.8543 56.0927 25.445 56.4489C34.7957 62.0903 57.1777 60.6859 62.6855 58.3848C63.5243 58.0346 64.1395 57.7554 64.6807 57.4794C65.2949 57.1663 66.0475 57.4101 66.3604 58.0246C66.6737 58.6391 66.4297 59.3911 65.8152 59.7045C65.2157 60.0101 64.5471 60.314 63.6482 60.6894C60.5492 61.9841 53.188 62.9082 46.0432 62.9082Z" fill="#4F4F52"/>
<path d="M19.4765 61.7375C18.0325 61.7375 16.5906 61.2644 15.2134 60.3269C9.86235 56.6839 6.26801 46.6859 6.26801 39.6333C6.26801 30.9068 7.62957 23.7839 10.4302 17.8583C15.0663 8.04946 23.375 2.25199 35.1252 0.626941C38.1869 0.203666 44.3226 -0.393846 51.0177 0.361218C58.2199 1.17337 63.8458 3.30519 67.7393 6.69737C75.6559 13.5976 79.4235 20.9922 79.4235 44.3519C79.4235 53.0422 77.8608 58.2825 74.6458 60.3723C71.6179 62.3408 67.9398 61.154 64.7408 59.7331C64.1106 59.4532 63.8267 58.7153 64.1066 58.0849C64.3865 57.4547 65.1242 57.1705 65.7551 57.4507C68.3403 58.5991 71.2571 59.5962 73.2848 58.2783C75.7008 56.7076 76.926 52.0222 76.926 44.3519C76.926 21.8201 73.5859 15.1065 66.0986 8.58018C56.9394 0.600275 38.9753 2.61593 35.4675 3.10103C24.6052 4.60318 16.9414 9.92752 12.6884 18.9255C10.0488 24.5103 8.76578 31.2837 8.76578 39.6333C8.76578 45.9031 12.1243 55.2022 16.6188 58.2624C18.1359 59.2951 19.6032 59.5098 21.1043 58.9182C22.2306 58.475 23.1023 57.7862 23.7696 56.8123C24.1597 56.2432 24.937 56.0981 25.5058 56.488C26.0747 56.8779 26.2198 57.6551 25.8299 58.224C24.8846 59.6037 23.6026 60.619 22.0194 61.2422C21.1801 61.573 20.3278 61.7375 19.4765 61.7375Z" fill="#D6468C"/>
<path d="M65.2488 59.8411C64.7931 59.8411 64.3534 59.5903 64.1335 59.1558C63.8222 58.5403 64.0687 57.789 64.6842 57.4777C68.7484 55.4214 70.4006 53.1425 70.3709 38.6462C70.3627 34.5981 69.2464 31.451 67.0543 29.2925C62.7974 25.1011 55.3041 25.2021 50.8263 25.2624C50.3329 25.2691 49.8768 25.2751 49.4659 25.2751C35.4031 25.2751 27.3377 29.2426 27.3377 36.1604C27.3377 37.939 27.4881 39.9177 27.6468 42.0132C28.103 48.0228 28.5747 54.237 25.8286 58.2262C25.4375 58.7943 24.6595 58.9379 24.0919 58.5468C23.5235 58.1557 23.3802 57.3782 23.7711 56.8101C26.0176 53.5468 25.5601 47.5197 25.1566 42.2021C24.9938 40.0583 24.8402 38.0334 24.8402 36.1604C24.8402 33.6127 25.7214 29.9713 29.9195 27.0894C34.0877 24.2281 40.6642 22.7776 49.4659 22.7776C49.8668 22.7776 50.3115 22.7714 50.7926 22.7649C55.6613 22.6993 63.8064 22.5899 68.8065 27.5126C71.4919 30.1567 72.8587 33.9009 72.8685 38.6409C72.8971 52.5242 71.4461 56.8555 65.8116 59.7062C65.6311 59.7977 65.4385 59.8411 65.2488 59.8411Z" fill="#D6468C"/>
</svg>
