<svg width="50" height="39" viewBox="0 0 50 39" fill="none" xmlns="http://www.w3.org/2000/svg">
<path d="M6.2557 6.61951C2.65175 7.84153 -0.210584 12.8922 1.72291 19.5977C3.44771 26.0882 9.96833 34.2341 20.3148 36.6681C30.5422 39.5628 40.1968 35.6054 44.8552 30.7685C49.8008 25.8439 49.7497 20.0389 47.1919 17.2208C41.7148 11.24 35.3467 17.235 25.9907 14.7494C16.6054 12.3812 13.9477 4.04944 6.2557 6.61951Z" fill="#FFFFA1"/>
<path d="M25.4399 29.7443C23.1173 29.7443 20.8605 29.3694 18.7115 28.6168C11.5059 26.0933 7.92112 20.5851 6.18217 16.4085C5.94927 15.8496 6.21413 15.2075 6.77308 14.9751C7.33249 14.7417 7.9741 15.0066 8.20699 15.566C9.77379 19.3302 12.9941 24.2909 19.4362 26.5472C30.9486 30.5786 41.807 21.1651 41.9152 21.0696C42.3692 20.6691 43.0619 20.7121 43.4629 21.1655C43.8638 21.619 43.8213 22.3108 43.3683 22.7122C43.2482 22.8186 40.3708 25.3439 35.9129 27.3496C32.3729 28.9424 28.8361 29.7443 25.4399 29.7443Z" fill="#FFE4A9"/>
<path d="M27.3565 38.7427C24.9855 38.7427 22.5278 38.4317 20.0404 37.7303C9.31942 35.1981 2.48461 26.7125 0.666201 19.8909C-0.547597 15.6705 0.122319 12.5292 0.898181 10.6363C1.9147 8.15757 3.73906 6.31495 5.90316 5.5811C5.90453 5.58064 5.90636 5.58019 5.90773 5.57973C10.8474 3.92891 14.0098 6.32683 17.3575 8.86539C19.7436 10.6747 22.4479 12.7251 26.2592 13.6868C30.0718 14.6997 33.4314 14.2193 36.3956 13.7955C40.5549 13.2004 44.483 12.6397 48.0007 16.4806C49.5396 18.1767 50.2406 20.6732 49.9264 23.3337C49.6862 25.3654 48.7473 28.4369 45.6375 31.5376C41.8865 35.4274 35.0914 38.7423 27.3565 38.7427ZM6.60641 7.6589C3.38971 8.75077 1.07765 13.4009 2.77688 19.2945C2.77916 19.3019 2.78099 19.3092 2.78327 19.3165C4.43546 25.5339 10.7054 33.2815 20.5669 35.6014C20.5829 35.605 20.5989 35.6091 20.6144 35.6137C22.921 36.2667 25.2006 36.5562 27.394 36.5562C34.4694 36.5567 40.6599 33.5455 44.0666 30.0082C44.0716 30.0027 44.0771 29.9973 44.0825 29.9918C48.429 25.6636 48.6647 20.4741 46.3809 17.9579C43.6483 14.9741 40.7366 15.3901 36.7071 15.9664C33.5356 16.4199 29.9407 16.9341 25.7103 15.8098C21.4793 14.7421 18.5859 12.5483 16.0332 10.613C12.79 8.15346 10.4465 6.3766 6.60641 7.6589Z" fill="#F9CB71"/>
<path d="M20.6916 25.7846C20.24 25.7846 19.7892 25.6923 19.3623 25.5079C18.8065 25.2677 18.5503 24.6224 18.7905 24.0666C19.0307 23.5109 19.676 23.2542 20.2317 23.4949C20.5167 23.6173 20.8318 23.6223 21.1204 23.5081C21.4086 23.3935 21.6351 23.1739 21.7579 22.8894C22.0118 22.3016 21.7401 21.6171 21.1524 21.3632C20.5966 21.123 20.3404 20.4778 20.5806 19.922C20.8208 19.3663 21.4661 19.1096 22.0218 19.3503C22.8443 19.7055 23.479 20.3595 23.8097 21.1924C24.1398 22.0254 24.1266 22.9369 23.7713 23.7593C23.416 24.5817 22.7621 25.2165 21.9291 25.5471C21.5291 25.7056 21.1099 25.7846 20.6916 25.7846Z" fill="#5F5C5D"/>
<path d="M10.2556 10.4596C9.77289 11.6675 8.8034 12.5876 7.55718 13.0082C6.40411 13.3968 5.1273 13.2922 4.05369 12.7205C2.98009 12.1488 2.18003 11.1478 1.85945 9.97418L0.305899 4.28923C-0.0685614 2.92063 0.457511 1.44836 1.6156 0.62683C2.35493 0.10213 3.25409 -0.102913 4.14777 0.0486976C5.04145 0.200765 5.82279 0.691676 6.34703 1.43101L9.7569 6.23779C10.5766 7.39314 10.7958 8.82841 10.3579 10.176C10.3268 10.2719 10.2926 10.3664 10.2556 10.4596Z" fill="#5F5C5D"/>
<path d="M20.487 19.1302C20.3418 19.1302 20.1943 19.1015 20.0527 19.0398C18.6905 18.4516 18.0658 16.8542 18.6599 15.4783C19.254 14.1029 20.8455 13.4626 22.2072 14.0499C22.7634 14.2901 23.0196 14.9354 22.7794 15.4911C22.5392 16.0469 21.894 16.3031 21.3382 16.0633C21.0866 15.9542 20.7879 16.0816 20.6733 16.3474C20.5587 16.6127 20.6706 16.9173 20.9222 17.0259C21.4779 17.2662 21.7341 17.9114 21.4939 18.4672C21.3149 18.8827 20.9112 19.1302 20.487 19.1302Z" fill="#5F5C5D"/>
<path d="M16.0423 29.4215C15.8971 29.4215 15.7501 29.3927 15.6081 29.3315C14.945 29.0452 14.4354 28.5146 14.1732 27.8383C13.9139 27.1679 13.9285 26.4331 14.2148 25.77C14.5011 25.107 15.0258 24.5923 15.6916 24.322C16.3638 24.0484 17.099 24.0557 17.7626 24.3421C18.3183 24.5823 18.5745 25.2275 18.3343 25.7833C18.0941 26.339 17.4488 26.5957 16.8926 26.355C16.7319 26.2861 16.5885 26.3244 16.5173 26.3532C16.3876 26.4057 16.2848 26.5075 16.2277 26.6391C16.1707 26.771 16.1675 26.9153 16.2177 27.0459C16.2456 27.1176 16.3159 27.2487 16.4762 27.3177C17.0324 27.5579 17.2886 28.2031 17.0484 28.7589C16.8707 29.1735 16.467 29.4215 16.0423 29.4215Z" fill="#5F5C5D"/>
</svg>
