<svg width="146" height="163" viewBox="0 0 146 163" fill="none" xmlns="http://www.w3.org/2000/svg">
<path d="M138.288 82.3356L117.428 74.5356L110.89 91.1696C126.22 97.9465 130.033 90.2284 134.983 82.0813" fill="#BE9AAA"/>
<path d="M121.022 95.3489C118.106 95.3489 114.588 94.5436 110.248 92.6248C109.444 92.2695 109.081 91.3299 109.436 90.5266C109.791 89.7229 110.731 89.3597 111.534 89.7147C124.944 95.6435 128.328 90.0347 133.009 82.2712C133.213 81.934 133.417 81.5952 133.623 81.2551C134.08 80.5045 135.057 80.2654 135.809 80.7217C136.56 81.178 136.799 82.1563 136.343 82.9072C136.138 83.2441 135.935 83.5801 135.734 83.9144C132.328 89.5616 128.837 95.3489 121.022 95.3489Z" fill="#9D7B8A"/>
<path d="M81.3797 113.517L102.876 106.632L106.735 132.743L97.2195 124.44H76.3596L81.3797 113.517Z" fill="white"/>
<path d="M31.3153 83.6915C26.099 83.6915 21.8552 79.4446 21.8552 74.2248C21.8552 73.0674 22.0626 71.9424 22.4712 70.8812C22.7872 70.0614 23.708 69.6524 24.5275 69.9686C25.3474 70.2843 25.756 71.2051 25.4401 72.025C25.1727 72.7197 25.0368 73.4599 25.0368 74.2248C25.0368 77.6906 27.8533 80.5099 31.3153 80.5099C32.1939 80.5099 32.9061 81.2221 32.9061 82.1007C32.9061 82.979 32.1939 83.6915 31.3153 83.6915Z" fill="#FBDE8E"/>
<path d="M20.5056 110.399C18.5906 104.861 21.9183 99.3729 18.0083 97.2861C18.0083 97.2861 16.8966 84.9781 10.1104 89.0469C10.1104 89.0469 4.37302 85.0772 0.869744 91.6405C-2.63321 98.2041 5.57645 102.586 5.57645 102.586C5.57645 102.586 -0.144123 107.8 6.9307 111.576C9.3258 112.854 13.8239 113.654 17.4993 114.121C19.573 114.385 21.1889 112.374 20.5056 110.399Z" fill="#DBBFCA"/>
<path d="M140.19 153.343C140.303 147.596 111.982 142.376 76.9333 141.685C41.8843 140.993 13.3796 145.092 13.266 150.839C13.1526 156.586 41.4735 161.806 76.5224 162.497C111.571 163.189 140.076 159.09 140.19 153.343Z" fill="#DBBFCA"/>
<path d="M101.662 129.394H89.8171C88.9385 129.394 88.2263 128.682 88.2263 127.804C88.2263 126.925 88.9385 126.213 89.8171 126.213H101.662C102.541 126.213 103.253 126.925 103.253 127.804C103.253 128.682 102.541 129.394 101.662 129.394Z" fill="#DADBD8"/>
<path d="M102.876 135.162H87.9731C87.0945 135.162 86.3823 134.449 86.3823 133.571C86.3823 132.693 87.0945 131.98 87.9731 131.98H102.876C103.755 131.98 104.467 132.693 104.467 133.571C104.467 134.449 103.755 135.162 102.876 135.162Z" fill="#DADBD8"/>
<path d="M61.7351 93.5069C50.071 93.5069 46.4109 98.0142 46.4109 103.954C46.4109 109.894 48.9311 114.263 61.7351 114.263" fill="#65686B"/>
<path d="M45.7337 154.173H51.0491C58.9069 154.173 65.2772 146.094 65.2772 136.13C65.2772 126.164 58.9069 118.086 51.0491 118.086H45.7337C37.8758 118.086 31.5056 126.164 31.5056 136.13C31.5056 146.094 37.8758 154.173 45.7337 154.173Z" fill="#65686B"/>
<path d="M45.7339 146.046C44.8553 146.046 44.1431 145.333 44.1431 144.455C44.1431 143.576 44.8553 142.864 45.7339 142.864C48.6415 142.864 51.0071 139.843 51.0071 136.129C51.0071 132.416 48.6415 129.394 45.7339 129.394C44.8553 129.394 44.1431 128.682 44.1431 127.804C44.1431 126.925 44.8553 126.213 45.7339 126.213C50.3958 126.213 54.1884 130.661 54.1884 136.129C54.1884 141.597 50.3958 146.046 45.7339 146.046Z" fill="#4F4F52"/>
<path d="M45.7337 119.677C38.7655 119.677 33.0964 127.057 33.0964 136.13C33.0964 145.202 38.7655 152.582 45.7337 152.582H51.0488C58.0172 152.582 63.6863 145.202 63.6863 136.13C63.6863 127.057 58.0172 119.677 51.0488 119.677H45.7337ZM51.0488 155.764H45.7337C37.0112 155.764 29.9148 146.956 29.9148 136.13C29.9148 125.303 37.0112 116.495 45.7337 116.495H51.0488C59.7715 116.495 66.8676 125.303 66.8676 136.13C66.8676 146.956 59.7715 155.764 51.0488 155.764Z" fill="#4F4F52"/>
<path d="M45.1095 139.878C43.4647 139.878 42.127 138.249 42.127 136.247C42.127 134.245 43.4647 132.616 45.1095 132.616C45.6366 132.616 46.0637 133.044 46.0637 133.571C46.0637 134.098 45.6366 134.525 45.1095 134.525C44.6014 134.525 44.0356 135.232 44.0356 136.247C44.0356 137.262 44.6014 137.969 45.1095 137.969C45.6366 137.969 46.0637 138.397 46.0637 138.924C46.0637 139.451 45.6366 139.878 45.1095 139.878Z" fill="#27282A"/>
<path d="M52.5978 130.899C49.3406 127.642 51.0492 118.086 54.0733 113.517L73.2151 110.254L80.1855 120.576L73.2151 132.383L68.2426 134.722L52.5978 130.899Z" fill="white"/>
<path d="M56.9294 125.48H50.8916C50.013 125.48 49.3008 124.767 49.3008 123.889C49.3008 123.01 50.013 122.298 50.8916 122.298H56.9294C58.9076 122.298 60.6581 120.967 61.1865 119.06L63.7441 109.829C63.9785 108.983 64.8542 108.486 65.7017 108.721C66.5485 108.956 67.0445 109.832 66.8099 110.679L64.2525 119.91C63.3437 123.189 60.3326 125.48 56.9294 125.48Z" fill="#DADBD8"/>
<path d="M76.3622 138.546H39.6082C38.5604 138.546 37.5586 138.115 36.8368 137.355L21.0326 120.719C19.5776 119.188 19.6399 116.768 21.1707 115.314C22.7021 113.86 25.1226 113.922 26.5756 115.453L41.2498 130.899H70.2013L69.5087 129.501C68.5708 127.609 69.3449 125.315 71.2367 124.378C73.1301 123.441 75.4233 124.215 76.3597 126.106L79.7877 133.025C80.3752 134.21 80.3082 135.614 79.6112 136.738C78.9136 137.862 77.6844 138.546 76.3622 138.546Z" fill="white"/>
<path d="M76.3619 140.136H39.6078C38.131 140.136 36.7002 139.522 35.6832 138.451C35.078 137.814 35.1037 136.807 35.741 136.202C36.3779 135.597 37.3848 135.623 37.9897 136.26C38.4091 136.702 38.9991 136.955 39.6078 136.955H76.3619C77.1395 136.955 77.8488 136.56 78.2591 135.899C78.6687 135.239 78.7074 134.428 78.3623 133.731L74.9339 126.813C74.3878 125.71 73.0462 125.257 71.9419 125.804C71.4084 126.068 71.0093 126.525 70.8185 127.09C70.628 127.655 70.6689 128.261 70.9334 128.795L71.6263 130.193C71.8708 130.686 71.8428 131.27 71.5526 131.738C71.2624 132.205 70.7512 132.49 70.2009 132.49H41.2494C40.3711 132.49 39.6589 131.777 39.6589 130.899C39.6589 130.021 40.3711 129.308 41.2494 129.308H67.7318C67.4244 128.255 67.4457 127.135 67.8039 126.073C68.2662 124.703 69.2343 123.595 70.5298 122.953C73.2069 121.628 76.4613 122.726 77.785 125.401L81.2127 132.319C82.0504 134.008 81.9567 135.974 80.9625 137.576C79.9674 139.179 78.2476 140.136 76.3619 140.136Z" fill="#DADBD8"/>
<path d="M62.4939 79.7875C55.4686 95.1412 52.1698 111.075 61.7353 114.263C71.3011 117.451 75.248 118.718 75.248 118.718C75.248 118.718 73.5664 141.718 85.3787 138.924C97.191 136.13 85.3787 109.473 85.3787 109.473L110.523 102.109L118.448 68.7493" fill="#BE9AAA"/>
<path d="M46.411 23.1211C46.411 23.1211 36.9459 8.28754 29.8177 14.6597C22.6892 21.0312 32.2357 31.7118 32.2357 31.7118C32.2357 31.7118 21.555 41.2586 27.9265 48.3871C34.298 55.5156 45.3619 41.8337 45.3619 41.8337" fill="#89D59B"/>
<path d="M32.3342 52.0354C30.1573 52.0354 28.2766 51.1654 26.7407 49.4469C24.9962 47.4954 24.183 45.2207 24.3237 42.6862C24.4307 40.7581 25.0991 38.7063 26.3108 36.5868C27.5421 34.4333 29.0786 32.6542 30.0925 31.5918C29.2037 30.4226 27.8755 28.4829 26.8928 26.2052C25.9259 23.9638 25.4909 21.8497 25.5998 19.922C25.7437 17.3875 26.8061 15.2182 28.7576 13.4727C30.5291 11.8914 32.5644 11.2437 34.8081 11.5517C41.4279 12.463 47.4971 21.8656 47.7524 22.2654C48.2249 23.0061 48.0077 23.9895 47.2669 24.462C46.5267 24.9348 45.5437 24.7173 45.0709 23.9775C43.548 21.597 38.6578 15.2909 34.3718 14.7038C33.0779 14.5266 31.9357 14.9 30.8777 15.8456C28.4547 18.0115 28.107 20.9876 29.8143 24.945C31.1915 28.1374 33.3995 30.6271 33.4218 30.6519C33.7031 30.9662 33.8476 31.3796 33.8241 31.801C33.8006 32.2224 33.6104 32.6167 33.296 32.8981C33.2024 32.9819 23.8798 41.4723 29.1126 47.3268C30.0582 48.3848 31.1515 48.8862 32.4571 48.8525C36.7818 48.7477 42.3465 43.0278 44.1256 40.8327C44.6787 40.1504 45.6802 40.045 46.3626 40.5975C47.0453 41.15 47.1513 42.1508 46.5988 42.8338C46.301 43.2025 39.2185 51.8678 32.5387 52.0329C32.4701 52.0345 32.4019 52.0354 32.3342 52.0354Z" fill="#75CD8B"/>
<path d="M43.2283 36.9722C38.5388 33.6842 34.6519 26.4712 43.5281 19.4047C43.5281 19.4047 43.5281 19.3282 43.5344 19.2008C43.7891 12.2184 48.6828 6.27112 55.4626 4.58187C61.395 3.10537 71.1631 1.5876 86.2583 1.5876C101.354 1.5876 111.115 3.10537 117.048 4.58187C123.827 6.27112 128.728 12.2184 128.983 19.2008C128.983 19.3282 128.989 19.4047 128.989 19.4047C137.814 26.4328 134.016 33.6077 129.358 36.9147" fill="#89D59B"/>
<path d="M129.286 38.5652C128.785 38.5652 128.292 38.329 127.982 37.8876C127.478 37.1681 127.652 36.1761 128.371 35.6719C131.012 33.8201 132.636 31.1852 132.714 28.6234C132.797 25.893 131.209 23.2109 127.994 20.6513C127.615 20.3493 127.394 19.8914 127.394 19.4069C127.394 19.3993 127.393 19.3526 127.39 19.2824C127.162 13.0439 122.753 7.646 116.666 6.12822C111.269 4.78508 101.613 3.18158 86.2545 3.18158C70.9014 3.18158 61.2461 4.78508 55.8497 6.12822C49.7678 7.64283 45.3592 13.0313 45.1211 19.2351C45.1202 19.4256 45.1097 19.5387 45.1097 19.5387C45.069 19.9689 44.8538 20.3814 44.5156 20.651C41.4553 23.0899 39.8676 25.6444 39.7971 28.2437C39.7355 30.5168 40.9174 32.9037 43.0394 34.7917C43.6957 35.3756 43.7545 36.3813 43.1705 37.0376C42.5866 37.6939 41.5813 37.753 40.9247 37.1687C39.2646 35.6916 36.4974 32.5569 36.6168 28.1573C36.7092 24.7572 38.5086 21.5537 41.9677 18.6267C42.4656 11.2214 47.7915 4.85811 55.0807 3.04185C60.6498 1.65426 70.5785 -4.77573e-05 86.2545 -4.77573e-05C101.936 -4.77573e-05 111.866 1.65426 117.435 3.04185C124.72 4.85493 130.044 11.2214 130.541 18.627C133.181 20.8672 136.028 24.3197 135.894 28.7203C135.786 32.2797 133.656 35.8522 130.198 38.2769C129.92 38.4715 129.601 38.5652 129.286 38.5652Z" fill="#75CD8B"/>
<path d="M119.221 38.8672C121.509 37.7774 124.07 37.1659 126.778 37.1659C136.515 37.1659 144.409 45.0609 144.409 54.7972C144.409 64.5336 136.515 72.4282 126.778 72.4282C121.789 72.4282 117.284 70.351 114.079 67.0185" fill="#BE9AAA"/>
<path d="M126.778 74.0199C121.508 74.0199 116.59 71.9255 112.93 68.1225C112.321 67.4896 112.34 66.4824 112.973 65.8731C113.606 65.2641 114.613 65.2831 115.223 65.9163C118.277 69.0903 122.381 70.8383 126.778 70.8383C135.623 70.8383 142.819 63.6425 142.819 54.7974C142.819 45.9524 135.623 38.7566 126.778 38.7566C124.373 38.7566 122.059 39.277 119.901 40.3033C119.107 40.6802 118.159 40.343 117.781 39.5495C117.404 38.756 117.742 37.8069 118.535 37.4297C121.124 36.1993 123.897 35.5753 126.778 35.5753C137.377 35.5753 146 44.1984 146 54.7974C146 65.3965 137.377 74.0199 126.778 74.0199Z" fill="#9D7B8A"/>
<path d="M130.024 46.4432C129.941 51.0819 129.342 55.7206 128.227 60.3594C127.494 63.4372 126.328 66.3619 124.627 68.8917C121.014 74.3525 115.356 78.3222 108.741 79.6857C93.3275 82.8654 77.9074 82.9035 62.4934 79.7876C55.6818 78.4114 49.8835 74.4033 46.1687 68.8342C42.9636 72.1666 38.4585 74.2439 33.4692 74.2439C23.7329 74.2439 15.8379 66.3492 15.8379 56.6129C15.8379 46.8702 23.7329 38.9816 33.4692 38.9816C36.171 38.9816 38.7389 39.5868 41.0264 40.6765C41.67 35.8593 43.2694 31.3162 45.6461 27.2636C53.4455 25.7852 89.6635 19.7128 124.913 27.1997C127.335 31.2714 128.985 35.8403 129.667 40.7019C129.928 42.5753 130.062 44.4932 130.024 46.4432Z" fill="#BE9AAA"/>
<path d="M129.671 42.293C128.891 42.293 128.209 41.7179 128.098 40.9228C127.457 36.3539 125.93 32.0102 123.558 28.0112C123.11 27.2555 123.359 26.2794 124.115 25.8314C124.871 25.3834 125.846 25.6326 126.294 26.388C128.882 30.7512 130.549 35.4928 131.248 40.4808C131.371 41.3509 130.764 42.1552 129.894 42.2774C129.819 42.2879 129.745 42.293 129.671 42.293Z" fill="#9D7B8A"/>
<path d="M85.3724 83.6797C77.6241 83.68 69.8768 82.9024 62.1783 81.3465C55.6595 80.0284 49.9589 76.4652 45.9416 71.238C42.4647 74.2149 38.1015 75.8346 33.4691 75.8346C22.8701 75.8346 14.2473 67.2118 14.2473 56.6127C14.2473 46.0137 22.8701 37.3906 33.4691 37.3906C35.6439 37.3906 37.7583 37.7466 39.779 38.4508C40.5722 34.2306 42.0798 30.2056 44.2733 26.4594C44.7172 25.7015 45.6914 25.4465 46.4496 25.8907C47.2079 26.3346 47.4625 27.3091 47.0186 28.0671C44.6924 32.04 43.2093 36.3545 42.6098 40.891C42.5431 41.3953 42.2395 41.8373 41.7925 42.0802C41.3457 42.3234 40.8097 42.338 40.3502 42.1195C38.1885 41.093 35.8734 40.5722 33.4691 40.5722C24.6244 40.5722 17.4286 47.768 17.4286 56.6127C17.4286 65.4574 24.6244 72.6529 33.4691 72.6529C37.8646 72.6529 41.9703 70.9049 45.0293 67.73C45.3637 67.3832 45.839 67.2058 46.3166 67.2496C46.7967 67.2924 47.2311 67.5506 47.4984 67.9513C51.0687 73.3038 56.506 76.9535 62.8089 78.2281C77.9499 81.2878 93.2953 81.2538 108.419 78.1277C114.544 76.8649 119.83 73.2734 123.306 68.0145C123.79 67.2813 124.777 67.08 125.51 67.5642C126.243 68.0488 126.445 69.0353 125.96 69.7685C122.018 75.7345 116.016 79.8097 109.062 81.2436C101.206 82.8675 93.2887 83.6794 85.3724 83.6797Z" fill="#9D7B8A"/>
<path d="M125.576 41.3582C125.519 44.6145 125.054 47.8704 124.181 51.1267C122.505 57.3454 117.121 62.1629 110.36 63.4626C99.3429 65.5719 88.3257 65.5973 77.3021 63.5264C70.2422 62.201 64.7049 57.2054 63.0226 50.6996C62.1624 47.3671 61.7354 44.0344 61.7354 40.7019C61.7354 34.3936 64.4118 28.6016 68.7892 24.2813C82.9223 23.1665 101.535 22.9306 120.237 26.2884C123.677 30.475 125.672 35.7126 125.576 41.3582Z" fill="#FBEAB0"/>
<path d="M26.7849 56.7268C26.7849 53.1858 29.6557 50.3153 33.1967 50.3153C36.7378 50.3153 39.6082 53.1858 39.6082 56.7268C39.6082 60.2679 36.7378 63.1387 33.1967 63.1387C29.6557 63.1387 26.7849 60.2679 26.7849 56.7268Z" fill="#9D7B8A"/>
<path d="M124.628 70.4834C124.323 70.4834 124.014 70.3954 123.742 70.2122C123.013 69.722 122.819 68.7335 123.31 68.0045C124.814 65.7675 125.949 63.0714 126.682 59.992C127.766 55.4834 128.356 50.9171 128.436 46.4155C128.471 44.6447 128.356 42.7976 128.094 40.9226C127.973 40.0526 128.58 39.2486 129.45 39.1273C130.321 39.0066 131.124 39.6128 131.245 40.4831C131.53 42.5239 131.655 44.5396 131.617 46.4752C131.533 51.2048 130.913 56.0023 129.776 60.7322C128.955 64.1805 127.668 67.2256 125.949 69.7801C125.642 70.2367 125.14 70.4834 124.628 70.4834Z" fill="#9D7B8A"/>
<path d="M117.629 40.0963C115.924 40.0963 113.95 39.7734 111.934 38.7691C111.227 38.4166 110.939 37.5571 111.291 36.8493C111.644 36.1415 112.503 35.8538 113.211 36.2063C117.472 38.329 121.643 36.474 121.685 36.4549C122.403 36.1276 123.252 36.4413 123.582 37.157C123.912 37.873 123.603 38.7199 122.889 39.0529C122.75 39.1177 120.597 40.0963 117.629 40.0963Z" fill="#4F4F52"/>
<path d="M75.6464 38.9398C72.2987 38.9398 69.8629 37.6666 69.7166 37.5881C69.0193 37.2154 68.7567 36.3475 69.1294 35.6506C69.5016 34.9549 70.3662 34.6913 71.0625 35.0609C71.1299 35.0959 75.1799 37.1572 79.5367 35.2787C80.2626 34.9657 81.1053 35.3003 81.4184 36.0262C81.7315 36.7524 81.3965 37.5948 80.6706 37.9079C78.8937 38.6744 77.1746 38.9398 75.6464 38.9398Z" fill="#4F4F52"/>
<path d="M110.522 102.109H86.8352C85.1501 102.109 83.633 101.089 82.9982 99.5282L74.5704 78.8038L53.218 84.0507C50.9991 84.5962 48.7533 83.2384 48.2078 81.0167C47.6619 78.7956 49.0203 76.5523 51.2417 76.0064L76.0701 69.9051C78.0677 69.4142 80.1205 70.4627 80.8953 72.3669L89.6219 93.826H107.362L113.434 71.669C114.03 69.4924 116.254 68.1924 118.448 68.7494L140.328 74.3073C142.545 74.8703 143.886 77.1241 143.322 79.3411C142.759 81.5587 140.504 82.899 138.288 82.3357L120.348 77.7785L114.517 99.0624C114.024 100.862 112.389 102.109 110.522 102.109Z" fill="white"/>
<path d="M74.5712 77.2126C75.2056 77.2126 75.7959 77.594 76.0442 78.2042L84.472 98.9286C84.8648 99.8945 85.7926 100.518 86.8354 100.518H110.523C111.668 100.518 112.68 99.7469 112.982 98.6419L118.815 77.358C119.043 76.522 119.9 76.0232 120.74 76.2365L138.68 80.7937C139.34 80.9617 140.026 80.8623 140.612 80.5139C141.198 80.1656 141.613 79.6099 141.781 78.9495C141.949 78.289 141.849 77.6028 141.501 77.0173C141.153 76.4315 140.597 76.0168 139.936 75.8491L118.057 70.2911C116.695 69.945 115.339 70.735 114.968 72.0887L108.897 94.2463C108.707 94.9373 108.079 95.4167 107.363 95.4167H89.622C88.9749 95.4167 88.3922 95.0246 88.1484 94.4251L79.4218 72.966C78.9483 71.802 77.6703 71.1507 76.4497 71.4498L51.6217 77.5511C50.2553 77.8867 49.4171 79.2711 49.7527 80.6371C49.9149 81.2985 50.3258 81.8574 50.9091 82.2105C51.4924 82.5632 52.1776 82.668 52.8387 82.5058L74.1908 77.259C74.3178 77.2275 74.4455 77.2126 74.5712 77.2126ZM110.523 103.7H86.8354C84.492 103.7 82.4078 102.298 81.5251 100.127L73.6152 80.6765L53.5979 85.5953C52.1116 85.9605 50.5719 85.7249 49.2621 84.9323C47.9514 84.1388 47.0283 82.8833 46.6631 81.3963C45.9087 78.3268 47.7926 75.216 50.8624 74.4615L75.6905 68.3603C78.4343 67.6862 81.3044 69.1509 82.3687 71.7673L90.6924 92.2351H106.149L111.9 71.2485C112.718 68.2568 115.832 66.444 118.84 67.2073L140.72 72.7653C142.204 73.1425 143.452 74.0748 144.235 75.3906C145.018 76.7068 145.241 78.2487 144.864 79.7328C144.487 81.2169 143.555 82.4654 142.238 83.2485C140.922 84.0312 139.38 84.2547 137.897 83.8772L121.47 79.7046L116.051 99.4827C115.371 101.966 113.097 103.7 110.523 103.7Z" fill="#DADBD8"/>
<path d="M88.7023 95.9385C74.6594 97.3001 74.7718 110.614 78.49 114.332C82.2082 118.05 93.9132 121.228 103.418 111.724" fill="#F360A5"/>
<path d="M88.2082 120.311C87.6065 120.311 87.0076 120.281 86.4119 120.22C82.3635 119.809 78.9923 117.983 77.1624 115.208C75.1429 112.146 74.1964 106.38 76.42 101.725C77.8346 98.762 81.0873 95.0787 88.5489 94.3551C89.4221 94.269 90.201 94.9104 90.2858 95.7849C90.3705 96.6593 89.7304 97.437 88.8559 97.5218C84.053 97.9876 80.8346 99.8629 79.2908 103.096C77.484 106.879 78.5373 111.515 79.8182 113.456C81.1197 115.429 83.6399 116.741 86.7333 117.055C89.2185 117.307 95.7091 117.183 102.293 110.599C102.914 109.978 103.922 109.978 104.543 110.599C105.164 111.22 105.164 112.227 104.543 112.849C99.7379 117.654 93.8757 120.31 88.2082 120.311Z" fill="#D6468C"/>
<path d="M108.905 123.056L102.26 124.194L99.2798 106.797L105.925 105.659L108.905 123.056Z" fill="white"/>
<path d="M101.116 108.096L103.559 122.358L107.069 121.757L104.626 107.495L101.116 108.096ZM102.258 125.785C101.497 125.785 100.825 125.238 100.692 124.463L97.7122 107.065C97.6407 106.649 97.7376 106.223 97.9814 105.878C98.225 105.534 98.5955 105.3 99.0115 105.229L105.657 104.091C106.523 103.942 107.345 104.524 107.493 105.39L110.474 122.787C110.545 123.203 110.448 123.63 110.204 123.975C109.96 124.319 109.59 124.553 109.174 124.624L102.529 125.762C102.438 125.778 102.347 125.785 102.258 125.785Z" fill="#DADBD8"/>
<path d="M126.648 29.1604C126.535 29.1604 126.42 29.1483 126.305 29.1229L126.137 29.0861C125.626 28.9734 125.118 28.8616 124.605 28.7603C123.008 28.4199 121.454 28.117 119.962 27.8553C104.732 25.1208 87.0829 24.4337 68.9143 25.867C57.5284 26.7618 49.0571 28.2345 45.9431 28.8263C44.9766 29.0108 44.4539 29.1226 44.4434 29.1248C43.5845 29.3084 42.7393 28.7613 42.5554 27.9024C42.3713 27.0434 42.9187 26.1979 43.7776 26.0137C43.7776 26.0137 44.3247 25.8965 45.3478 25.7009C48.5145 25.0992 57.1226 23.6021 68.6647 22.6955C87.3633 21.22 104.809 21.902 120.518 24.7226C122.041 24.9903 123.634 25.3005 125.245 25.6438C125.757 25.7451 126.287 25.8613 126.821 25.9788L126.988 26.0156C127.846 26.2039 128.389 27.0523 128.201 27.9106C128.037 28.6536 127.379 29.1604 126.648 29.1604Z" fill="#75CD8B"/>
<path d="M43.5293 20.9955C43.0305 20.9955 42.5392 20.7615 42.2293 20.3233C41.7219 19.606 41.8918 18.6134 42.6091 18.106C45.5386 16.0338 48.9917 14.496 52.8732 13.5361C53.7251 13.3234 54.5881 13.8441 54.7993 14.698C55.0104 15.5508 54.49 16.4133 53.6371 16.6241C50.1427 17.4887 47.0507 18.8611 44.4466 20.7034C44.1675 20.9005 43.8468 20.9955 43.5293 20.9955Z" fill="#75CD8B"/>
<path d="M128.984 20.9955C128.667 20.9955 128.346 20.9005 128.067 20.7034C125.463 18.8611 122.37 17.4887 118.876 16.6241C118.023 16.4133 117.503 15.5508 117.714 14.698C117.925 13.8441 118.787 13.3266 119.64 13.5361C123.521 14.496 126.975 16.0335 129.904 18.106C130.622 18.6134 130.792 19.606 130.284 20.3233C129.974 20.7615 129.483 20.9955 128.984 20.9955Z" fill="#75CD8B"/>
<path d="M127.04 73.927C128.246 69.5312 132.281 68.7885 136.677 69.9938C141.072 71.1991 144.164 73.8962 142.959 78.2921C141.753 82.6876 137.213 85.2738 132.817 84.0685C128.421 82.8632 125.835 78.3225 127.04 73.927Z" fill="#BE9AAA"/>
<path d="M133.172 71.0669C132.429 71.0669 131.758 71.166 131.177 71.3651C129.852 71.8182 129.001 72.794 128.575 74.3476C128.104 76.0635 128.33 77.8604 129.211 79.4068C130.091 80.9528 131.522 82.0635 133.238 82.5344C136.779 83.5048 140.453 81.4139 141.425 77.8712C141.851 76.3176 141.616 75.044 140.707 73.9783C139.812 72.9283 138.273 72.0811 136.256 71.5277C135.137 71.2209 134.098 71.0669 133.172 71.0669ZM134.997 85.9539C134.137 85.9539 133.265 85.8405 132.396 85.6024C127.162 84.1671 124.071 78.7406 125.506 73.5062C126.212 70.9332 127.817 69.1519 130.147 68.3546C132.059 67.7008 134.462 67.737 137.097 68.4597C139.732 69.1821 141.818 70.3766 143.128 71.9144C144.727 73.7888 145.198 76.1394 144.493 78.7123C143.296 83.079 139.32 85.9539 134.997 85.9539Z" fill="#9D7B8A"/>
<path d="M115.351 99.7905C115.351 106.381 110.009 111.724 103.418 111.724C96.8274 111.724 87.9731 105.735 87.9731 99.1443C87.9731 92.5537 96.8274 87.8572 103.418 87.8572C110.009 87.8572 115.351 93.1999 115.351 99.7905Z" fill="#F3F588"/>
<path d="M103.418 89.448C97.839 89.448 89.5636 93.5196 89.5636 99.1443C89.5636 103.841 96.4133 110.133 103.418 110.133C109.121 110.133 113.76 105.493 113.76 99.7905C113.76 94.0877 109.121 89.448 103.418 89.448ZM103.418 113.315C95.9088 113.315 86.3823 106.643 86.3823 99.1443C86.3823 91.283 96.4721 86.2663 103.418 86.2663C110.875 86.2663 116.942 92.3333 116.942 99.7905C116.942 107.248 110.875 113.315 103.418 113.315Z" fill="#FBDE8E"/>
<path d="M106.024 107.692C101.675 107.692 98.1362 104.153 98.1362 99.8038C98.1362 95.4546 101.675 91.9164 106.024 91.9164C106.903 91.9164 107.615 92.6286 107.615 93.5069C107.615 94.3855 106.903 95.0977 106.024 95.0977C103.429 95.0977 101.318 97.2089 101.318 99.8038C101.318 102.399 103.429 104.51 106.024 104.51C106.903 104.51 107.615 105.222 107.615 106.101C107.615 106.98 106.903 107.692 106.024 107.692Z" fill="#FBDE8E"/>
<path d="M61.7354 114.263C71.3012 117.451 75.248 118.718 75.248 118.718C75.248 118.718 73.5664 141.718 85.3787 138.924C97.1911 136.13 85.3787 109.473 85.3787 109.473L73.2152 104.584" fill="#BE9AAA"/>
<path d="M47.6405 109.443C40.5933 109.073 29.3595 115.139 30.4045 119.485C31.4812 123.926 32.7837 122.208 32.7837 122.208C32.7837 122.208 45.0536 119.657 51.419 120.173L53.7935 113.96L47.6405 109.443Z" fill="#F360A5"/>
<path d="M32.9595 123.758C32.0809 123.758 31.3655 123.046 31.3655 122.168C31.3655 121.372 31.9472 120.713 32.7096 120.595C35.7569 119.99 45.8041 118.125 51.5472 118.588C52.4229 118.658 53.0751 119.426 53.0046 120.302C52.9338 121.177 52.1667 121.828 51.2909 121.759C45.7806 121.312 35.313 123.321 33.27 123.728C33.1678 123.748 33.0639 123.758 32.9595 123.758Z" fill="#D6468C"/>
<path d="M30.4044 121.073C29.6204 121.073 28.9692 120.508 28.8377 119.762C28.6135 118.717 28.7104 117.09 30.3396 115.136C33.7657 111.027 42.05 107.557 47.7239 107.854C48.6012 107.9 49.275 108.649 49.229 109.526C49.1833 110.403 48.4358 111.081 47.5572 111.031C42.8972 110.786 35.5721 113.829 32.7833 117.174C32.1444 117.94 31.8415 118.646 31.952 119.111C31.9806 119.231 31.9952 119.355 31.9952 119.479C31.9952 120.357 31.283 121.073 30.4044 121.073Z" fill="#D6468C"/>
<path d="M52.5978 132.49C52.1904 132.49 51.7833 132.334 51.4728 132.024C48.9853 129.536 49.1066 124.997 49.4003 122.513C49.828 118.895 51.1102 115.111 52.747 112.639C53.2319 111.907 54.2187 111.706 54.9516 112.191C55.6838 112.676 55.8848 113.663 55.3996 114.396C52.5933 118.635 51.2521 127.304 53.7224 129.774C54.3438 130.396 54.3438 131.403 53.7224 132.024C53.4119 132.334 53.0045 132.49 52.5978 132.49Z" fill="#DADBD8"/>
<path d="M61.7354 115.851C49.8789 115.851 44.8201 112.294 44.8201 103.956C44.8201 95.4898 51.5177 92.8807 57.1363 92.1828C58.0079 92.0751 58.8027 92.6933 58.911 93.5653C59.0192 94.4372 58.4004 95.2317 57.5285 95.3399C48.9892 96.4008 48.0017 100.766 48.0017 103.956C48.0017 108.365 49.0619 112.669 61.7354 112.669C62.614 112.669 63.3262 113.382 63.3262 114.26C63.3262 115.138 62.614 115.851 61.7354 115.851Z" fill="#4F4F52"/>
<path d="M65.277 132.49C64.3984 132.49 63.6862 131.777 63.6862 130.899V127.884C63.6862 126.558 62.6072 125.48 61.2812 125.48H56.9292C56.0506 125.48 55.3384 124.767 55.3384 123.889C55.3384 123.01 56.0506 122.298 56.9292 122.298H61.2812C64.3615 122.298 66.8675 124.804 66.8675 127.884V130.899C66.8675 131.777 66.1553 132.49 65.277 132.49Z" fill="#DADBD8"/>
<path d="M36.8369 138.946C36.4162 138.946 35.9961 138.781 35.6833 138.451L19.8791 121.815C18.8827 120.767 18.3546 119.393 18.3915 117.947C18.4286 116.501 19.0265 115.157 20.075 114.161C21.1238 113.165 22.4971 112.638 23.9431 112.674C25.3891 112.711 26.7338 113.309 27.7293 114.358L42.4028 129.803C43.0081 130.44 42.9823 131.447 42.3454 132.052C41.7087 132.658 40.7015 132.632 40.0963 131.995L25.4221 116.548C25.0116 116.116 24.4575 115.869 23.8615 115.854C23.2614 115.838 22.6984 116.057 22.2659 116.468C21.8338 116.878 21.5874 117.433 21.5721 118.029C21.5566 118.625 21.7744 119.191 22.1853 119.624L37.9899 136.26C38.5951 136.897 38.569 137.904 37.9324 138.509C37.6244 138.801 37.2303 138.946 36.8369 138.946Z" fill="#DADBD8"/>
<path d="M101.662 124.785H89.8171C88.9385 124.785 88.2263 124.073 88.2263 123.194C88.2263 122.316 88.9385 121.603 89.8171 121.603H101.662C102.541 121.603 103.253 122.316 103.253 123.194C103.253 124.073 102.541 124.785 101.662 124.785Z" fill="#DADBD8"/>
<path d="M31.3154 83.6915C30.4371 83.6915 29.7246 82.979 29.7246 82.1007C29.7246 81.2221 30.4371 80.5099 31.3154 80.5099C34.7774 80.5099 37.5942 77.6906 37.5942 74.2248C37.5942 73.9866 37.5805 73.7415 37.552 73.4757C37.183 70.3306 34.5012 67.9463 31.3154 67.9463C30.4371 67.9463 29.7246 67.2341 29.7246 66.3555C29.7246 65.4769 30.4371 64.7647 31.3154 64.7647C36.1145 64.7647 40.155 68.3575 40.7139 73.122C40.7561 73.518 40.7758 73.873 40.7758 74.2248C40.7758 79.4446 36.5321 83.6915 31.3154 83.6915Z" fill="#FBDE8E"/>
<path d="M95.769 61.0582C95.769 61.0582 74.4607 61.2287 74.4607 50.1861C74.4607 39.1435 90.9775 44.7119 95.769 44.7119C100.561 44.7119 117.078 39.1435 117.078 50.1861C117.078 61.2287 95.769 61.0582 95.769 61.0582Z" fill="white"/>
<path d="M82.9764 60.0129C80.4232 50.3773 84.3377 43.1396 84.5056 42.836L87.2894 44.3767C87.257 44.436 83.8388 50.846 86.0517 59.1985L82.9764 60.0129Z" fill="#DADBD8"/>
<path d="M108.565 60.0123L105.489 59.1991C107.698 50.8459 104.28 44.436 104.245 44.3722L107.032 42.8363C107.199 43.1396 111.113 50.377 108.565 60.0123Z" fill="#DADBD8"/>
<path d="M97.3598 61.0582H94.1782V44.7119H97.3598V61.0582Z" fill="#DADBD8"/>
<path d="M95.7819 59.4675C95.8467 59.4672 99.114 59.4808 102.976 58.8476C107.924 58.0367 111.607 56.5494 113.624 54.5464C114.878 53.3017 115.487 51.8754 115.487 50.1862C115.487 48.4417 115.015 47.1913 114.042 46.3628C111.264 43.9947 104.667 45.0546 100.301 45.756C98.4745 46.0494 96.8971 46.3028 95.7692 46.3028C94.6414 46.3028 93.0642 46.0494 91.2375 45.756C86.8721 45.0546 80.2752 43.995 77.4965 46.3628C76.5242 47.1913 76.0517 48.4417 76.0517 50.1862C76.0517 51.8754 76.6611 53.3017 77.9147 54.5464C79.9319 56.5494 83.614 58.0367 88.5626 58.8476C92.4434 59.4837 95.7245 59.4675 95.7572 59.4675C95.7651 59.4675 95.774 59.4675 95.7819 59.4675ZM95.8616 62.6494C95.7803 62.6494 95.7581 62.6494 95.6768 62.6494C94.2791 62.6494 81.4062 62.4916 75.6764 56.8075C73.8145 54.9602 72.8701 52.7324 72.8701 50.1862C72.8701 47.4913 73.7325 45.3902 75.4329 43.941C79.3293 40.621 86.5035 41.7733 91.742 42.6147C93.4341 42.8865 94.8954 43.1212 95.7692 43.1212C96.6431 43.1212 98.1043 42.8865 99.7967 42.6147C105.035 41.7733 112.209 40.6207 116.106 43.9414C117.806 45.3902 118.669 47.4913 118.669 50.1862C118.669 52.7324 117.724 54.9602 115.862 56.8072C110.133 62.4913 97.261 62.6494 95.8616 62.6494Z" fill="#9D7B8A"/>
<path d="M108.233 154.173H113.548C121.406 154.173 127.776 146.094 127.776 136.13C127.776 126.164 121.406 118.086 113.548 118.086H108.233C100.375 118.086 94.0049 126.164 94.0049 136.13C94.0049 146.094 100.375 154.173 108.233 154.173Z" fill="#65686B"/>
<path d="M108.233 146.046C107.355 146.046 106.643 145.333 106.643 144.455C106.643 143.576 107.355 142.864 108.233 142.864C111.141 142.864 113.506 139.843 113.506 136.129C113.506 132.416 111.141 129.394 108.233 129.394C107.355 129.394 106.643 128.682 106.643 127.804C106.643 126.925 107.355 126.213 108.233 126.213C112.895 126.213 116.688 130.661 116.688 136.129C116.688 141.597 112.895 146.046 108.233 146.046Z" fill="#4F4F52"/>
<path d="M108.233 119.677C101.265 119.677 95.5954 127.057 95.5954 136.13C95.5954 145.202 101.265 152.582 108.233 152.582H113.548C120.516 152.582 126.186 145.202 126.186 136.13C126.186 127.057 120.516 119.677 113.548 119.677H108.233ZM113.548 155.764H108.233C99.5102 155.764 92.4141 146.956 92.4141 136.13C92.4141 132.977 93.0158 129.995 94.0843 127.352C96.6848 120.92 104.708 117.863 110.89 117.863L113.548 116.495C122.271 116.495 129.367 125.303 129.367 136.13C129.367 146.956 122.271 155.764 113.548 155.764Z" fill="#4F4F52"/>
<path d="M101.985 121.136L102.743 125.342L104.77 136.626C104.967 137.729 106.312 138.41 107.765 138.149C109.217 137.888 110.237 136.779 110.039 135.677L108.039 124.526L106.993 118.718" fill="white"/>
<path d="M107.145 139.796C106.41 139.796 105.697 139.633 105.076 139.317C104.069 138.806 103.386 137.927 103.203 136.907L100.419 121.418C100.263 120.554 100.838 119.726 101.702 119.57C102.567 119.416 103.395 119.989 103.55 120.854L106.335 136.345C106.38 136.439 106.815 136.703 107.483 136.584C108.154 136.463 108.465 136.062 108.473 135.951L105.925 121.762C105.769 120.897 106.344 120.07 107.209 119.914C108.071 119.759 108.9 120.333 109.056 121.198L111.605 135.396C111.963 137.395 110.4 139.291 108.046 139.715C107.745 139.769 107.443 139.796 107.145 139.796Z" fill="#DADBD8"/>
<path d="M95.6111 127.804C103.018 122.128 108.963 123.013 113.367 125.809C117.771 128.605 116.572 132.743 123.559 132.743C130.545 132.743 130.068 125.405 127.776 122.535C124.145 117.989 115.209 114.353 106.595 117.071C97.9804 119.79 95.6111 127.804 95.6111 127.804Z" fill="#F360A5"/>
<path d="M106.249 122.038C108.79 122.038 111.479 122.726 114.22 124.466C116.119 125.672 117.139 127.117 117.959 128.278C119.225 130.07 119.988 131.153 123.559 131.153C125.438 131.153 126.693 130.524 127.29 129.283C128.141 127.515 127.574 124.831 126.533 123.528C122.168 118.062 113.033 116.708 107.073 118.588C103.73 119.643 101.428 121.564 99.8894 123.418C101.845 122.583 103.988 122.038 106.249 122.038ZM123.559 134.334C118.34 134.334 116.756 132.091 115.36 130.113C114.6 129.037 113.883 128.021 112.515 127.152C107.57 124.012 102.358 124.639 96.5789 129.066C96.0321 129.486 95.2776 129.505 94.7102 129.115C94.1425 128.724 93.8904 128.013 94.0856 127.353C94.1923 126.992 96.8024 118.493 106.116 115.554C115.176 112.696 124.876 116.354 129.02 121.543C130.715 123.665 131.603 127.657 130.157 130.663C129.497 132.034 127.763 134.334 123.559 134.334Z" fill="#D6468C"/>
<path d="M83.4631 140.755C81.6183 140.755 79.9843 140.156 78.5852 138.963C76.0133 136.771 74.4091 132.632 73.8176 126.66C73.5388 123.846 73.5559 121.306 73.6032 119.859C71.8048 119.273 67.8452 117.976 61.2314 115.769C58.6166 114.899 56.6972 113.183 55.5271 110.671C52.3321 103.809 55.556 92.5594 58.823 84.33C59.1472 83.513 60.0725 83.1142 60.8882 83.4384C61.7049 83.7626 62.104 84.6872 61.7798 85.5039C57.4881 96.3151 56.2917 104.776 58.4115 109.328C59.2085 111.039 60.4599 112.159 62.2377 112.751C71.6809 115.902 75.697 117.193 75.7364 117.205C76.435 117.43 76.8897 118.104 76.8366 118.836C76.5623 122.624 76.7128 133.189 80.6508 136.543C81.8043 137.526 83.2326 137.799 85.0158 137.378C86.3891 137.053 87.3757 136.312 88.0317 135.112C89.9095 131.678 89.1119 124.37 85.843 115.061C84.8866 112.334 82.8042 110.153 80.1297 109.077L72.6237 106.056C71.8086 105.729 71.4139 104.802 71.7416 103.987C72.0696 103.172 72.9965 102.777 73.8112 103.105L81.3176 106.125C84.8418 107.544 87.5856 110.417 88.8452 114.007C91.4054 121.299 93.8272 131.145 90.8231 136.638C89.7251 138.646 88.0174 139.937 85.7477 140.474C84.9545 140.661 84.1921 140.755 83.4631 140.755Z" fill="#9D7B8A"/>
<path d="M58.0842 82.0813C58.0842 90.5749 60.2282 97.7262 64.4706 97.7262C68.7128 97.7262 69.8038 88.0292 66.4098 80.8776" fill="#BE9AAA"/>
<path d="M64.4706 99.3171C59.5505 99.3171 56.4937 92.7126 56.4937 82.0815C56.4937 81.2029 57.2062 80.4906 58.0845 80.4906C58.9631 80.4906 59.6753 81.2029 59.6753 82.0815C59.6753 90.2248 61.6919 96.1355 64.4706 96.1355C64.6354 96.1355 65.1358 96.1355 65.6972 95.248C67.2566 92.7815 67.3429 86.5532 64.9729 81.5598C64.5963 80.7663 64.9342 79.8175 65.728 79.4406C66.5218 79.0637 67.4706 79.4022 67.8471 80.196C70.5236 85.8349 70.7601 93.1936 68.386 96.9484C67.4201 98.4757 66.0296 99.3171 64.4706 99.3171Z" fill="#9D7B8A"/>
<path d="M69.4415 74.5639C68.2362 70.1684 64.2013 69.4257 59.8055 70.631C55.4097 71.8363 52.3179 74.5334 53.5232 78.9289C54.7289 83.3248 59.2692 85.911 63.6651 84.7057C68.0606 83.5004 70.6471 78.9597 69.4415 74.5639Z" fill="#BE9AAA"/>
<path d="M63.3103 71.7043C62.3841 71.7043 61.3455 71.8583 60.2265 72.165C57.2954 72.969 54.0195 74.7218 55.0578 78.5086C55.5284 80.2245 56.6391 81.6549 58.1854 82.5355C59.7318 83.4163 61.5287 83.6424 63.2446 83.1718C64.9608 82.7009 66.391 81.5902 67.2718 80.0438C68.1526 78.4975 68.3784 76.7009 67.9078 74.9847C67.4817 73.431 66.6304 72.4556 65.3053 72.0025C64.724 71.8034 64.0533 71.7043 63.3103 71.7043ZM61.4674 86.5947C59.781 86.5947 58.1159 86.1572 56.6108 85.3002C54.3259 83.9986 52.6849 81.8855 51.9895 79.3497C50.6762 74.5598 53.4406 70.7269 59.385 69.0971C62.0199 68.3744 64.4233 68.3379 66.3351 68.992C68.6654 69.789 70.2705 71.5703 70.9757 74.1432C71.6714 76.679 71.3377 79.3338 70.0362 81.6188C68.7349 83.9034 66.6218 85.5447 64.086 86.2397C63.2205 86.4772 62.3409 86.5947 61.4674 86.5947Z" fill="#9D7B8A"/>
</svg>
