<svg width="156" height="137" viewBox="0 0 156 137" fill="none" xmlns="http://www.w3.org/2000/svg">
<path d="M140.958 120.827C142.689 108.295 113.482 93.9051 75.7223 88.6849C37.9623 83.4648 5.94807 89.392 4.21741 101.924C2.48371 114.455 31.6902 128.846 69.4502 134.066C107.21 139.286 139.224 133.359 140.958 120.827Z" fill="#DBBFCA"/>
<path d="M25.0445 81.0823C10.9297 77.7281 3.88696 69.6175 6.30245 57.1759C8.72097 44.7342 13.0768 30.6924 13.0768 30.6924L74.752 40.4177L143.382 59.1573L144.855 77.0708L84.4555 94.6651" fill="#65686B"/>
<path d="M97.6692 75.7816C95.4738 81.8894 102.052 90.7407 102.052 90.7407L130.641 83.2362L124.952 66.6485L97.6692 75.7816Z" fill="#BE9AAA"/>
<path d="M102.056 92.2617C101.59 92.262 101.131 92.05 100.832 91.6479C100.543 91.2598 93.794 82.0641 96.2354 75.2674C96.5208 74.4771 97.3909 74.0665 98.1824 74.3501C98.9739 74.634 99.3824 75.5053 99.1 76.2959C97.5271 80.677 101.577 87.5533 103.274 89.8333C103.774 90.5076 103.635 91.4603 102.96 91.9614C102.686 92.1638 102.369 92.2614 102.056 92.2617Z" fill="#9D7B8A"/>
<path d="M132.52 85.6942C132.058 85.6945 131.598 85.4825 131.3 85.0804C131.01 84.6923 124.262 75.4966 126.703 68.7C126.988 67.9097 127.859 67.499 128.65 67.7826C129.439 68.0668 129.85 68.9378 129.568 69.7284C127.992 74.1095 132.045 80.9861 133.739 83.2661C134.242 83.9401 134.102 84.8928 133.427 85.394C133.153 85.5963 132.837 85.6939 132.52 85.6942Z" fill="#9D7B8A"/>
<path d="M138.83 48.4745C139.319 51.564 139.468 54.7141 139.273 57.9253C139.147 60.0545 138.716 62.1334 137.884 64.0131C136.128 68.0634 132.838 71.3641 128.606 73.0468C118.749 76.9698 108.515 78.808 97.9151 78.5512C93.2282 78.4381 88.9081 76.4589 85.7891 73.198C84.0504 75.7875 81.3038 77.6961 77.9931 78.2828C71.5269 79.4271 65.3576 75.1136 64.2141 68.6496C63.0677 62.1809 67.3812 56.0156 73.8474 54.8709C75.6396 54.5533 77.4171 54.6535 79.0639 55.108C78.5801 43.9674 85.8819 33.66 96.8536 30.4916C101.901 29.0391 107.041 28.107 112.275 27.7081C123.888 26.8216 134.417 33.9625 137.917 44.7045C138.31 45.9176 138.625 47.1755 138.83 48.4745Z" fill="#BE9AAA"/>
<path d="M99.8914 80.0943C99.2219 80.0949 98.5493 80.0872 97.8767 80.071C93.4395 79.9638 89.2687 78.3399 85.9613 75.4609C83.9637 77.7304 81.2837 79.243 78.256 79.7789C70.9744 81.0682 64.0042 76.1938 62.714 68.913C62.0903 65.386 62.8757 61.8271 64.9275 58.8919C66.9794 55.9565 70.0547 53.9959 73.5814 53.3713C74.902 53.1374 76.2259 53.1005 77.5346 53.2601C77.7009 48.1563 79.4072 43.1279 82.4258 38.9226C85.8458 34.1637 90.8188 30.651 96.4294 29.0323C101.553 27.5539 106.848 26.5983 112.161 26.1922C124.413 25.2559 135.6 32.6745 139.365 44.2316C139.624 45.0302 139.187 45.8888 138.39 46.1491C137.59 46.4093 136.731 45.9724 136.472 45.174C133.143 34.9547 123.238 28.3958 112.395 29.2254C107.285 29.6154 102.198 30.5337 97.2717 31.955C92.3153 33.3854 87.9202 36.4901 84.8985 40.6973C81.895 44.8767 80.3623 49.9713 80.5855 55.0431C80.6042 55.5292 80.3915 55.9959 80.0113 56.299C79.6311 56.6018 79.1291 56.7048 78.6603 56.5758C77.1718 56.1662 75.6409 56.0959 74.1103 56.3668C71.3839 56.8495 69.0083 58.3652 67.4215 60.635C65.8347 62.9045 65.2282 65.6558 65.7113 68.3826C66.708 74.0117 72.0977 77.7802 77.7271 76.7835C80.5236 76.2882 82.9387 74.7134 84.5254 72.349C84.7807 71.9665 85.1975 71.7209 85.657 71.6813C86.1165 71.6413 86.5671 71.812 86.8869 72.1447C89.8049 75.1933 93.7322 76.9282 97.9504 77.0297C108.292 77.2804 118.422 75.4641 128.045 71.6342C131.848 70.1207 134.846 67.1991 136.492 63.4082C136.827 62.638 137.721 62.2839 138.491 62.6184C139.262 62.9525 139.615 63.8482 139.281 64.6187C137.316 69.1525 133.724 72.6476 129.17 74.4606C119.787 78.1938 109.95 80.0862 99.8914 80.0943Z" fill="#9D7B8A"/>
<path d="M106.964 72.3969C114.524 72.4741 121.836 71.1641 128.903 68.4669C133.242 66.8117 136.245 62.9774 136.628 58.651C136.824 56.3875 136.753 54.1726 136.407 52.0057C135.052 43.5211 126.87 37.6787 117.655 38.4479C113.918 38.7598 110.242 39.4226 106.628 40.4359C98.0351 42.8453 92.4967 50.9064 93.9428 59.0727C94.3341 61.2855 95.0115 63.4478 95.9749 65.5594C97.856 69.6801 102.122 72.3475 106.964 72.3969Z" fill="#FBEAB0"/>
<path d="M105.56 56.2777C105.765 57.4468 104.972 58.5653 103.782 58.776C102.592 58.9863 101.462 58.209 101.254 57.0399C101.047 55.8708 101.843 54.7523 103.033 54.5417C104.22 54.3313 105.352 55.1083 105.56 56.2777Z" fill="#4F4F52"/>
<path d="M132.572 51.4947C132.78 52.6641 131.983 53.7826 130.794 53.9929C129.607 54.2036 128.474 53.4263 128.266 52.2572C128.061 51.0877 128.855 49.9693 130.045 49.7589C131.234 49.5483 132.364 50.3256 132.572 51.4947Z" fill="#4F4F52"/>
<path d="M71.4929 67.438C71.0771 65.087 72.6456 62.8437 74.9948 62.4273C77.347 62.0112 79.5913 63.5795 80.0071 65.9305C80.4229 68.2818 78.8543 70.5251 76.5052 70.9412C74.1529 71.3576 71.9087 69.789 71.4929 67.438Z" fill="#9D7B8A"/>
<path d="M137.885 65.5344C137.678 65.5345 137.471 65.4924 137.27 65.4037C136.499 65.0634 136.155 64.165 136.495 63.3969C137.209 61.7845 137.63 59.9134 137.754 57.8359C137.94 54.7476 137.797 51.679 137.326 48.7124C137.146 47.5558 136.859 46.3663 136.471 45.1739C136.212 44.3746 136.649 43.5169 137.447 43.2576C138.247 42.998 139.105 43.4358 139.365 44.2345C139.801 45.5794 140.125 46.9267 140.333 48.2385C140.837 51.4203 140.989 54.7113 140.791 58.0172C140.647 60.4563 140.137 62.6818 139.275 64.6287C139.023 65.1962 138.469 65.5339 137.885 65.5344Z" fill="#9D7B8A"/>
<path d="M122.343 72.9809C116.009 72.986 110.861 78.6819 110.867 85.6781C110.873 92.6742 116.03 98.3618 122.363 98.3567C128.696 98.3516 133.844 92.6557 133.839 85.6595C133.833 78.6633 128.676 72.9757 122.343 72.9809ZM122.365 101.399C114.355 101.405 107.834 94.3539 107.827 85.6805C107.82 77.0071 114.33 69.9454 122.34 69.939C130.35 69.9325 136.872 76.9836 136.879 85.657C136.886 94.3304 130.376 101.392 122.365 101.399Z" fill="#4F4F52"/>
<path d="M136.752 76.51C136.75 73.4441 134.718 70.9602 132.216 70.9623C129.715 70.9643 127.69 73.4515 127.692 76.5174C127.695 79.5836 129.724 82.0675 132.225 82.0655C134.727 82.0635 136.755 79.5763 136.752 76.51Z" fill="#BE9AAA"/>
<path d="M115.228 81.3192C115.225 78.253 113.196 75.7691 110.695 75.7711C108.193 75.7731 106.165 78.2603 106.168 81.3265C106.17 84.3924 108.202 86.8764 110.704 86.8743C113.205 86.8723 115.23 84.3851 115.228 81.3192Z" fill="#BE9AAA"/>
<path d="M132.218 72.4833C130.586 72.4846 129.209 74.3316 129.211 76.5161C129.213 78.701 130.593 80.5457 132.224 80.5444C133.855 80.543 135.233 78.6961 135.231 76.5112C135.229 74.3267 133.849 72.482 132.218 72.4833ZM132.227 83.5862C128.891 83.5889 126.174 80.4184 126.171 76.5186C126.167 72.6188 128.88 69.4438 132.215 69.4411C135.554 69.4384 138.271 72.609 138.274 76.5088C138.277 80.4086 135.565 83.5835 132.227 83.5862Z" fill="#9D7B8A"/>
<path d="M110.696 77.2921C109.065 77.2935 107.688 79.1404 107.689 81.3253C107.691 83.5098 109.071 85.3545 110.702 85.3532C112.334 85.3519 113.711 83.5049 113.709 81.3204C113.707 79.1355 112.327 77.2908 110.696 77.2921ZM110.705 88.3951C107.366 88.3978 104.649 85.2272 104.646 81.3277C104.643 77.4279 107.355 74.253 110.694 74.2503C114.029 74.2476 116.746 77.4181 116.749 81.3179C116.753 85.2174 114.041 88.3924 110.705 88.3951Z" fill="#9D7B8A"/>
<path d="M76.6172 55.2441C74.2534 52.4838 68.7626 51.7399 63.507 55.8335C58.3668 59.6656 53.4619 68.3355 54.9764 78.3685C56.0406 88.4593 62.9761 95.6111 68.9156 98.0224C75.0349 100.657 80.1612 98.5517 81.7502 95.2852C85.1075 88.3083 77.5328 84.7927 76.4146 75.6194C75.1837 66.4609 81.6253 61.148 76.6172 55.2441Z" fill="#F3F588"/>
<path d="M75.9946 94.4307C75.7663 94.4309 75.535 94.3788 75.3127 94.2688C74.7556 93.9889 61.6486 87.2613 61.0688 74.1109C60.7402 66.655 64.4306 61.4057 67.584 58.315C68.1831 57.7272 69.1448 57.7367 69.7326 58.3367C70.3235 58.9364 70.3121 59.8993 69.7131 60.4875C67.0006 63.1446 63.83 67.6419 64.109 73.9767C64.6082 85.3243 76.5613 91.4901 76.68 91.5512C77.429 91.9295 77.731 92.8435 77.3543 93.593C77.0869 94.1237 76.5515 94.4303 75.9946 94.4307Z" fill="#FBDE8E"/>
<path d="M71.5492 73.049C71.5255 73.8893 72.2017 74.5887 73.0569 74.6118C73.9091 74.6345 74.6207 73.972 74.6444 73.1317C74.665 72.2914 73.9919 71.592 73.1366 71.5689C72.2814 71.5462 71.5728 72.2087 71.5492 73.049Z" fill="#4F4F52"/>
<path d="M60.8517 72.7631C60.828 73.6031 61.5042 74.3029 62.3594 74.3256C63.2116 74.3487 63.9232 73.6858 63.9469 72.8459C63.9675 72.0056 63.2943 71.3061 62.4391 71.2831C61.5839 71.2603 60.8753 71.9228 60.8517 72.7631Z" fill="#4F4F52"/>
<path d="M71.099 54.4846C69.0873 54.4862 66.7293 55.252 64.4391 57.0333L64.4148 57.0525C59.6001 60.6418 55.066 68.7721 56.4796 78.1414L56.4888 78.209C57.4824 87.6319 63.9245 94.3546 69.4866 96.6131L69.517 96.6253C74.6347 98.8294 79.0615 97.3361 80.3832 94.6195C81.9479 91.3664 80.6679 89.1455 78.7296 85.7838C77.1783 83.0951 75.4229 80.0474 74.9052 75.8032C74.3387 71.585 75.2703 68.193 76.0896 65.2005C77.1183 61.4594 77.7949 58.9876 75.4584 56.2301C74.5172 55.1307 72.9554 54.4831 71.099 54.4846ZM74.3836 100.753C72.5302 100.755 70.4878 100.353 68.3293 99.4255C61.9606 96.8332 54.6047 89.2052 53.467 78.562C51.882 67.9761 57.0787 58.7381 62.5838 54.6236C65.9993 51.9686 69.1366 51.431 71.1604 51.4476C73.8538 51.4701 76.2649 52.4932 77.7728 54.2549L77.7759 54.2601C81.1542 58.243 80.1194 62.0136 79.024 66.0052C78.2442 68.8507 77.437 71.7931 77.9239 75.4164C78.3681 79.0647 79.8919 81.7082 81.3639 84.2646C83.4332 87.851 85.3867 91.2382 83.1202 95.9444C81.7894 98.6818 78.5743 100.75 74.3836 100.753Z" fill="#FBDE8E"/>
<path d="M67.6399 78.534C67.6065 78.534 67.573 78.5337 67.5395 78.5328C66.599 78.5077 65.7253 78.1177 65.0765 77.4343C64.4307 76.7513 64.0861 75.8568 64.1127 74.9155C64.1334 74.1729 64.7416 73.5841 65.4781 73.5835C65.4903 73.5835 65.5055 73.5838 65.5177 73.5841C66.2725 73.6045 66.8695 74.2337 66.8488 74.9893C66.8429 75.199 66.9191 75.3986 67.0653 75.551C67.2085 75.7033 67.4033 75.7905 67.6133 75.7961C68.0333 75.8092 68.4105 75.4647 68.4223 75.0307C68.4399 74.2753 69.0573 73.6792 69.8273 73.6993C70.5821 73.7197 71.179 74.3489 71.1584 75.1046C71.1051 77.0137 69.536 78.5324 67.6399 78.534Z" fill="#4F4F52"/>
<path d="M74.6311 60.5303C73.2799 60.5314 72.0164 59.9514 71.1269 58.9104C70.3074 57.9475 69.9138 56.6741 70.0498 55.4162C70.1887 54.1582 70.8452 52.9991 71.8549 52.2356L76.3412 48.841C77.5487 47.9279 79.2134 47.8654 80.4862 48.6858C82.164 49.7673 82.6467 52.0114 81.5646 53.6883L78.5159 58.4165C77.7165 59.6549 76.4176 60.4214 74.9446 60.5197C74.8412 60.5268 74.7377 60.5302 74.6311 60.5303Z" fill="#4F4F52"/>
<path d="M46.9538 47.6382C44.5899 44.8779 39.0991 44.134 33.8435 48.2276C28.7034 52.06 23.7984 60.7296 25.313 70.7626C26.3772 80.8535 33.3127 88.0052 39.2522 90.4168C45.3714 93.0513 50.4978 90.9461 52.0868 87.6793C55.444 80.7024 47.8694 77.1868 46.7511 68.0135C45.5203 58.855 51.9588 53.5425 46.9538 47.6382Z" fill="#F3F588"/>
<path d="M46.3311 86.8248C46.1029 86.825 45.8685 86.7731 45.6493 86.6631C45.0921 86.383 31.9851 79.6557 31.4054 66.505C31.0768 59.0491 34.7671 53.8 37.9206 50.7094C38.5196 50.1212 39.4813 50.1308 40.0692 50.7308C40.657 51.3307 40.6487 52.2936 40.0496 52.8818C37.3371 55.5387 34.1666 60.036 34.4456 66.371C34.9447 77.7183 46.8948 83.8845 47.0166 83.9452C47.7655 84.3235 48.0676 85.2378 47.6908 85.9874C47.4234 86.5177 46.888 86.8243 46.3311 86.8248Z" fill="#FBDE8E"/>
<path d="M41.8857 65.4431C41.8621 66.2834 42.5383 66.9832 43.3904 67.0059C44.2457 67.0287 44.9573 66.3662 44.9809 65.5259C45.0016 64.6859 44.3284 63.9861 43.4732 63.9634C42.618 63.9403 41.9094 64.6031 41.8857 65.4431Z" fill="#4F4F52"/>
<path d="M31.1882 65.1573C31.1645 65.9976 31.8408 66.697 32.6929 66.72C33.5481 66.7428 34.2597 66.0803 34.2804 65.24C34.304 64.4 33.6309 63.7002 32.7757 63.6775C31.9205 63.6545 31.2119 64.3173 31.1882 65.1573Z" fill="#4F4F52"/>
<path d="M41.4355 46.8789C39.4239 46.8806 37.0628 47.646 34.7757 49.4276L34.7513 49.4468C29.9366 53.0358 25.4025 61.1661 26.8161 70.5354L26.8253 70.603C27.819 80.0262 34.2611 86.7489 39.8231 89.0071L39.8536 89.0196C44.9712 91.2234 49.3981 89.7301 50.7197 87.0135C52.2844 83.7607 51.0044 81.5398 49.0661 78.1781C47.5149 75.4891 45.7595 72.4414 45.2417 68.1975C44.6753 63.9793 45.6069 60.587 46.4261 57.5945C47.4548 53.8534 48.1315 51.3819 45.795 48.6244C44.8537 47.525 43.2889 46.8774 41.4355 46.8789ZM44.7202 93.1476C42.8668 93.1491 40.8213 92.7469 38.6629 91.8198C32.2971 89.2275 24.9413 81.5992 23.8036 70.956C22.2186 60.3701 27.4122 51.1324 32.9203 47.0179C36.2811 44.4061 39.3666 43.843 41.3965 43.8414C41.43 43.8414 41.4635 43.8413 41.4969 43.8416C44.1903 43.8641 46.6015 44.8874 48.1094 46.6492L48.1124 46.6541C51.4907 50.6369 50.456 54.4076 49.3606 58.3992C48.5807 61.2447 47.7736 64.1874 48.2604 67.8107C48.7046 71.459 50.2285 74.1025 51.7005 76.6589C53.7698 80.245 55.7203 83.6325 53.4568 88.3384C52.126 91.0761 48.9109 93.1442 44.7202 93.1476Z" fill="#FBDE8E"/>
<path d="M37.9765 70.9282C37.943 70.9283 37.9095 70.9277 37.876 70.9268C36.9356 70.9017 36.0619 70.5116 35.4131 69.8286C34.7643 69.1453 34.4227 68.2508 34.4493 67.3097C34.47 66.5541 35.0843 65.9583 35.8543 65.9783C36.609 65.9984 37.2061 66.6276 37.1854 67.3833C37.1795 67.5933 37.2557 67.7926 37.3989 67.945C37.5451 68.0976 37.7399 68.1845 37.9499 68.1901C38.3882 68.2038 38.744 67.8586 38.7558 67.425C38.7765 66.6693 39.3999 66.0726 40.1608 66.0933C40.9186 66.1136 41.5156 66.7428 41.4949 67.4985C41.4417 69.408 39.8725 70.9264 37.9765 70.9282Z" fill="#4F4F52"/>
<path d="M44.9677 52.9243C43.6164 52.9254 42.353 52.3454 41.4634 51.3044C40.644 50.3421 40.2504 49.0688 40.3863 47.8109C40.5253 46.5529 41.1817 45.3935 42.1915 44.63L46.6778 41.2354C47.8853 40.322 49.5499 40.2595 50.8228 41.0802C51.6358 41.6039 52.1934 42.413 52.398 43.3578C52.6027 44.3026 52.427 45.2705 51.9011 46.0826L48.8524 50.8109C48.053 52.049 46.7511 52.8158 45.2812 52.9137C45.1777 52.9208 45.0712 52.9242 44.9677 52.9243Z" fill="#4F4F52"/>
<path d="M72.6022 129.252L77.0425 129.248C83.6102 129.243 88.932 124.122 88.9269 117.811C88.9218 111.499 83.5917 106.387 77.0241 106.393L72.5837 106.396C66.0161 106.401 60.6943 111.522 60.6994 117.834C60.7045 124.145 66.0346 129.257 72.6022 129.252Z" fill="#65686B"/>
<path d="M72.5982 124.618C71.7583 124.619 71.076 123.938 71.0753 123.098C71.0746 122.258 71.7558 121.577 72.5958 121.576C74.9209 121.574 76.8095 119.89 76.8079 117.821C76.8062 115.752 74.9149 114.07 72.5897 114.072C71.7497 114.073 71.0675 113.392 71.0668 112.552C71.0661 111.712 71.7473 111.031 72.5872 111.03C76.5893 111.027 79.8452 114.072 79.8482 117.818C79.8512 121.564 76.6003 124.615 72.5982 124.618Z" fill="#4F4F52"/>
<path d="M72.585 107.917C66.8665 107.921 62.2167 112.369 62.2211 117.832C62.2256 123.295 66.8825 127.736 72.6011 127.731L77.0414 127.728C82.7599 127.723 87.4097 123.275 87.4053 117.812C87.4009 112.349 82.7439 107.909 77.0254 107.913L72.585 107.917ZM77.0439 130.769L72.6035 130.773C65.2081 130.779 59.1866 124.975 59.1808 117.835C59.175 110.695 65.1871 104.881 72.5826 104.875L77.0229 104.871C84.4184 104.865 90.4399 110.669 90.4456 117.81C90.4514 124.95 84.4393 130.763 77.0439 130.769Z" fill="#4F4F52"/>
<path d="M72.072 121.115C70.3007 121.117 68.857 119.675 68.8556 117.902C68.8541 116.129 70.2955 114.685 72.0668 114.683C72.9068 114.682 73.589 115.363 73.5897 116.203C73.5904 117.043 72.9092 117.724 72.0693 117.725C71.9749 117.725 71.8958 117.803 71.8959 117.899C71.896 117.995 71.9752 118.073 72.0695 118.073C72.9095 118.073 73.5918 118.753 73.5925 119.593C73.5932 120.433 72.912 121.115 72.072 121.115Z" fill="#4F4F52"/>
<path d="M22.2023 111.416L26.6426 111.413C33.2103 111.407 38.5321 106.286 38.527 99.9749C38.5219 93.6632 33.1918 88.5513 26.6242 88.5566L22.1838 88.5602C15.6162 88.5655 10.2944 93.6861 10.2995 99.9978C10.3046 106.309 15.6347 111.421 22.2023 111.416Z" fill="#65686B"/>
<path d="M22.1983 106.782C21.3584 106.783 20.6761 106.102 20.6754 105.262C20.6747 104.422 21.3559 103.741 22.1959 103.74C24.521 103.738 26.4096 102.054 26.4079 99.9848C26.4063 97.9159 24.515 96.2342 22.1898 96.236C21.3498 96.2367 20.6676 95.5565 20.6669 94.7165C20.6662 93.8762 21.3474 93.1948 22.1873 93.1942C26.1894 93.1909 29.4483 96.236 29.4513 99.9824C29.4544 103.729 26.2004 106.779 22.1983 106.782Z" fill="#4F4F52"/>
<path d="M22.1852 90.081C16.4666 90.0856 11.8169 94.5336 11.8213 99.9965C11.8257 105.459 16.4826 109.9 22.2012 109.895L26.6415 109.891C32.3601 109.887 37.0098 105.439 37.0054 99.9762C37.001 94.5133 32.344 90.0728 26.6255 90.0774L22.1852 90.081ZM26.644 112.934L22.2036 112.937C14.8082 112.943 8.78668 107.139 8.78091 99.999C8.77513 92.8589 14.7872 87.0451 22.1827 87.0391L26.623 87.0355C34.0185 87.0295 40.043 92.8336 40.0488 99.9737C40.0546 107.114 34.0394 112.928 26.644 112.934Z" fill="#4F4F52"/>
<path d="M21.6721 103.28C19.9008 103.281 18.4571 101.839 18.4557 100.066C18.4542 98.2928 19.8956 96.8488 21.6669 96.8473C22.5068 96.8467 23.1891 97.5269 23.1898 98.3672C23.1905 99.2072 22.5093 99.8885 21.6693 99.8892C21.575 99.8893 21.4959 99.9676 21.496 100.063C21.4961 100.16 21.5753 100.237 21.6696 100.237C22.5096 100.237 23.1919 100.917 23.1925 101.757C23.1932 102.597 22.512 103.279 21.6721 103.28Z" fill="#4F4F52"/>
<path d="M138.164 75.7708L100.141 87.5218C97.1108 88.4866 93.9471 86.4528 93.5763 83.2954L89.9022 52.266C89.2924 47.1022 92.4901 42.2491 97.477 40.78L131.354 30.8623C135.285 29.7036 139.286 32.45 139.624 36.5312L142.338 69.542C142.565 72.3387 140.836 74.9223 138.164 75.7708ZM74.7174 87.9335L58.4318 83.315C56.7301 82.8309 55.5998 81.2164 55.7262 79.4506L57.9473 48.7171C58.1158 46.3842 60.3635 44.7755 62.6252 45.3751L72.1743 47.8936C75.5166 48.8578 77.9475 51.7172 78.352 55.1796L81.5419 82.1021C81.9954 85.9211 78.419 88.9744 74.7174 87.9335ZM52.5672 45.6711L50.328 76.6454C50.1715 78.8537 48.0211 80.3592 45.8872 79.755L32.6213 75.9935C31.0293 75.5437 29.969 74.0324 30.0894 72.3782L32.3075 41.6621C32.464 39.4792 34.5687 37.9738 36.6874 38.5348L49.9683 42.0385C51.5968 42.4669 52.6906 43.9914 52.5672 45.6711ZM26.8733 39.3849L24.7574 68.6617C24.5708 71.2442 22.0585 72.9992 19.5715 72.2963L13.9644 70.7028C11.7574 70.0774 10.2828 68.0118 10.4057 65.7219L11.7189 41.3047C11.9768 36.5444 16.5422 33.2195 21.1478 34.4358L23.8417 35.147C25.7411 35.6437 27.0147 37.4257 26.8733 39.3849ZM143.978 31.8275C143.514 26.1998 139.566 21.4685 134.108 20.0121L59.751 2.31982C54.8471 1.00906 49.6342 1.50629 45.071 3.71945L17.8987 17.1157C8.71141 21.6428 2.80874 30.9149 2.59182 41.1575L1.59256 88.7659C1.52515 91.9667 3.54823 94.8349 6.58022 95.8465L7.73397 96.2278C17.1276 79.6793 31.9985 92.449 33.0097 104.654L59.2078 113.389C68.553 97.2398 83.1773 109.692 84.3526 121.772L92.4866 124.485L152.813 103.474L143.978 31.8275Z" fill="#F360A5"/>
<path d="M143.489 97.0791C145.512 96.0488 146.694 93.8843 146.473 91.6254L146.218 89.0475C145.982 86.6504 143.409 85.2419 141.264 86.3353C139.241 87.3659 138.056 89.5304 138.277 91.7893L138.532 94.3672C138.768 96.764 141.341 98.1725 143.489 97.0791Z" fill="#F3F588"/>
<path d="M107.299 110.181C109.322 109.15 110.507 106.985 110.283 104.726L110.031 102.149C109.795 99.7518 107.219 98.3433 105.075 99.4367C103.052 100.467 101.866 102.632 102.09 104.891L102.345 107.468C102.578 109.865 105.154 111.274 107.299 110.181Z" fill="#F3F588"/>
<path d="M142.814 87.4802C142.522 87.4804 142.227 87.5504 141.953 87.6906C140.478 88.4423 139.63 89.9927 139.793 91.6405L140.047 94.2181C140.109 94.8526 140.465 95.3919 141.025 95.6979C141.583 96.0036 142.228 96.0135 142.797 95.7242C144.272 94.9722 145.12 93.4221 144.96 91.7742L144.706 89.1964C144.644 88.5622 144.285 88.0229 143.728 87.7168C143.438 87.5588 143.128 87.48 142.814 87.4802ZM141.938 98.9734C141.122 98.9741 140.304 98.7714 139.564 98.3663C138.13 97.582 137.179 96.1426 137.019 94.5161L136.765 91.9385C136.479 89.0353 137.974 86.3042 140.572 84.98C142.03 84.2381 143.755 84.2638 145.186 85.0484C146.62 85.8328 147.571 87.2721 147.734 88.8984L147.985 91.4763C148.271 94.3788 146.779 97.11 144.178 98.4344C143.475 98.7935 142.705 98.9728 141.938 98.9734Z" fill="#FBDE8E"/>
<path d="M106.628 100.582C106.332 100.582 106.04 100.652 105.764 100.792C104.291 101.543 103.44 103.094 103.603 104.742L103.858 107.319C103.919 107.954 104.275 108.493 104.836 108.799C105.396 109.105 106.041 109.115 106.61 108.825C108.085 108.074 108.933 106.523 108.771 104.876L108.516 102.298C108.455 101.664 108.098 101.124 107.538 100.818C107.252 100.66 106.938 100.581 106.628 100.582ZM105.751 112.074C104.933 112.075 104.114 111.873 103.374 111.467C101.943 110.683 100.989 109.243 100.83 107.617L100.575 105.04C100.29 102.137 101.785 99.4056 104.383 98.0814C105.84 97.3395 107.565 97.3649 109 98.1495C110.434 98.9341 111.384 100.374 111.544 102L111.799 104.578C112.084 107.48 110.589 110.211 107.991 111.536C107.285 111.895 106.518 112.074 105.751 112.074Z" fill="#FBDE8E"/>
<path d="M85.7425 120.632L92.4762 122.878L151.154 102.442L142.469 32.0134C142.466 31.9933 142.463 31.9729 142.463 31.9526C142.051 26.9825 138.545 22.7791 133.735 21.4865L59.3991 3.7994C59.3839 3.79606 59.3717 3.79273 59.3565 3.78909C54.8088 2.5733 49.9702 3.03373 45.7325 5.08806L18.5724 18.4797C9.85664 22.7743 4.3187 31.476 4.11352 41.1893L3.11427 88.799C3.06154 91.3421 4.64285 93.5908 7.05384 94.3986C12.0111 86.5051 17.8269 86.4039 20.9317 87.0876C27.473 88.5289 33.3464 95.7761 34.4148 103.519L58.5398 111.563C63.4638 103.872 69.2004 103.771 72.2626 104.436C78.7065 105.835 84.5829 112.979 85.7425 120.632ZM92.4878 126.006C92.3265 126.006 92.1622 125.98 92.0069 125.928L83.8729 123.215C83.3006 123.025 82.8985 122.517 82.8402 121.919C82.1896 115.233 77.0501 108.588 71.6168 107.408C67.4375 106.5 63.6017 108.833 60.5231 114.151C60.1645 114.775 59.41 115.06 58.7281 114.832L32.53 106.097C31.9516 105.904 31.5464 105.386 31.4942 104.78C30.9348 98.0161 25.7983 91.2747 20.2767 90.0585C16.0366 89.124 12.1552 91.5173 9.05541 96.9787C8.6968 97.6105 7.94226 97.9011 7.25124 97.671L6.10361 97.2879C2.41408 96.0592 -0.0081698 92.6222 0.0738996 88.7351L1.07316 41.1255C1.29871 30.2724 7.49016 20.5497 17.225 15.7513L44.3973 2.35652C49.2952 -0.0182055 54.8763 -0.552256 60.1211 0.84344L134.46 18.5324C134.472 18.5354 134.487 18.5388 134.5 18.5424C140.548 20.1566 144.962 25.4302 145.491 31.6704L154.322 103.288C154.411 103.999 153.989 104.675 153.313 104.911L92.9869 125.921C92.8256 125.978 92.6583 126.006 92.4878 126.006Z" fill="#D6468C"/>
<path d="M97.8302 128.206C93.2854 126.793 90.1869 122.589 90.183 117.829C90.1809 115.254 92.7785 113.489 95.1714 114.439L97.5856 115.399C99.7105 116.244 102.075 116.293 104.232 115.524L147.667 100.076C149.906 99.2776 151.453 97.2166 151.588 94.8448L151.66 93.5967C153.32 94.4493 154.322 96.2051 154.214 98.0653L153.788 105.545C153.656 107.883 152.157 109.918 149.97 110.743L106.579 127.101L103.64 128.115C101.763 128.763 99.7267 128.795 97.8302 128.206Z" fill="white"/>
<path d="M98.3282 126.608C99.8928 127.095 101.542 127.069 103.094 126.534L106.012 125.527L149.381 109.178C150.948 108.586 152.021 107.123 152.117 105.449L152.547 97.9699C152.55 97.8926 152.553 97.8159 152.549 97.7392C151.708 99.5315 150.175 100.958 148.228 101.652L104.794 117.1C102.256 118.004 99.4776 117.952 96.9691 116.953L94.555 115.994C93.937 115.749 93.2675 115.823 92.72 116.196C92.1694 116.569 91.8565 117.163 91.857 117.827C91.8603 121.877 94.4591 125.406 98.3282 126.608ZM100.611 130.302C99.5089 130.303 98.4101 130.137 97.3356 129.803C92.0601 128.164 88.5138 123.353 88.5093 117.83C88.5079 116.065 89.38 114.42 90.84 113.428C92.3 112.437 94.1502 112.234 95.7881 112.885L98.2052 113.844C99.9588 114.542 101.9 114.579 103.671 113.948L147.105 98.4996C148.718 97.9255 149.822 96.4532 149.918 94.7494L149.99 93.5013C150.023 92.9361 150.339 92.4255 150.828 92.1445C151.321 91.8632 151.921 91.8496 152.423 92.1088C154.67 93.2635 156.029 95.6392 155.885 98.1611L155.459 105.64C155.288 108.633 153.364 111.25 150.562 112.309L107.171 128.666C107.156 128.672 107.14 128.677 107.125 128.682L104.186 129.697C103.021 130.099 101.816 130.301 100.611 130.302Z" fill="#DADBD8"/>
<path d="M97.9068 42.2409C93.6198 43.5046 90.8872 47.6449 91.4112 52.0853L95.0852 83.1162C95.2108 84.1694 95.7929 85.1027 96.685 85.6768C97.5772 86.2507 98.6669 86.3956 99.677 86.0734L137.715 74.3193C139.711 73.6829 140.994 71.7679 140.822 69.6669L138.105 36.6582C137.985 35.1695 137.208 33.8311 135.975 32.9863C134.744 32.1413 133.216 31.8991 131.783 32.3211L97.9068 42.2412L97.9068 42.2409ZM98.6053 89.2856C97.3575 89.2866 96.1186 88.93 95.0376 88.234C93.3812 87.1668 92.2964 85.4317 92.0665 83.4738L88.3924 52.4429C87.6907 46.5248 91.3322 41.0073 97.0493 39.323C97.0493 39.323 97.0493 39.3227 97.0493 39.3224L130.926 29.4026C133.238 28.7212 135.707 29.113 137.695 30.4778C139.687 31.8424 140.939 34.0043 141.139 36.409L143.853 69.4173C144.145 72.9389 141.993 76.1483 138.628 77.2217L100.589 88.9757C99.9382 89.1826 99.2687 89.285 98.6053 89.2856Z" fill="#D6468C"/>
<path d="M19.2192 35.7053C17.9654 35.7063 16.7362 36.1008 15.696 36.8576C14.233 37.9252 13.3365 39.5754 13.2376 41.386L11.9244 65.8055C11.8404 67.3942 12.8489 68.807 14.38 69.241L19.9872 70.8311C20.7329 71.0427 21.521 70.9087 22.1567 70.4651C22.7894 70.0212 23.1845 69.3239 23.2386 68.5524L25.3544 39.276C25.4447 38.0485 24.6434 36.9298 23.4532 36.6158L20.7624 35.9056C20.251 35.7708 19.7335 35.7049 19.2192 35.7053ZM20.6988 73.9722C20.1845 73.9726 19.6671 73.9018 19.1587 73.7577L13.5486 72.1672C10.6415 71.343 8.72508 68.6597 8.88698 65.6421L10.2002 41.2226C10.3471 38.4947 11.6994 36.0075 13.9075 34.3989C16.1127 32.7905 18.8938 32.2675 21.536 32.9641L24.2299 33.6747C26.8356 34.3616 28.5844 36.8095 28.3888 39.4954L26.273 68.7718C26.1527 70.46 25.2865 71.9852 23.8996 72.9562C22.9475 73.6244 21.8309 73.9713 20.6988 73.9722Z" fill="#D6468C"/>
<path d="M35.7906 39.9381C35.3859 39.9384 34.9842 40.0644 34.6466 40.3066C34.166 40.6494 33.8682 41.1838 33.8231 41.7721L31.605 72.4882C31.5388 73.418 32.139 74.2773 33.037 74.5316L46.3029 78.2934C46.8752 78.4561 47.4868 78.3533 47.9765 78.0105C48.4632 77.6681 48.7701 77.1301 48.8123 76.5348L51.0515 45.5608C51.1177 44.6131 50.5022 43.7499 49.5829 43.5074L36.2989 40.0037C36.1315 39.9594 35.9611 39.9379 35.7906 39.9381ZM46.8502 81.4118C46.3907 81.4122 45.928 81.3489 45.4714 81.2199L32.2055 77.4581C29.9285 76.8124 28.399 74.63 28.5706 72.2688L30.7917 41.5527C30.897 40.0589 31.6598 38.7025 32.8795 37.8314C34.0961 36.9606 35.6267 36.68 37.0756 37.0626L50.3596 40.5663C52.6913 41.1813 54.2574 43.374 54.0828 45.7799L51.8467 76.7538C51.7383 78.2656 50.9634 79.6318 49.7224 80.5016C48.8677 81.1003 47.8667 81.411 46.8502 81.4118Z" fill="#D6468C"/>
<path d="M61.6675 46.771C61.211 46.7714 60.7638 46.913 60.3836 47.1841C59.8452 47.5683 59.5109 48.1666 59.4628 48.8259L57.2416 79.5615C57.1664 80.603 57.8428 81.5657 58.8473 81.8506L75.133 86.4691C76.3993 86.8251 77.6985 86.5389 78.6991 85.6838C79.6997 84.8287 80.1856 83.5885 80.0294 82.2812L76.8425 55.3565C76.5054 52.5122 74.5132 50.1598 71.7644 49.3585L62.2367 46.8448C62.048 46.7954 61.8562 46.7709 61.6675 46.771ZM76.1916 89.6565C75.5616 89.657 74.9285 89.5717 74.3075 89.3966L58.0158 84.7772C55.6323 84.1007 54.0297 81.8153 54.2103 79.3424L56.4284 48.6064C56.5427 47.0418 57.3389 45.6211 58.6164 44.7092C59.8939 43.797 61.4945 43.5035 63.0104 43.9034L72.5594 46.422C72.5716 46.425 72.5807 46.4281 72.5929 46.4314C76.5288 47.5686 79.3832 50.9313 79.8643 54.9989L83.0511 81.9236C83.3238 84.2223 82.434 86.4924 80.6761 87.9963C79.4079 89.0805 77.8167 89.6552 76.1916 89.6565Z" fill="#D6468C"/>
<path d="M120.194 103.353C119.354 103.353 118.672 102.673 118.671 101.833L118.667 96.7379C118.666 95.8979 119.347 95.2166 120.187 95.2159C121.027 95.2152 121.71 95.8955 121.71 96.7354L121.714 101.831C121.715 102.671 121.034 103.352 120.194 103.353Z" fill="#D6468C"/>
<path d="M124.745 101.397C123.905 101.397 123.226 100.717 123.225 99.8772L123.221 94.782C123.22 93.942 123.899 93.2606 124.739 93.2599C125.579 93.2593 126.261 93.9395 126.261 94.7795L126.266 99.8748C126.266 100.715 125.585 101.396 124.745 101.397Z" fill="#D6468C"/>
<path d="M129.233 99.946C128.393 99.9467 127.711 99.2664 127.71 98.4264L127.706 93.3315C127.705 92.4915 128.386 91.8098 129.226 91.8092C130.066 91.8085 130.749 92.489 130.749 93.329L130.753 98.424C130.754 99.2639 130.073 99.9453 129.233 99.946Z" fill="#D6468C"/>
<path d="M105.103 33.2457L118.866 29.7504C120.856 29.2451 122.02 27.1832 121.431 25.2155C120.604 22.4586 118.851 19.1707 115.196 19.1736C109.721 19.178 102.279 22.1362 101.528 30.1552C101.341 32.1491 103.162 33.7384 105.103 33.2457Z" fill="#F3F588"/>
<path d="M115.197 20.6947C106.313 20.7019 103.375 26.7342 103.044 30.2973C102.998 30.7578 103.172 31.1923 103.522 31.4897C103.857 31.7779 104.299 31.8813 104.728 31.7714L118.49 28.2765C119.047 28.1355 119.506 27.7833 119.789 27.2852C120.075 26.7846 120.138 26.2048 119.973 25.6522C118.988 22.361 117.379 20.693 115.197 20.6947ZM104.402 34.8547C103.367 34.8555 102.347 34.489 101.543 33.8009C100.45 32.8659 99.8793 31.45 100.012 30.0134C100.809 21.5284 108.441 17.658 115.195 17.6526C118.777 17.6497 121.509 20.1804 122.885 24.7791C123.291 26.1334 123.134 27.556 122.435 28.7846C121.742 30.0111 120.604 30.8778 119.238 31.2247L105.479 34.7196C105.123 34.8099 104.761 34.8541 104.402 34.8547Z" fill="#FBDE8E"/>
<path d="M123.568 56.5214C123.161 58.1119 122.143 59.4844 120.753 60.3456C119.992 60.8186 119.119 61.1373 118.176 61.2562C115.498 61.5895 113.001 60.2158 111.782 57.9845C111.627 57.7065 111.565 57.4086 111.574 57.1201C111.598 56.312 112.209 55.5628 113.098 55.4513L121.673 54.3856C122.878 54.2337 123.874 55.347 123.568 56.5214Z" fill="#4F4F52"/>
<path d="M120.573 59.9839C120.637 60.105 120.698 60.2242 120.753 60.3456C119.992 60.8186 119.119 61.1373 118.176 61.2562C115.498 61.5895 113.001 60.2158 111.782 57.9845C111.627 57.7065 111.565 57.4086 111.574 57.1201C114.842 55.4965 118.833 56.7496 120.573 59.9839Z" fill="#F360A5"/>
<path d="M113.266 56.8103C113.096 56.8312 113.017 56.945 112.98 57.0108C112.944 57.0854 112.914 57.2008 112.984 57.3286C113.977 59.1444 115.947 60.1532 118.004 59.8974C120.058 59.6419 121.722 58.1818 122.244 56.1777C122.28 56.0367 122.222 55.9324 122.167 55.8694C122.119 55.8138 122.009 55.7241 121.842 55.7446L113.266 56.8103ZM117.373 62.6747C114.558 62.6773 111.961 61.1635 110.58 58.6437C110.093 57.7506 110.08 56.6738 110.545 55.7635C111.016 54.8449 111.907 54.2206 112.929 54.0935L121.505 53.0277C122.527 52.9006 123.544 53.2878 124.223 54.0636C124.9 54.8324 125.147 55.8798 124.892 56.8651C124.088 59.9628 121.518 62.2194 118.341 62.6143C118.016 62.6547 117.693 62.6744 117.373 62.6747Z" fill="#4F4F52"/>
</svg>
