<svg width="205" height="68" viewBox="0 0 205 68" fill="none" xmlns="http://www.w3.org/2000/svg">
<path d="M41.7064 49.32C40.7464 49.32 39.9064 49.1467 39.1864 48.8C38.4664 48.4267 37.9064 47.7867 37.5064 46.88C37.1064 45.9733 36.9064 44.7067 36.9064 43.08C36.9064 41.64 37.0131 40.12 37.2264 38.52C37.4397 36.8933 37.7064 35.24 38.0264 33.56C38.3731 31.88 38.6931 30.2667 38.9864 28.72H38.8264C37.9997 32.1867 37.1064 34.6667 36.1464 36.16C35.1864 37.6533 34.1064 38.4 32.9064 38.4C32.1597 38.4 31.4797 38.1333 30.8664 37.6C30.2797 37.0667 29.7064 36.0667 29.1464 34.6C28.5864 33.1333 27.9997 31.0133 27.3864 28.24H27.2264C27.4131 29.3067 27.5997 30.44 27.7864 31.64C27.9997 32.84 28.1997 34.0533 28.3864 35.28C28.5731 36.48 28.7197 37.6267 28.8264 38.72C28.9597 39.8133 29.0264 40.7867 29.0264 41.64C29.0264 42.8667 28.8797 43.9867 28.5864 45C28.2931 45.9867 27.7864 46.7733 27.0664 47.36C26.3464 47.9467 25.3464 48.24 24.0664 48.24C22.3597 48.24 21.0931 47.7333 20.2664 46.72C19.4664 45.68 19.0664 43.9733 19.0664 41.6C19.0664 40.6133 19.0931 39.4667 19.1464 38.16C19.2264 36.8267 19.3197 35.4533 19.4264 34.04C19.5597 32.6267 19.7064 31.2533 19.8664 29.92C20.0264 28.5867 20.1864 27.4267 20.3464 26.44C20.7197 24.2 21.3731 22.6133 22.3064 21.68C23.2664 20.72 24.4797 20.24 25.9464 20.24C26.9064 20.24 27.8397 20.5067 28.7464 21.04C29.6531 21.5467 30.4797 22.5067 31.2264 23.92C31.9997 25.3067 32.6131 27.3067 33.0664 29.92H33.2264C33.6531 27.2 34.1997 25.08 34.8664 23.56C35.5597 22.04 36.3331 20.9867 37.1864 20.4C38.0397 19.7867 38.9597 19.48 39.9464 19.48C41.4931 19.48 42.7197 19.9867 43.6264 21C44.5331 21.9867 45.1997 23.3867 45.6264 25.2C45.9731 26.6667 46.2664 28.36 46.5064 30.28C46.7731 32.2 46.9731 34.1733 47.1064 36.2C47.2397 38.2 47.3064 40.08 47.3064 41.84C47.3064 44.5867 46.7997 46.52 45.7864 47.64C44.7731 48.76 43.4131 49.32 41.7064 49.32ZM60.7408 49.12C58.3408 49.12 56.2474 48.6533 54.4608 47.72C52.7008 46.76 51.3274 45.4 50.3408 43.64C49.3808 41.88 48.9008 39.7867 48.9008 37.36C48.9008 34.8267 49.3941 32.6133 50.3808 30.72C51.3674 28.8267 52.7541 27.3467 54.5408 26.28C56.3541 25.2133 58.4608 24.68 60.8608 24.68C63.4208 24.68 65.6341 25.2 67.5008 26.24C69.3941 27.2533 70.8608 28.68 71.9008 30.52C72.9408 32.36 73.4608 34.5067 73.4608 36.96C73.4608 39.4667 72.9274 41.6267 71.8608 43.44C70.8208 45.2533 69.3541 46.6533 67.4608 47.64C65.5674 48.6267 63.3274 49.12 60.7408 49.12ZM61.3008 40.88C62.3408 40.88 63.1674 40.48 63.7808 39.68C64.4208 38.88 64.7408 37.8133 64.7408 36.48C64.7408 35.1467 64.4208 34.08 63.7808 33.28C63.1674 32.48 62.3408 32.08 61.3008 32.08C60.2341 32.08 59.3808 32.48 58.7408 33.28C58.1274 34.08 57.8208 35.1467 57.8208 36.48C57.8208 37.8133 58.1274 38.88 58.7408 39.68C59.3808 40.48 60.2341 40.88 61.3008 40.88ZM80.563 24.12C81.8963 24.12 82.8163 24.4667 83.323 25.16C83.8563 25.8533 84.123 26.88 84.123 28.24C84.123 28.56 84.0963 28.9067 84.043 29.28C84.0163 29.6267 83.963 29.9467 83.883 30.24L83.803 29.44C84.4163 27.7067 85.3763 26.36 86.683 25.4C87.9896 24.4133 89.3763 23.92 90.843 23.92C92.6563 23.92 94.163 24.4267 95.363 25.44C96.563 26.4267 97.4563 27.84 98.043 29.68C98.6563 31.4933 98.963 33.64 98.963 36.12C98.963 37.3733 98.9096 38.6133 98.803 39.84C98.6963 41.0667 98.5496 42.1867 98.363 43.2C98.1763 44.1867 97.9363 45 97.643 45.64C97.2163 46.6267 96.603 47.3733 95.803 47.88C95.003 48.36 94.0563 48.6 92.963 48.6C91.7363 48.6 90.7896 48.2 90.123 47.4C89.483 46.5733 89.163 45.44 89.163 44C89.163 43.2 89.203 42.2533 89.283 41.16C89.363 40.0667 89.4296 38.9867 89.483 37.92C89.563 36.8533 89.603 35.9733 89.603 35.28C89.603 33.0933 88.9496 32 87.643 32C86.923 32 86.3096 32.3467 85.803 33.04C85.2963 33.7333 84.963 34.7067 84.803 35.96C84.723 36.6 84.6563 37.4 84.603 38.36C84.5763 39.32 84.5363 40.28 84.483 41.24C84.4563 42.1733 84.4163 42.96 84.363 43.6C84.203 45.52 83.723 46.8933 82.923 47.72C82.1496 48.5467 81.0963 48.96 79.763 48.96C78.1363 48.96 76.9096 48.5067 76.083 47.6C75.2563 46.6667 74.843 45.1067 74.843 42.92C74.843 41.8 74.8696 40.5467 74.923 39.16C74.9763 37.7733 75.043 36.3867 75.123 35C75.2296 33.5867 75.3496 32.3067 75.483 31.16C75.7496 28.9733 76.283 27.2533 77.083 26C77.883 24.7467 79.043 24.12 80.563 24.12ZM104.826 49.4C103.919 49.4 103.173 49.2 102.586 48.8C102.026 48.4 101.626 47.8 101.386 47C101.146 46.2 100.946 44.8933 100.786 43.08C100.626 41.24 100.546 39.2533 100.546 37.12C100.546 34.32 100.639 31.6267 100.826 29.04C101.039 26.4533 101.306 24.3333 101.626 22.68C101.973 20.8667 102.559 19.5467 103.386 18.72C104.239 17.8933 105.293 17.48 106.546 17.48C107.799 17.48 108.759 17.96 109.426 18.92C110.119 19.8533 110.466 21.48 110.466 23.8C110.466 24.9467 110.413 26.2 110.306 27.56C110.226 28.8933 110.066 30.32 109.826 31.84H109.986C111.399 29.68 112.719 28.0133 113.946 26.84C115.173 25.6667 116.293 24.8533 117.306 24.4C118.346 23.9467 119.266 23.72 120.066 23.72C121.479 23.72 122.533 24.1467 123.226 25C123.946 25.8533 124.306 26.9067 124.306 28.16C124.306 29.8667 123.479 31.3467 121.826 32.6C120.199 33.8533 117.559 35.0667 113.906 36.24L114.226 35.6C116.413 36.5067 118.213 37.44 119.626 38.4C121.066 39.3333 122.133 40.32 122.826 41.36C123.546 42.3733 123.906 43.4667 123.906 44.64C123.906 45.9467 123.506 47 122.706 47.8C121.906 48.5733 120.799 48.96 119.386 48.96C118.079 48.96 116.839 48.68 115.666 48.12C114.519 47.5333 113.466 46.56 112.506 45.2C111.573 43.8133 110.746 41.9333 110.026 39.56H109.866C109.839 40.7067 109.746 41.8667 109.586 43.04C109.426 44.1867 109.239 45.1467 109.026 45.92C108.759 46.9867 108.279 47.84 107.586 48.48C106.919 49.0933 105.999 49.4 104.826 49.4ZM130.512 18.32C132.165 18.32 133.338 18.7067 134.032 19.48C134.752 20.2533 135.112 21.1467 135.112 22.16C135.112 23.3867 134.672 24.3467 133.792 25.04C132.912 25.7067 131.685 26.04 130.112 26.04C128.565 26.04 127.405 25.6667 126.632 24.92C125.885 24.1733 125.512 23.2933 125.512 22.28C125.512 20.9733 125.965 19.9867 126.872 19.32C127.805 18.6533 129.018 18.32 130.512 18.32ZM130.952 27.24C132.258 27.24 133.272 28.04 133.992 29.64C134.738 31.24 135.112 33.7867 135.112 37.28C135.112 41.5733 134.645 44.6667 133.712 46.56C132.805 48.4533 131.418 49.4 129.552 49.4C128.085 49.4 127.005 48.7067 126.312 47.32C125.645 45.9067 125.312 43.4533 125.312 39.96C125.312 35.6667 125.832 32.48 126.872 30.4C127.912 28.2933 129.272 27.24 130.952 27.24ZM144.558 47.16C142.051 47.16 140.078 46.2533 138.638 44.44C137.225 42.6 136.518 39.8 136.518 36.04C136.518 32.04 137.198 29.12 138.558 27.28C139.918 25.4133 141.851 24.48 144.358 24.48C145.931 24.48 147.305 24.8 148.478 25.44C149.651 26.08 150.718 26.9867 151.678 28.16L151.038 29.92C150.958 29.5467 150.891 29.1467 150.838 28.72C150.785 28.2933 150.758 27.9733 150.758 27.76C150.758 26.48 151.051 25.4933 151.638 24.8C152.225 24.08 153.131 23.72 154.358 23.72C155.718 23.72 156.811 24.1733 157.638 25.08C158.491 25.96 159.105 27.24 159.478 28.92C159.771 30.0667 159.998 31.5467 160.158 33.36C160.318 35.1467 160.398 36.96 160.398 38.8C160.398 41.36 160.305 43.5067 160.118 45.24C159.931 46.9733 159.625 48.4133 159.198 49.56C158.771 50.7067 158.211 51.7067 157.518 52.56C156.291 54.0267 154.625 55.1067 152.518 55.8C150.438 56.4933 148.065 56.84 145.398 56.84C143.398 56.84 141.798 56.6267 140.598 56.2C139.398 55.8 138.531 55.2533 137.998 54.56C137.465 53.8667 137.198 53.08 137.198 52.2C137.198 51.08 137.451 50.1333 137.958 49.36C138.491 48.6133 139.291 48.24 140.358 48.24C141.345 48.24 142.385 48.2933 143.478 48.4C144.571 48.5067 145.745 48.56 146.998 48.56C148.891 48.56 150.225 48.2267 150.998 47.56C151.798 46.8933 152.198 45.9333 152.198 44.68C152.198 44.0667 152.158 43.3467 152.078 42.52L152.638 42.12C151.918 43.6667 150.865 44.8933 149.478 45.8C148.091 46.7067 146.451 47.16 144.558 47.16ZM148.598 40.44C149.131 40.44 149.625 40.2933 150.078 40C150.531 39.68 150.891 39.16 151.158 38.44C151.425 37.72 151.558 36.76 151.558 35.56C151.558 34.12 151.318 32.9467 150.838 32.04C150.385 31.1333 149.611 30.68 148.518 30.68C147.611 30.68 146.878 31.08 146.318 31.88C145.785 32.68 145.518 33.8933 145.518 35.52C145.518 37.0667 145.798 38.28 146.358 39.16C146.918 40.0133 147.665 40.44 148.598 40.44ZM173.631 49.12C171.231 49.12 169.138 48.6533 167.351 47.72C165.591 46.76 164.218 45.4 163.231 43.64C162.271 41.88 161.791 39.7867 161.791 37.36C161.791 34.8267 162.285 32.6133 163.271 30.72C164.258 28.8267 165.645 27.3467 167.431 26.28C169.245 25.2133 171.351 24.68 173.751 24.68C176.311 24.68 178.525 25.2 180.391 26.24C182.285 27.2533 183.751 28.68 184.791 30.52C185.831 32.36 186.351 34.5067 186.351 36.96C186.351 39.4667 185.818 41.6267 184.751 43.44C183.711 45.2533 182.245 46.6533 180.351 47.64C178.458 48.6267 176.218 49.12 173.631 49.12ZM174.191 40.88C175.231 40.88 176.058 40.48 176.671 39.68C177.311 38.88 177.631 37.8133 177.631 36.48C177.631 35.1467 177.311 34.08 176.671 33.28C176.058 32.48 175.231 32.08 174.191 32.08C173.125 32.08 172.271 32.48 171.631 33.28C171.018 34.08 170.711 35.1467 170.711 36.48C170.711 37.8133 171.018 38.88 171.631 39.68C172.271 40.48 173.125 40.88 174.191 40.88Z" fill="#58CC02"/>
</svg>
