<svg width="55" height="55" viewBox="0 0 55 55" fill="none" xmlns="http://www.w3.org/2000/svg">
<path d="M14.2797 47.3823C14.2797 49.6997 20.4075 51.5783 27.9666 51.5783C35.5257 51.5783 41.6536 49.6997 41.6536 47.3823C41.6536 45.7192 38.4976 44.2821 33.9215 43.6031C33.9421 43.5812 33.9627 43.5591 33.9834 43.537C34.1303 43.3792 34.2774 43.2176 34.4247 43.0523C34.4688 43.0028 34.513 42.9528 34.5572 42.9026C34.7928 42.6347 35.0286 42.3575 35.2641 42.072C35.2935 42.0363 35.3229 42.0005 35.3523 41.9645C35.3818 41.9285 35.4112 41.8924 35.4406 41.8562C35.47 41.82 35.4994 41.7837 35.5287 41.7472C35.6022 41.656 35.6756 41.564 35.7489 41.4713C35.7783 41.4342 35.8076 41.397 35.8369 41.3596C35.9249 41.2476 36.0127 41.1345 36.1004 41.0203C36.1296 40.9823 36.1588 40.9441 36.188 40.9058C36.2464 40.8292 36.3047 40.7522 36.363 40.6747C36.3921 40.6359 36.4213 40.5971 36.4503 40.5581C36.6831 40.2463 36.9146 39.9275 37.1444 39.6023C37.1731 39.5616 37.2019 39.5209 37.2305 39.4801C37.6606 38.8674 38.0843 38.233 38.4985 37.5819C38.5399 37.5168 38.5812 37.4516 38.6224 37.3861C38.7324 37.2116 38.8416 37.036 38.95 36.8593C38.9771 36.8152 39.0042 36.7709 39.0312 36.7266C39.1258 36.5716 39.2197 36.4158 39.313 36.2593C39.353 36.1922 39.3929 36.1249 39.4326 36.0576C39.4989 35.9454 39.5648 35.8328 39.6303 35.7199C39.6696 35.6521 39.7089 35.5842 39.7479 35.5163C39.774 35.471 39.7999 35.4256 39.8259 35.3802C39.8518 35.3347 39.8777 35.2893 39.9035 35.2438C39.9164 35.221 39.9293 35.1982 39.9422 35.1755C39.9808 35.1071 40.0193 35.0387 40.0577 34.9702C40.1472 34.8103 40.2359 34.6498 40.3238 34.4888C40.3615 34.4199 40.399 34.3508 40.4364 34.2817C40.5112 34.1434 40.5854 34.0048 40.6589 33.8659C40.6957 33.7965 40.7323 33.727 40.7687 33.6574C40.7931 33.611 40.8173 33.5646 40.8415 33.5182C40.8898 33.4253 40.9378 33.3323 40.9855 33.2392C40.9975 33.216 41.0094 33.1927 41.0213 33.1694C41.0451 33.1228 41.0688 33.0763 41.0924 33.0297C41.1043 33.0064 41.1161 32.9831 41.1279 32.9597C41.1515 32.9131 41.1749 32.8664 41.1983 32.8197C41.2334 32.7497 41.2684 32.6797 41.3032 32.6096C41.3147 32.5862 41.3263 32.5629 41.3379 32.5395C41.361 32.4927 41.384 32.446 41.4069 32.3992C41.4184 32.3758 41.4299 32.3524 41.4413 32.3291C41.4641 32.2822 41.487 32.2354 41.5096 32.1886C41.5436 32.1184 41.5775 32.0481 41.6112 31.9778C41.6449 31.9076 41.6783 31.8373 41.7116 31.7669C41.7227 31.7435 41.7338 31.72 41.7449 31.6966C41.767 31.6497 41.789 31.6028 41.811 31.5559C41.8219 31.5325 41.8329 31.509 41.8438 31.4856C41.8766 31.4152 41.9092 31.3448 41.9415 31.2744C41.9631 31.2275 41.9847 31.1806 42.0061 31.1337C42.0275 31.0868 42.0488 31.0398 42.0701 30.9929C42.0913 30.946 42.1125 30.8991 42.1335 30.8522C42.1545 30.8053 42.1755 30.7583 42.1964 30.7114C42.2172 30.6645 42.238 30.6176 42.2587 30.5707C42.2898 30.5003 42.3206 30.43 42.3512 30.3596C42.3716 30.3127 42.3919 30.2659 42.4121 30.219C42.4222 30.1956 42.4323 30.1721 42.4424 30.1487C42.4625 30.1018 42.4825 30.055 42.5024 30.0081C42.5224 29.9613 42.5422 29.9144 42.5619 29.8676C42.6014 29.774 42.6405 29.6804 42.6791 29.5869C42.6888 29.5635 42.6985 29.5401 42.708 29.5167C42.7273 29.47 42.7464 29.4233 42.7655 29.3766C42.8131 29.2598 42.86 29.1431 42.9063 29.0266C42.9248 28.98 42.9432 28.9334 42.9615 28.8869C42.9707 28.8636 42.9798 28.8403 42.9889 28.817C43.0253 28.7239 43.0613 28.6309 43.0969 28.5381C43.168 28.3524 43.2374 28.167 43.3051 27.9823C43.3389 27.8899 43.3722 27.7977 43.4052 27.7055C43.4216 27.6595 43.438 27.6135 43.4542 27.5675C43.4705 27.5215 43.4866 27.4756 43.5025 27.4297C43.5265 27.3609 43.5503 27.2921 43.5737 27.2234C43.6051 27.1319 43.6359 27.0405 43.6663 26.9493C43.6814 26.9037 43.6965 26.8581 43.7114 26.8126C43.7339 26.7444 43.756 26.6762 43.7778 26.6082C44.0404 25.7916 44.2636 24.991 44.4418 24.2153C44.4864 24.0213 44.5281 23.829 44.5669 23.6383C44.6576 23.1934 44.7324 22.7577 44.7903 22.3331C44.884 21.6457 44.9332 20.9872 44.9332 20.3652L44.9332 20.3584C44.9332 20.3289 44.9331 20.2994 44.9329 20.2699L44.9328 20.242C44.9325 20.2116 44.9322 20.1811 44.9319 20.1506L44.9316 20.1314C44.9312 20.1052 44.9308 20.079 44.9303 20.0528L44.9298 20.0254C44.9292 19.9951 44.9285 19.9648 44.9278 19.9345L44.9272 19.9103C44.9266 19.8858 44.9259 19.8615 44.9251 19.8371L44.9242 19.8085C44.9233 19.7788 44.9222 19.7492 44.9211 19.7196L44.92 19.6914C44.9191 19.6674 44.9181 19.6433 44.917 19.6193L44.916 19.5933C44.9146 19.564 44.9132 19.5348 44.9118 19.5055L44.9101 19.4739C44.9089 19.4503 44.9077 19.4268 44.9064 19.4032L44.9049 19.3783C44.9033 19.3489 44.9015 19.3195 44.8996 19.2902L44.8977 19.2597C44.896 19.2334 44.8943 19.207 44.8924 19.1807L44.8906 19.1545C44.8888 19.1287 44.8869 19.1029 44.885 19.0771L44.8825 19.0451C44.8803 19.0168 44.8781 18.9885 44.8758 18.9603L44.8734 18.931C44.8715 18.9093 44.8697 18.8877 44.8678 18.866C44.8668 18.8543 44.8657 18.8425 44.8647 18.8307C44.8622 18.8035 44.8597 18.7763 44.8572 18.7491C44.856 18.7372 44.8548 18.7253 44.8537 18.7134C44.8518 18.694 44.8499 18.6747 44.848 18.6553C44.8467 18.6427 44.8455 18.6302 44.8442 18.6176C44.8415 18.5913 44.8387 18.565 44.8359 18.5387C44.8344 18.5249 44.8329 18.511 44.8314 18.4972C44.8296 18.4807 44.8278 18.4643 44.8259 18.4478C44.8242 18.4329 44.8225 18.418 44.8208 18.4031C44.818 18.3788 44.8152 18.3544 44.8122 18.3301C44.8105 18.3152 44.8087 18.3003 44.8068 18.2854C44.8049 18.2694 44.8029 18.2533 44.8009 18.2373C44.7982 18.216 44.7955 18.1947 44.7927 18.1734C44.7905 18.156 44.7882 18.1386 44.7859 18.1212C44.7839 18.1055 44.7818 18.0898 44.7796 18.0742C44.7779 18.0613 44.7761 18.0483 44.7743 18.0354C44.7704 18.0066 44.7663 17.9778 44.7622 17.949L44.7576 17.9167C44.7549 17.8982 44.7522 17.8797 44.7495 17.8612L44.7466 17.8416C44.7413 17.8065 44.736 17.7715 44.7305 17.7364L44.7269 17.713C44.7173 17.6516 44.7073 17.5904 44.6969 17.5292L44.6934 17.5083C44.6828 17.4454 44.6717 17.3826 44.6604 17.32L44.6584 17.3095C44.6465 17.244 44.6343 17.1787 44.6216 17.1135L44.6216 17.1133C44.6149 17.0789 44.6081 17.0446 44.6012 17.0102L44.5961 16.9849C44.5908 16.9587 44.5854 16.9325 44.58 16.9063L44.574 16.8779C44.5687 16.8525 44.5634 16.8272 44.558 16.8018L44.5519 16.7734C44.5458 16.7455 44.5397 16.7176 44.5336 16.6896L44.5297 16.6723C44.5141 16.6016 44.4979 16.531 44.4813 16.4607L44.4805 16.4571C44.4726 16.4239 44.4646 16.3906 44.4566 16.3573L44.4533 16.3437C44.4455 16.312 44.4377 16.2802 44.4298 16.2485L44.4279 16.241C42.585 8.86763 35.914 3.40564 27.9666 3.40564C18.5962 3.40564 11 10.9986 11 20.3651C11 27.0405 16.4707 37.9238 21.8572 43.6264C17.3648 44.3146 14.2797 45.738 14.2797 47.3823Z" fill="#8ECEED"/>
<path d="M44.9333 20.3584C44.9333 20.3289 44.9331 20.2994 44.933 20.2699L44.9328 20.242C44.9326 20.2116 44.9323 20.1811 44.9319 20.1506L44.9317 20.1314C44.9313 20.1052 44.9309 20.079 44.9304 20.0528L44.9299 20.0254C44.9293 19.9951 44.9286 19.9648 44.9279 19.9345L44.9272 19.9103C44.9266 19.8858 44.9259 19.8615 44.9252 19.8371L44.9243 19.8085C44.9233 19.7788 44.9223 19.7492 44.9212 19.7196L44.9201 19.6914C44.9192 19.6674 44.9181 19.6433 44.9171 19.6193L44.916 19.5933C44.9147 19.564 44.9133 19.5348 44.9118 19.5055L44.9102 19.4739C44.909 19.4503 44.9077 19.4268 44.9064 19.4032L44.905 19.3783C44.9033 19.3489 44.9015 19.3195 44.8997 19.2902L44.8978 19.2597C44.8961 19.2334 44.8943 19.207 44.8925 19.1807L44.8907 19.1545C44.8888 19.1287 44.8869 19.1029 44.885 19.0771L44.8826 19.0451C44.8804 19.0168 44.8782 18.9885 44.8759 18.9603L44.8734 18.931C44.8716 18.9093 44.8698 18.8877 44.8678 18.866C44.8668 18.8543 44.8658 18.8425 44.8647 18.8307C44.8623 18.8035 44.8598 18.7763 44.8572 18.7491C44.8561 18.7372 44.8549 18.7253 44.8537 18.7134C44.8519 18.694 44.85 18.6747 44.8481 18.6553C44.8468 18.6427 44.8455 18.6302 44.8442 18.6176C44.8416 18.5913 44.8388 18.565 44.836 18.5387C44.8345 18.5249 44.833 18.511 44.8315 18.4972C44.8296 18.4807 44.8278 18.4643 44.826 18.4478C44.8243 18.4329 44.8226 18.418 44.8209 18.4031C44.8181 18.3788 44.8152 18.3544 44.8123 18.3301C44.8105 18.3152 44.8087 18.3003 44.8069 18.2854C44.8049 18.2694 44.8029 18.2533 44.801 18.2373C44.7983 18.216 44.7955 18.1947 44.7928 18.1734C44.7905 18.156 44.7883 18.1386 44.786 18.1212C44.7839 18.1055 44.7818 18.0898 44.7797 18.0742C44.778 18.0613 44.7762 18.0483 44.7744 18.0354C44.7704 18.0066 44.7664 17.9778 44.7623 17.949L44.7577 17.9167C44.755 17.8982 44.7523 17.8797 44.7496 17.8612L44.7466 17.8416C44.7414 17.8065 44.736 17.7715 44.7306 17.7364L44.727 17.713C44.7173 17.6516 44.7074 17.5904 44.697 17.5292L44.6935 17.5083C44.6828 17.4454 44.6718 17.3826 44.6604 17.32L44.6585 17.3095C44.6466 17.244 44.6343 17.1787 44.6217 17.1135L44.6216 17.1133C44.615 17.0789 44.6081 17.0446 44.6012 17.0102L44.5961 16.9849C44.5908 16.9587 44.5854 16.9325 44.58 16.9063L44.5741 16.8779C44.5688 16.8525 44.5634 16.8272 44.558 16.8018L44.5519 16.7734C44.5459 16.7455 44.5398 16.7176 44.5336 16.6896L44.5298 16.6723C44.5141 16.6016 44.498 16.531 44.4813 16.4607L44.4805 16.4571C44.4727 16.4239 44.4647 16.3906 44.4566 16.3573L44.4533 16.3437C44.4456 16.312 44.4378 16.2802 44.4299 16.2485L44.428 16.241C42.5851 8.86763 35.9141 3.40564 27.9667 3.40564C18.5963 3.40564 11.0001 10.9986 11.0001 20.3651C11.0001 27.0405 16.4708 37.9238 21.8573 43.6264C22.4371 44.2402 23.0159 44.794 23.5869 45.2761C24.7938 46.2952 25.9654 46.9936 27.0363 47.2609L27.0454 47.2632C27.0575 47.2662 27.0697 47.2692 27.0818 47.272L27.0957 47.2753L27.1299 47.2833L27.1444 47.2865C27.1619 47.2904 27.1794 47.2942 27.1968 47.2979L27.2244 47.3037L27.2476 47.3083L27.2749 47.3137L27.2985 47.3181L27.3267 47.3232L27.3479 47.327C27.3642 47.3298 27.3804 47.3326 27.3967 47.3352L27.397 47.3352C27.4441 47.3428 27.491 47.3494 27.5377 47.3552L27.5457 47.3562C27.5591 47.3578 27.5725 47.3594 27.5858 47.3608L27.591 47.3614C27.6212 47.3647 27.6513 47.3676 27.6814 47.3701L27.6911 47.3708L27.7256 47.3734L27.7369 47.3742C27.7493 47.3751 27.7617 47.3758 27.7741 47.3766L27.7808 47.377C27.7954 47.3778 27.8099 47.3785 27.8245 47.3791L27.8333 47.3795L27.8674 47.3807L27.8805 47.381L27.9114 47.3817L27.9246 47.3819C27.9386 47.3821 27.9527 47.3822 27.9667 47.3822C28.0119 47.3822 28.0575 47.3811 28.1034 47.379C28.1264 47.3779 28.1494 47.3766 28.1725 47.375C28.5192 47.351 28.8837 47.2674 29.2627 47.1295C29.288 47.1202 29.3133 47.1108 29.3387 47.1011C29.4276 47.0673 29.5173 47.0304 29.6076 46.9908C29.6335 46.9794 29.6593 46.9679 29.6853 46.956C29.7501 46.9265 29.8154 46.8956 29.881 46.8632C29.9465 46.8308 30.0124 46.7969 30.0788 46.7617C30.092 46.7546 30.1052 46.7475 30.1185 46.7404C30.1717 46.7117 30.225 46.6822 30.2786 46.6518C30.3187 46.629 30.359 46.6056 30.3994 46.5818C30.4263 46.5659 30.4532 46.5498 30.4803 46.5335C30.4938 46.5254 30.5073 46.5172 30.5208 46.5089C30.575 46.4758 30.6293 46.4419 30.6839 46.4072C30.7656 46.355 30.8478 46.3009 30.9305 46.2449C30.958 46.2263 30.9855 46.2074 31.0132 46.1883C31.027 46.1788 31.0408 46.1692 31.0546 46.1596C31.2345 46.0342 31.416 45.9002 31.5991 45.7578C31.7963 45.6045 31.9952 45.4416 32.1955 45.2695L32.2168 45.2512C32.2383 45.2326 32.2598 45.214 32.2814 45.1952C32.2958 45.1827 32.3101 45.1702 32.3245 45.1576C32.3532 45.1325 32.3819 45.1072 32.4107 45.0816C32.425 45.0689 32.4394 45.0561 32.4538 45.0433C32.5114 44.9919 32.5691 44.9398 32.6268 44.887C32.699 44.821 32.7714 44.7539 32.8439 44.6857C32.8729 44.6584 32.9019 44.631 32.9309 44.6034C32.96 44.5757 32.989 44.5479 33.0181 44.52C33.0617 44.478 33.1054 44.4357 33.1491 44.3929C33.1782 44.3645 33.2074 44.3358 33.2366 44.307C33.2657 44.2782 33.2949 44.2492 33.3241 44.22C33.3533 44.1909 33.3825 44.1616 33.4117 44.1321C33.441 44.1026 33.4702 44.073 33.4995 44.0431C33.5141 44.0282 33.5287 44.0133 33.5434 43.9983C33.5873 43.9534 33.6312 43.908 33.6752 43.8624C33.7485 43.7862 33.8218 43.7091 33.8952 43.631L33.9215 43.603C33.9421 43.581 33.9627 43.559 33.9834 43.5368C34.1303 43.379 34.2774 43.2175 34.4247 43.0522C34.4688 43.0026 34.513 42.9527 34.5572 42.9025C34.7929 42.6346 35.0287 42.3574 35.2641 42.0718C35.2935 42.0361 35.323 42.0003 35.3524 41.9644C35.3818 41.9284 35.4112 41.8923 35.4406 41.8561C35.47 41.8199 35.4994 41.7835 35.5288 41.7471C35.6022 41.6559 35.6756 41.5639 35.749 41.4712C35.7783 41.434 35.8076 41.3968 35.837 41.3595C35.9249 41.2475 36.0127 41.1343 36.1004 41.0201C36.1296 40.9821 36.1589 40.9439 36.188 40.9056C36.2465 40.8291 36.3048 40.752 36.3631 40.6745C36.3922 40.6357 36.4213 40.5969 36.4504 40.5579C36.6831 40.2462 36.9147 39.9273 37.1444 39.6022C37.1732 39.5615 37.2019 39.5208 37.2305 39.4799C37.6606 38.8673 38.0844 38.2328 38.4985 37.5818C38.54 37.5167 38.5812 37.4514 38.6225 37.386C38.7324 37.2115 38.8416 37.0359 38.9501 36.8592C38.9771 36.815 39.0042 36.7708 39.0312 36.7265C39.1258 36.5715 39.2197 36.4156 39.313 36.2591C39.353 36.192 39.3929 36.1248 39.4327 36.0575C39.4989 35.9452 39.5648 35.8326 39.6303 35.7197C39.6697 35.652 39.7089 35.5841 39.748 35.5161C39.774 35.4708 39.8 35.4254 39.826 35.38C39.8518 35.3346 39.8778 35.2892 39.9035 35.2436C39.9165 35.2209 39.9293 35.1981 39.9422 35.1753C39.9809 35.107 40.0194 35.0386 40.0577 34.97C40.1472 34.8101 40.236 34.6497 40.3239 34.4887C40.3616 34.4197 40.3991 34.3507 40.4365 34.2815C40.5113 34.1433 40.5854 34.0047 40.659 33.8658C40.6958 33.7964 40.7323 33.7268 40.7688 33.6573C40.7931 33.6109 40.8173 33.5645 40.8415 33.518C40.8898 33.4252 40.9379 33.3322 40.9856 33.2391C40.9975 33.2158 41.0094 33.1926 41.0213 33.1693C41.0451 33.1227 41.0688 33.0761 41.0925 33.0295C41.1043 33.0062 41.1161 32.9829 41.1279 32.9596C41.1515 32.9129 41.1749 32.8663 41.1984 32.8196C41.2335 32.7496 41.2684 32.6796 41.3032 32.6095C41.3148 32.5861 41.3264 32.5627 41.3379 32.5393C41.361 32.4926 41.384 32.4459 41.407 32.3991C41.4185 32.3757 41.4299 32.3523 41.4413 32.3289C41.4642 32.2821 41.487 32.2353 41.5097 32.1885C41.5437 32.1183 41.5776 32.048 41.6112 31.9777C41.6449 31.9074 41.6784 31.8371 41.7117 31.7668C41.7228 31.7433 41.7339 31.7199 41.7449 31.6965C41.767 31.6496 41.789 31.6027 41.811 31.5558C41.822 31.5323 41.8329 31.5089 41.8438 31.4854C41.8766 31.415 41.9092 31.3447 41.9416 31.2743C41.9632 31.2274 41.9847 31.1804 42.0061 31.1335C42.0275 31.0866 42.0488 31.0397 42.0701 30.9928C42.0913 30.9458 42.1125 30.8989 42.1335 30.852C42.1546 30.8051 42.1756 30.7582 42.1964 30.7113C42.2173 30.6644 42.2381 30.6174 42.2587 30.5705C42.2898 30.5002 42.3206 30.4298 42.3512 30.3595C42.3716 30.3126 42.3919 30.2657 42.4122 30.2188C42.4223 30.1954 42.4323 30.172 42.4424 30.1485C42.4625 30.1017 42.4825 30.0548 42.5025 30.008C42.5224 29.9611 42.5422 29.9143 42.562 29.8675C42.6014 29.7738 42.6405 29.6803 42.6792 29.5867C42.6888 29.5633 42.6985 29.54 42.7081 29.5166C42.7273 29.4698 42.7465 29.4231 42.7655 29.3764C42.8131 29.2597 42.86 29.143 42.9063 29.0265C42.9249 28.9798 42.9433 28.9332 42.9616 28.8867C42.9707 28.8634 42.9799 28.8401 42.989 28.8169C43.0254 28.7238 43.0614 28.6308 43.0969 28.538C43.1681 28.3522 43.2375 28.1669 43.3051 27.9821C43.3389 27.8897 43.3723 27.7975 43.4052 27.7054C43.4217 27.6594 43.438 27.6133 43.4543 27.5674C43.4705 27.5214 43.4866 27.4755 43.5026 27.4296C43.5266 27.3607 43.5503 27.2919 43.5738 27.2233C43.6051 27.1317 43.6359 27.0403 43.6663 26.9492C43.6815 26.9035 43.6965 26.858 43.7115 26.8125C43.7339 26.7442 43.756 26.6761 43.7779 26.608C44.0404 25.7915 44.2636 24.9908 44.4418 24.2151C44.4864 24.0212 44.5281 23.8288 44.567 23.6382C44.6576 23.1933 44.7324 22.7576 44.7903 22.333C44.884 21.6455 44.9333 20.987 44.9333 20.365V20.3584Z" fill="#A59BCC"/>
<path d="M39.3952 19.8881C39.3952 19.8614 39.395 19.8347 39.3948 19.808L39.3945 19.7758C39.3942 19.7513 39.3939 19.7268 39.3935 19.7024L39.3931 19.6813C39.3926 19.6514 39.3919 19.6215 39.3911 19.5916L39.3902 19.5611C39.3896 19.5382 39.3888 19.5153 39.388 19.4924L39.3871 19.4656C39.386 19.4357 39.3847 19.4057 39.3834 19.3758L39.3822 19.3502C39.381 19.3266 39.3799 19.303 39.3786 19.2795L39.3771 19.2514C39.3754 19.2217 39.3736 19.192 39.3718 19.1623L39.3702 19.1394C39.3687 19.1152 39.367 19.0911 39.3652 19.067L39.3632 19.0393C39.361 19.0093 39.3587 18.9794 39.3562 18.9495L39.3552 18.9374C39.3529 18.9101 39.3505 18.8828 39.3481 18.8556L39.3455 18.8278C39.3431 18.8017 39.3406 18.7757 39.338 18.7497L39.3364 18.7342C39.3334 18.7039 39.3301 18.6735 39.3268 18.6432L39.3242 18.6196C39.3214 18.5943 39.3185 18.569 39.3155 18.5438L39.3132 18.524C39.3095 18.4938 39.3058 18.4637 39.3019 18.4335L39.2991 18.4115C39.2959 18.3871 39.2926 18.3627 39.2893 18.3383L39.2861 18.3148C39.2819 18.2846 39.2776 18.2544 39.2731 18.2243L39.2708 18.2088C39.2669 18.1822 39.2629 18.1557 39.2587 18.1292L39.2556 18.109C39.2457 18.0464 39.2353 17.9839 39.2245 17.9216L39.2215 17.9048C39.2105 17.8421 39.1989 17.7795 39.1868 17.7171L39.1836 17.7006C39.1779 17.6716 39.1722 17.6427 39.1663 17.6138L39.165 17.6073C39.1584 17.5753 39.1518 17.5433 39.145 17.5114L39.1431 17.5024C39.1367 17.4724 39.1302 17.4425 39.1235 17.4126L39.122 17.4055C39.1075 17.3405 39.0924 17.2758 39.0769 17.2113L39.0755 17.2057C39.0597 17.1404 39.0434 17.0752 39.0265 17.0103L39.026 17.0088C39.0199 16.9855 39.0137 16.9622 39.0075 16.9389L39.0023 16.9196C38.9974 16.9016 38.9925 16.8834 38.9875 16.8654L38.9831 16.8493C38.9699 16.8014 38.9563 16.7537 38.9425 16.7061L38.9393 16.695C38.933 16.6736 38.9267 16.6522 38.9203 16.6308L38.9178 16.6224C38.9031 16.5732 38.8881 16.5241 38.8727 16.4751L38.8713 16.4709C37.4145 11.8371 33.0833 8.47595 27.9666 8.47595C26.0336 8.47595 24.2127 8.95568 22.6166 9.80246C19.7571 11.3194 17.6189 14.0144 16.8494 17.2402C16.6458 18.0935 16.538 18.9841 16.538 19.8997C16.538 25.3825 20.4022 29.9631 25.5568 31.069L25.5722 31.0723C25.5896 31.076 25.607 31.0796 25.6245 31.0833L25.642 31.0869C25.6587 31.0903 25.6755 31.0938 25.6922 31.0971L25.7109 31.1009C25.7277 31.1043 25.7445 31.1076 25.7613 31.1108L25.7795 31.1144C25.7958 31.1176 25.8121 31.1207 25.8284 31.1237L25.8489 31.1276C25.8711 31.1318 25.8934 31.1359 25.9157 31.14L25.917 31.1402C26.0028 31.1558 26.089 31.1703 26.1755 31.1839L26.1822 31.185C26.2077 31.189 26.2333 31.1929 26.2589 31.1967L26.2709 31.1985C26.2968 31.2024 26.3228 31.2062 26.3488 31.2098L26.3546 31.2107C26.4115 31.2187 26.4685 31.2263 26.5256 31.2335L26.5378 31.235C26.5615 31.2379 26.5851 31.2408 26.6088 31.2436L26.6265 31.2457C26.6496 31.2484 26.6726 31.251 26.6956 31.2536L26.7112 31.2553C26.7677 31.2614 26.8243 31.2672 26.881 31.2726L26.8936 31.2737C26.9165 31.2758 26.9393 31.2779 26.9622 31.2799L26.987 31.282C27.0077 31.2838 27.0283 31.2855 27.0491 31.2871L27.0703 31.2888C27.094 31.2906 27.1176 31.2924 27.1412 31.2941L27.1548 31.295C27.1826 31.297 27.2106 31.2989 27.2386 31.3006L27.2554 31.3016C27.2774 31.303 27.2993 31.3043 27.3214 31.3055L27.3483 31.307C27.3678 31.308 27.3873 31.309 27.4068 31.3099L27.433 31.3112C27.4547 31.3122 27.4763 31.3131 27.498 31.314L27.5166 31.3147C27.5449 31.3158 27.5731 31.3168 27.6014 31.3177L27.612 31.318C27.6359 31.3187 27.6598 31.3194 27.6837 31.32L27.7127 31.3206C27.7313 31.321 27.75 31.3214 27.7687 31.3217L27.7984 31.3222C27.8176 31.3225 27.8368 31.3227 27.856 31.3229L27.8834 31.3231C27.9111 31.3233 27.9388 31.3234 27.9666 31.3234C28.0159 31.3234 28.0651 31.3232 28.1143 31.3225C28.1635 31.3219 28.2126 31.321 28.2616 31.3197C28.2861 31.3191 28.3106 31.3184 28.335 31.3176C28.384 31.3161 28.4328 31.3142 28.4816 31.3121C28.6523 31.3045 28.8221 31.2932 28.9908 31.2782C29.039 31.2739 29.0871 31.2694 29.1351 31.2645C29.1591 31.2621 29.1831 31.2596 29.2071 31.257C29.255 31.2518 29.3028 31.2463 29.3506 31.2406C29.4223 31.2319 29.4937 31.2226 29.5649 31.2127C29.6124 31.206 29.6598 31.1991 29.7071 31.1919C29.7307 31.1883 29.7543 31.1846 29.778 31.1808C29.8487 31.1695 29.9193 31.1576 29.9896 31.1451C30.0835 31.1283 30.1769 31.1104 30.2699 31.0914C30.3163 31.0819 30.3627 31.0721 30.4091 31.062C30.571 31.0268 30.7318 30.9881 30.8911 30.946C30.9367 30.934 30.9821 30.9217 31.0274 30.9092C31.0954 30.8904 31.1631 30.8709 31.2306 30.8508C31.2755 30.8375 31.3204 30.8238 31.3651 30.8099C31.4322 30.7891 31.4991 30.7676 31.5656 30.7456C31.5878 30.7382 31.61 30.7308 31.6321 30.7233C31.6984 30.7008 31.7646 30.6778 31.8304 30.6542C32.0718 30.5675 32.3094 30.473 32.5429 30.3709C32.5854 30.3523 32.6277 30.3335 32.6699 30.3144C32.7121 30.2953 32.7541 30.276 32.796 30.2565C32.8379 30.2369 32.8797 30.2171 32.9214 30.197C33.5459 29.8962 34.1389 29.5403 34.694 29.1356C34.879 29.0007 35.0598 28.8604 35.2363 28.7149C35.2539 28.7003 35.2715 28.6857 35.289 28.6711C35.4294 28.5538 35.567 28.4333 35.7015 28.3096C35.7184 28.2941 35.7351 28.2786 35.7518 28.263C37.9933 26.1774 39.3952 23.2022 39.3952 19.8998L39.3952 19.8881Z" fill="#EFE1DA"/>
<path d="M33.6752 43.8625C33.6312 43.9082 33.5872 43.9535 33.5433 43.9984C33.5287 44.0134 33.5141 44.0284 33.4994 44.0433C33.4702 44.0731 33.441 44.1027 33.4117 44.1322C33.3824 44.1617 33.3532 44.191 33.3241 44.2202C33.2948 44.2493 33.2657 44.2783 33.2365 44.3071C33.2073 44.3359 33.1782 44.3646 33.1491 44.3931C33.1053 44.4358 33.0617 44.4782 33.0181 44.5201C32.989 44.5481 32.96 44.5759 32.9309 44.6035C32.9019 44.6311 32.8729 44.6586 32.8439 44.6858C32.7714 44.754 32.699 44.8212 32.6268 44.8872C32.569 44.94 32.5113 44.992 32.4538 45.0434C32.4394 45.0562 32.425 45.069 32.4106 45.0818C32.3819 45.1073 32.3532 45.1326 32.3244 45.1577C32.3101 45.1703 32.2957 45.1828 32.2814 45.1953C32.2598 45.2141 32.2383 45.2327 32.2167 45.2513C34.5537 45.6903 36.1129 46.4805 36.1129 47.3823C36.1129 48.7616 32.4657 49.8797 27.9667 49.8797C23.4676 49.8797 19.8204 48.7616 19.8204 47.3823C19.8204 46.4972 21.3221 45.7198 23.5869 45.2762C23.0159 44.7941 22.4371 44.2403 21.8573 43.6265C17.3649 44.3146 14.2797 45.738 14.2797 47.3823C14.2797 49.6997 20.4076 51.5783 27.9667 51.5783C35.5258 51.5783 41.6536 49.6997 41.6536 47.3823C41.6536 45.7192 38.4976 44.2821 33.9215 43.6031L33.8952 43.6311C33.8218 43.7092 33.7484 43.7864 33.6752 43.8625Z" fill="#ACD7ED"/>
<path d="M44.9332 20.3584C44.9332 20.3289 44.9331 20.2994 44.933 20.2699L44.9328 20.242C44.9325 20.2116 44.9323 20.1811 44.9319 20.1506L44.9316 20.1314C44.9312 20.1052 44.9309 20.079 44.9304 20.0528L44.9298 20.0254C44.9293 19.9951 44.9286 19.9648 44.9278 19.9345L44.9272 19.9103C44.9266 19.8858 44.9259 19.8615 44.9251 19.8371L44.9242 19.8085C44.9233 19.7788 44.9223 19.7492 44.9211 19.7196L44.92 19.6914C44.9191 19.6674 44.9181 19.6433 44.9171 19.6193L44.916 19.5933C44.9146 19.564 44.9132 19.5348 44.9118 19.5055L44.9102 19.4739C44.9089 19.4503 44.9077 19.4268 44.9064 19.4032L44.9049 19.3783C44.9033 19.3489 44.9015 19.3195 44.8996 19.2902L44.8977 19.2597C44.896 19.2334 44.8943 19.207 44.8925 19.1807L44.8906 19.1545C44.8888 19.1287 44.8869 19.1029 44.885 19.0771L44.8825 19.0451C44.8803 19.0168 44.8781 18.9885 44.8758 18.9603L44.8734 18.931C44.8716 18.9093 44.8697 18.8877 44.8678 18.866C44.8668 18.8543 44.8657 18.8425 44.8647 18.8307C44.8622 18.8035 44.8597 18.7763 44.8572 18.7491C44.856 18.7372 44.8549 18.7253 44.8537 18.7134C44.8519 18.694 44.8499 18.6747 44.848 18.6553C44.8467 18.6427 44.8455 18.6302 44.8442 18.6176C44.8415 18.5913 44.8388 18.565 44.836 18.5387C44.8344 18.5249 44.8329 18.511 44.8314 18.4972C44.8296 18.4807 44.8278 18.4643 44.8259 18.4478C44.8242 18.4329 44.8226 18.418 44.8209 18.4031C44.818 18.3788 44.8152 18.3544 44.8123 18.3301C44.8105 18.3152 44.8087 18.3003 44.8068 18.2854C44.8049 18.2694 44.8029 18.2533 44.8009 18.2373C44.7982 18.216 44.7955 18.1947 44.7927 18.1734C44.7905 18.156 44.7883 18.1386 44.7859 18.1212C44.7839 18.1055 44.7818 18.0898 44.7797 18.0742C44.7779 18.0613 44.7761 18.0483 44.7744 18.0354C44.7704 18.0066 44.7663 17.9778 44.7622 17.949L44.7576 17.9167C44.7549 17.8982 44.7523 17.8797 44.7495 17.8612L44.7466 17.8416C44.7413 17.8065 44.736 17.7715 44.7305 17.7364L44.7269 17.713C44.7173 17.6516 44.7073 17.5904 44.697 17.5292L44.6935 17.5083C44.6828 17.4454 44.6718 17.3826 44.6604 17.32L44.6585 17.3095C44.6466 17.244 44.6343 17.1787 44.6216 17.1135C43.7122 12.4338 40.8775 8.44143 36.9752 5.99243C39.339 8.907 40.7561 12.6199 40.7561 16.6643C40.7561 26.0307 29.5827 43.6814 23.7895 43.6814C22.9663 43.6814 22.062 43.3673 21.1133 42.8051C23.3042 45.3124 25.5235 47.0343 27.3966 47.3352C27.4438 47.3428 27.491 47.3495 27.5377 47.3553L27.5457 47.3562C27.5591 47.3578 27.5725 47.3594 27.5858 47.3609L27.591 47.3614C27.6212 47.3647 27.6513 47.3676 27.6813 47.3701L27.6911 47.3709L27.7256 47.3735L27.7369 47.3743C27.7493 47.3751 27.7617 47.3759 27.7741 47.3766L27.7808 47.377C27.7954 47.3778 27.8099 47.3786 27.8244 47.3792L27.8332 47.3795L27.8673 47.3808L27.8805 47.3811L27.9114 47.3818L27.9245 47.382C27.9386 47.3822 27.9526 47.3823 27.9667 47.3823C28.0119 47.3823 28.0575 47.3812 28.1034 47.3791C28.1264 47.378 28.1494 47.3766 28.1725 47.3751C28.5192 47.351 28.8837 47.2674 29.2627 47.1295C29.288 47.1203 29.3133 47.1109 29.3387 47.1012C29.4276 47.0673 29.5172 47.0305 29.6076 46.9908C29.6334 46.9795 29.6593 46.9679 29.6853 46.9561C29.7501 46.9266 29.8153 46.8956 29.8809 46.8632C29.9465 46.8308 30.0124 46.797 30.0787 46.7618C30.092 46.7547 30.1052 46.7476 30.1185 46.7405C30.1716 46.7118 30.225 46.6823 30.2785 46.6518C30.3187 46.629 30.3589 46.6057 30.3993 46.5819C30.4262 46.566 30.4532 46.5499 30.4802 46.5336C30.4938 46.5254 30.5073 46.5173 30.5208 46.509C30.575 46.4759 30.6293 46.442 30.6838 46.4072C30.7656 46.3551 30.8478 46.301 30.9304 46.245C30.9579 46.2263 30.9855 46.2075 31.0132 46.1884C31.0269 46.1789 31.0408 46.1693 31.0546 46.1596C31.2344 46.0343 31.416 45.9003 31.5991 45.7579C31.7962 45.6046 31.9952 45.4416 32.1955 45.2696L32.2167 45.2512C32.2383 45.2327 32.2598 45.214 32.2814 45.1953C32.2958 45.1828 32.3101 45.1702 32.3244 45.1577C32.3532 45.1326 32.3819 45.1072 32.4107 45.0817C32.425 45.069 32.4394 45.0562 32.4538 45.0433C32.5114 44.992 32.569 44.9399 32.6268 44.8871C32.699 44.8211 32.7714 44.754 32.8439 44.6858C32.8729 44.6585 32.9019 44.631 32.9309 44.6034C32.9599 44.5758 32.989 44.548 33.0181 44.5201C33.0617 44.4781 33.1054 44.4358 33.1491 44.393C33.1782 44.3645 33.2074 44.3359 33.2365 44.307C33.2657 44.2783 33.2949 44.2493 33.3241 44.2201C33.3532 44.1909 33.3825 44.1616 33.4117 44.1321C33.441 44.1027 33.4702 44.073 33.4994 44.0432C33.5141 44.0283 33.5287 44.0134 33.5434 43.9984C33.5873 43.9534 33.6312 43.9081 33.6752 43.8624C33.7484 43.7863 33.8218 43.7092 33.8952 43.631L33.9215 43.6031C33.9421 43.5811 33.9627 43.559 33.9834 43.5369C34.1303 43.3791 34.2774 43.2176 34.4247 43.0523C34.4688 43.0027 34.513 42.9528 34.5572 42.9025C34.7929 42.6346 35.0286 42.3575 35.2641 42.0719C35.2935 42.0362 35.3229 42.0004 35.3523 41.9644C35.3818 41.9285 35.4112 41.8924 35.4406 41.8562C35.47 41.8199 35.4994 41.7836 35.5287 41.7471C35.6022 41.6559 35.6756 41.564 35.749 41.4712C35.7783 41.4341 35.8076 41.3969 35.8369 41.3596C35.9249 41.2475 36.0127 41.1344 36.1004 41.0202C36.1296 40.9822 36.1588 40.944 36.188 40.9057C36.2464 40.8291 36.3047 40.7521 36.363 40.6746C36.3921 40.6358 36.4213 40.597 36.4504 40.558C36.6831 40.2462 36.9146 39.9274 37.1444 39.6022C37.1732 39.5616 37.2019 39.5208 37.2305 39.48C37.6606 38.8673 38.0843 38.2329 38.4985 37.5819C38.5399 37.5168 38.5812 37.4515 38.6224 37.3861C38.7324 37.2116 38.8416 37.0359 38.95 36.8593C38.9771 36.8151 39.0042 36.7709 39.0312 36.7266C39.1258 36.5715 39.2197 36.4157 39.313 36.2592C39.353 36.1921 39.3929 36.1249 39.4326 36.0575C39.4989 35.9453 39.5648 35.8327 39.6303 35.7198C39.6697 35.6521 39.7089 35.5841 39.7479 35.5162C39.774 35.4709 39.7999 35.4255 39.8259 35.3801C39.8518 35.3347 39.8777 35.2892 39.9035 35.2437C39.9165 35.221 39.9293 35.1982 39.9422 35.1754C39.9808 35.1071 40.0193 35.0386 40.0577 34.9701C40.1472 34.8102 40.2359 34.6497 40.3239 34.4888C40.3616 34.4198 40.3991 34.3507 40.4364 34.2816C40.5113 34.1434 40.5854 34.0047 40.659 33.8659C40.6957 33.7964 40.7323 33.7269 40.7688 33.6573C40.7931 33.611 40.8173 33.5646 40.8415 33.5181C40.8898 33.4253 40.9379 33.3322 40.9856 33.2392C40.9975 33.2159 41.0094 33.1926 41.0213 33.1694C41.0451 33.1228 41.0688 33.0762 41.0925 33.0296C41.1043 33.0063 41.1161 32.983 41.1279 32.9596C41.1515 32.913 41.1749 32.8663 41.1983 32.8197C41.2334 32.7497 41.2684 32.6796 41.3032 32.6095C41.3148 32.5862 41.3263 32.5628 41.3379 32.5394C41.361 32.4927 41.384 32.4459 41.407 32.3991C41.4184 32.3758 41.4299 32.3523 41.4413 32.329C41.4642 32.2822 41.487 32.2354 41.5096 32.1886C41.5437 32.1183 41.5775 32.0481 41.6112 31.9778C41.6449 31.9075 41.6783 31.8372 41.7117 31.7669C41.7228 31.7434 41.7338 31.72 41.7449 31.6966C41.767 31.6496 41.789 31.6027 41.811 31.5558C41.8219 31.5324 41.8329 31.5089 41.8438 31.4855C41.8766 31.4151 41.9092 31.3448 41.9416 31.2744C41.9632 31.2275 41.9847 31.1805 42.0061 31.1336C42.0275 31.0867 42.0488 31.0398 42.0701 30.9928C42.0913 30.9459 42.1125 30.899 42.1335 30.8521C42.1546 30.8052 42.1755 30.7582 42.1964 30.7113C42.2173 30.6644 42.238 30.6175 42.2587 30.5706C42.2898 30.5003 42.3206 30.4299 42.3512 30.3596C42.3716 30.3126 42.3919 30.2658 42.4121 30.2189C42.4222 30.1955 42.4323 30.172 42.4424 30.1486C42.4625 30.1017 42.4825 30.0549 42.5025 30.0081C42.5224 29.9612 42.5422 29.9144 42.5619 29.8675C42.6014 29.7739 42.6405 29.6803 42.6791 29.5868C42.6888 29.5634 42.6985 29.54 42.7081 29.5167C42.7273 29.4699 42.7464 29.4232 42.7655 29.3765C42.8131 29.2597 42.86 29.143 42.9063 29.0265C42.9248 28.9799 42.9432 28.9333 42.9616 28.8868C42.9707 28.8635 42.9798 28.8402 42.9889 28.8169C43.0254 28.7238 43.0614 28.6309 43.0969 28.538C43.1681 28.3523 43.2375 28.167 43.3051 27.9822C43.3389 27.8898 43.3723 27.7976 43.4052 27.7055C43.4216 27.6594 43.438 27.6134 43.4542 27.5674C43.4705 27.5214 43.4866 27.4755 43.5026 27.4296C43.5266 27.3608 43.5503 27.292 43.5738 27.2234C43.6051 27.1318 43.6359 27.0404 43.6663 26.9492C43.6815 26.9036 43.6965 26.8581 43.7115 26.8125C43.7339 26.7443 43.756 26.6761 43.7779 26.6081C44.0404 25.7915 44.2636 24.9909 44.4418 24.2152C44.4864 24.0213 44.5281 23.8289 44.567 23.6382C44.6576 23.1933 44.7324 22.7577 44.7903 22.3331C44.884 21.6456 44.9333 20.9871 44.9333 20.3651L44.9332 20.3584Z" fill="#9A8EC2"/>
<path d="M22.6167 9.80238C22.9369 9.53251 23.2722 9.28528 23.6253 9.07337C24.1681 8.74765 24.7034 8.33505 24.8399 7.67808C25.1375 6.24537 23.4137 6.12767 22.4132 6.19306C19.545 6.38052 17.183 8.18523 15.5254 10.4448C15.1028 11.0208 14.7261 11.6263 14.3984 12.2421C13.682 13.5883 12.9603 15.6389 14.1309 16.9537C14.7925 17.6969 15.9921 17.7451 16.8495 17.2401C17.619 14.0143 19.7572 11.3193 22.6167 9.80238Z" fill="#C3BCDE"/>
<path d="M14.7532 19.4701C14.6451 19.2028 14.7614 18.8932 14.6556 18.6257C14.4129 18.0117 13.5382 18.2094 13.1456 18.5344C12.9641 18.6846 12.7929 18.8499 12.6583 19.0433C12.3149 19.5369 12.2391 20.1707 12.2713 20.7712C12.2986 21.2793 12.4403 21.8491 12.8497 22.1883C13.4615 22.6951 14.4132 22.6114 15.1335 22.4421C15.9136 22.2588 16.3477 21.7708 16.4439 20.9705C16.6071 19.6124 15.1228 20.3837 14.7532 19.4701Z" fill="#C3BCDE"/>
<path d="M32.8452 9.56677C34.1255 11.4122 34.8764 13.6524 34.8764 16.0683C34.8764 22.3774 29.7596 27.492 23.4478 27.492C21.7025 27.492 20.0489 27.1003 18.5693 26.4011C20.2617 28.8406 22.8798 30.5898 25.9158 31.1399L25.9171 31.1401C26.0029 31.1557 26.089 31.1702 26.1755 31.1838L26.1822 31.1849C26.2078 31.1889 26.2333 31.1928 26.2589 31.1966L26.2709 31.1984C26.2969 31.2023 26.3229 31.2061 26.3489 31.2097L26.3547 31.2106C26.4115 31.2186 26.4685 31.2262 26.5257 31.2334L26.5379 31.2349C26.5615 31.2378 26.5852 31.2407 26.6088 31.2435L26.6266 31.2456C26.6496 31.2483 26.6727 31.2509 26.6957 31.2535L26.7113 31.2552C26.7678 31.2613 26.8244 31.2671 26.8811 31.2725L26.8937 31.2736C26.9166 31.2757 26.9394 31.2778 26.9623 31.2798L26.9871 31.2819C27.0077 31.2837 27.0284 31.2854 27.0491 31.287L27.0704 31.2887C27.094 31.2905 27.1176 31.2923 27.1413 31.294L27.1548 31.2949C27.1827 31.2969 27.2107 31.2988 27.2386 31.3005L27.2555 31.3015C27.2775 31.3029 27.2994 31.3042 27.3214 31.3054L27.3484 31.3069C27.3679 31.3079 27.3874 31.3089 27.4069 31.3098L27.4331 31.3111C27.4547 31.3121 27.4764 31.313 27.498 31.3139L27.5167 31.3146C27.5449 31.3157 27.5732 31.3167 27.6015 31.3176L27.6121 31.3179C27.6359 31.3186 27.6599 31.3193 27.6838 31.3199L27.7127 31.3205C27.7314 31.3209 27.75 31.3213 27.7687 31.3216L27.7984 31.3221C27.8176 31.3224 27.8369 31.3226 27.8561 31.3228L27.8835 31.323C27.9112 31.3232 27.9389 31.3233 27.9667 31.3233C28.016 31.3233 28.0652 31.3231 28.1144 31.3224C28.1635 31.3218 28.2126 31.3209 28.2616 31.3196C28.2862 31.319 28.3107 31.3183 28.3351 31.3175C28.3841 31.316 28.4329 31.3141 28.4817 31.312C28.6524 31.3044 28.8221 31.2931 28.9908 31.2781C29.039 31.2738 29.0872 31.2693 29.1352 31.2644C29.1592 31.262 29.1832 31.2595 29.2072 31.2569C29.2551 31.2517 29.3029 31.2462 29.3507 31.2405C29.4223 31.2318 29.4937 31.2225 29.565 31.2126C29.6124 31.2059 29.6599 31.199 29.7071 31.1918C29.7308 31.1882 29.7544 31.1845 29.778 31.1807C29.8488 31.1694 29.9194 31.1575 29.9897 31.145C30.0835 31.1282 30.1769 31.1103 30.2699 31.0913C30.3164 31.0818 30.3628 31.072 30.4091 31.0619C30.5711 31.0267 30.7319 30.988 30.8912 30.9459C30.9368 30.9339 30.9822 30.9216 31.0275 30.9091C31.0955 30.8903 31.1632 30.8708 31.2306 30.8507C31.2756 30.8374 31.3205 30.8237 31.3652 30.8098C31.4323 30.789 31.4991 30.7675 31.5657 30.7455C31.5879 30.7381 31.61 30.7307 31.6322 30.7232C31.6985 30.7007 31.7647 30.6777 31.8305 30.6541C32.0718 30.5674 32.3094 30.4729 32.543 30.3708C32.5854 30.3522 32.6278 30.3334 32.6699 30.3143C32.7121 30.2952 32.7542 30.2759 32.7961 30.2564C32.838 30.2368 32.8798 30.217 32.9214 30.1969C33.546 29.8961 34.139 29.5402 34.6941 29.1355C34.8791 29.0006 35.0599 28.8603 35.2363 28.7148C35.254 28.7002 35.2715 28.6856 35.2891 28.671C35.4295 28.5537 35.567 28.4332 35.7016 28.3095C35.7184 28.294 35.7352 28.2785 35.7519 28.2629C37.9933 26.1773 39.3952 23.2021 39.3952 19.8997L39.3952 19.8882C39.3951 19.8615 39.395 19.8347 39.3948 19.8081L39.3945 19.7758C39.3942 19.7514 39.3939 19.7269 39.3935 19.7025L39.3931 19.6813C39.3926 19.6514 39.3919 19.6215 39.3911 19.5917L39.3902 19.5611C39.3896 19.5382 39.3888 19.5154 39.388 19.4925L39.3871 19.4657C39.386 19.4357 39.3847 19.4057 39.3834 19.3758L39.3822 19.3503C39.381 19.3267 39.3799 19.3031 39.3786 19.2795L39.3771 19.2515C39.3754 19.2217 39.3736 19.192 39.3718 19.1623L39.3702 19.1395C39.3687 19.1153 39.367 19.0911 39.3652 19.067L39.3632 19.0393C39.361 19.0094 39.3587 18.9794 39.3562 18.9496L39.3552 18.9374C39.3529 18.9101 39.3505 18.8829 39.3481 18.8556L39.3455 18.8278C39.3431 18.8017 39.3406 18.7757 39.3379 18.7497L39.3364 18.7343C39.3333 18.7039 39.3301 18.6736 39.3268 18.6433L39.3242 18.6196C39.3214 18.5943 39.3185 18.5691 39.3155 18.5438L39.3132 18.524C39.3095 18.4938 39.3058 18.4637 39.3019 18.4336L39.2991 18.4116C39.2959 18.3871 39.2926 18.3627 39.2893 18.3383L39.2861 18.3148C39.2819 18.2846 39.2776 18.2544 39.2731 18.2243L39.2708 18.2088C39.2669 18.1823 39.2629 18.1558 39.2587 18.1292L39.2556 18.109C39.2457 18.0464 39.2353 17.984 39.2245 17.9217L39.2215 17.9048C39.2105 17.8421 39.1989 17.7795 39.1868 17.7172L39.1836 17.7006C39.1779 17.6716 39.1722 17.6427 39.1663 17.6139L39.165 17.6073C39.1584 17.5753 39.1518 17.5434 39.145 17.5115L39.1431 17.5025C39.1366 17.4725 39.1302 17.4425 39.1235 17.4126L39.1219 17.4056C39.1075 17.3406 39.0924 17.2759 39.0769 17.2113L39.0755 17.2058C39.0597 17.1404 39.0434 17.0753 39.0265 17.0104L39.026 17.0089C38.1659 13.7123 35.8695 10.996 32.8452 9.56677Z" fill="#EBD2C6"/>
<path d="M20.2768 12.8412C20.2567 12.8653 20.2366 12.8897 20.2168 12.9142C19.5678 13.7167 18.6016 15.3127 19.3499 16.3122C19.7485 16.8445 20.6286 16.8533 21.1189 16.404C21.6315 15.9342 21.8924 15.2049 22.3568 14.6815C22.657 14.3432 23.0004 14.0433 23.3761 13.7915C24.1462 13.2754 25.0788 12.9758 25.5465 12.1047C25.8023 11.6282 25.6043 11.0446 25.1366 10.7877C24.5578 10.4699 23.788 10.7081 23.2059 10.8932C22.0729 11.2534 21.0401 11.9278 20.2768 12.8412Z" fill="#FAF1ED"/>
<path d="M19.4645 19.2234C19.9022 19.159 20.1638 18.9108 20.2541 18.4751C20.4074 17.7356 19.5548 18.0906 19.3942 17.5707C19.3472 17.4187 19.4257 17.2538 19.38 17.1017C19.2751 16.7526 18.7848 16.8205 18.5536 16.981C18.4468 17.0551 18.3449 17.1381 18.2618 17.2382C18.0498 17.4937 17.9785 17.8388 17.9681 18.1706C17.9594 18.4514 18.0107 18.7715 18.2201 18.9771C18.5329 19.2845 19.0604 19.2828 19.4645 19.2234Z" fill="#FAF1ED"/>
</svg>
